/* XPM */
static char *result[] = {
/* columns rows colors chars-per-pixel */
"60 60 216 2 ",
"   c #2B1903",
".  c #351E07",
"X  c #3C2206",
"o  c #3D2409",
"O  c #36220A",
"+  c #432609",
"@  c #48260B",
"#  c #46280B",
"$  c #4E2C0C",
"%  c #522D0D",
"&  c #5A2F0F",
"*  c #55310F",
"=  c #5B330F",
"-  c #5E390F",
";  c #4E2B12",
":  c #4C2611",
">  c #532D12",
",  c #592D10",
"<  c #4F3011",
"1  c #553211",
"2  c #5B3311",
"3  c #5E3914",
"4  c #61360E",
"5  c #6A3F0E",
"6  c #613613",
"7  c #653915",
"8  c #6D3D15",
"9  c #65361A",
"0  c #6C3D18",
"q  c #673B17",
"w  c #713F16",
"e  c #753F1A",
"r  c #6B420D",
"t  c #72460B",
"y  c #764A09",
"u  c #7E530E",
"i  c #6C4116",
"p  c #6C4118",
"a  c #674019",
"s  c #734116",
"d  c #7B4516",
"f  c #734118",
"g  c #7A4619",
"h  c #79491B",
"j  c #784915",
"k  c #7C4B20",
"l  c #84550C",
"z  c #8A5B09",
"x  c #915C0E",
"c  c #844D1D",
"v  c #874D17",
"b  c #895413",
"n  c #8C511E",
"m  c #845217",
"M  c #935C12",
"N  c #91531B",
"B  c #995A18",
"V  c #A1591F",
"C  c #976709",
"Z  c #996612",
"A  c #A26D0A",
"S  c #AC750B",
"D  c #AB790C",
"F  c #AB7A04",
"G  c #B67D06",
"H  c #AB6A15",
"J  c #A86817",
"K  c #B26E19",
"L  c #A27011",
"P  c #B37415",
"I  c #B87616",
"U  c #B37D14",
"Y  c #854F20",
"T  c #855221",
"R  c #885321",
"E  c #955B24",
"W  c #9A5D26",
"Q  c #9D5E28",
"!  c #A15E26",
"~  c #A55F25",
"^  c #9E6027",
"/  c #9F6128",
"(  c #A46227",
")  c #AC6325",
"_  c #A36128",
"`  c #AA6529",
"'  c #AD692C",
"]  c #B26425",
"[  c #BB6526",
"{  c #B26529",
"}  c #B36A2B",
"|  c #BB6B2A",
" . c #BA6A26",
".. c #B56F32",
"X. c #B47134",
"o. c #BA7433",
"O. c #BD7638",
"+. c #C67A1B",
"@. c #D27F1F",
"#. c #C2662B",
"$. c #C46C2B",
"%. c #CA6D2B",
"&. c #C57124",
"*. c #C6712A",
"=. c #CC722C",
"-. c #CD7923",
";. c #D2752C",
":. c #DD7A2D",
">. c #D57B27",
",. c #DB7D31",
"<. c #D77B30",
"1. c #E37E2E",
"2. c #BC8403",
"3. c #BA8709",
"4. c #BD8611",
"5. c #C58C04",
"6. c #C98C08",
"7. c #D28F00",
"8. c #CA9206",
"9. c #C89308",
"0. c #D49C04",
"q. c #DB9D03",
"w. c #C48113",
"e. c #CE8815",
"r. c #D38D12",
"t. c #D3831B",
"y. c #D38C1B",
"u. c #DB8B19",
"i. c #DE9215",
"p. c #DC9415",
"a. c #E39615",
"s. c #E59B13",
"d. c #E99D13",
"f. c #E99F18",
"g. c #E39C0C",
"h. c #DCA404",
"j. c #D8A309",
"k. c #E5A601",
"l. c #ECAC04",
"z. c #E7A20E",
"x. c #EAA30D",
"c. c #EFAE0C",
"v. c #F4AF02",
"b. c #F2A90C",
"n. c #EEB40D",
"m. c #E7B107",
"M. c #F6B301",
"N. c #F9B401",
"B. c #F6BA01",
"V. c #FABB01",
"C. c #F3B10D",
"Z. c #F6BA0C",
"A. c #FBBE0D",
"S. c #E5A513",
"D. c #ECA412",
"F. c #EDAD19",
"G. c #EBAA17",
"H. c #F4BE15",
"J. c #F9BC14",
"K. c #F0B01A",
"L. c #F4BE1B",
"P. c #F2AC19",
"I. c #D58121",
"U. c #DE8133",
"Y. c #C8853F",
"T. c #E7812F",
"R. c #E98432",
"E. c #E58B3B",
"W. c #EE8E3B",
"Q. c #E68736",
"!. c #F0913F",
"~. c #F7BC24",
"^. c #F6C106",
"/. c #FCC202",
"(. c #FFC902",
"). c #FAC30B",
"_. c #FECB0B",
"`. c #F7C30B",
"'. c #FAC413",
"]. c #FECD16",
"[. c #F7C419",
"{. c #FAC51A",
"}. c #FDCA1B",
"|. c #F7C212",
" X c #FBC523",
".X c #FCCC26",
"XX c #FDD42B",
"oX c #FBCD3C",
"OX c #F8C939",
"+X c #FFD73A",
"@X c #EA9444",
"#X c #E99A4B",
"$X c #F19847",
"%X c #EBA04F",
"&X c #F1A14C",
"*X c #EAA154",
"=X c #F4A755",
"-X c #FBC742",
";X c #FBCB4F",
":X c #FFDD44",
">X c #FBD246",
",X c #F9CD50",
"<X c #FAD359",
"1X c #F8CE60",
"2X c #FAD869",
"3X c #F7D571",
"4X c #FFE97F",
"5X c #FFE874",
"6X c #F9DB84",
"7X c #F9DE97",
"8X c #FDE79B",
"9X c #F9E18B",
"0X c #FCE9A8",
"qX c #FAECBB",
"wX c #FFF5CB",
"eX c #FCF1D3",
/* pixels */
"2 p a p p p a q p a p p p p p p p p p p i p p p p p p p p p f p p f i p f p i p h s s p s p f i s p i p a i 0 0 0 a p O ",
"R *X*X*X#X#X#X#X@X@XE.E.E.E.U.Q.Q.U.U.U.U.,.<.<.<.>.;.;.;.;.=.=.*.*.*.*.| |  .} } } ] } { ` ` ` ` ( ( ^ ( W W ^ W W ^ o ",
"T =XY.X.O.o.X.} } } } ' ' ' ` ` ( ` ( ( ( _ ( Q Q _ Q Q ^ ^ ^ ^ W W W W / ^ ^ ^ W W ^ ^ W W W Q ^ W ^ ^ ^ ^ ^ Q E E ^ o ",
"T =XX.h q q q a a q q 8 a a p a a a p a q i i i i i 0 i a a p a 0 i i i p p p p p p i i p i p i a i a i a p i i E W W o ",
"T &XO.$ X # # # @ # # # @ X O X o o o o o X X X . + @ @ # # # # @ @ # X + . + . X X . X X X O # # + # + @ # +   T ^ W o ",
"T &XX.< * j f f s e f f g 7 2 6 7 - 3 3 4 3 6 6 2 w f w s s s j f e d 7 6 6 4 6 6 3 3 6 6 4 2 0 s s s w s s f X T W E o ",
"T $Xo.* % w 8 8 8 8 8 0 0 6 = 2 = = 2 = = 2 = = > 8 5 8 8 7 6 7 q 7 7 ; > 2 2 = = 2 = 2 = = > 8 8 8 8 8 8 8 8 X m ^ ^ + ",
"T $X} * % s 8 8 8 8 8 8 8 6 % 2 = = = = 2 = = 2 > 8 8 7 8 v B J H H J z i * > = 2 2 2 = 2 = 2 8 8 w 8 8 8 8 s X T ^ E o ",
"c $X} * % e 8 8 8 8 8 8 w 6 * = 2 & = 2 = = 2 3 ; 3 d H y.G.P.F.K.F.f.a.i.w.Z 6 > - = & 2 2 2 0 8 8 8 8 8 8 8 X R W W o ",
"T !.} < % e 5 8 8 8 8 8 8 6 * 2 2 = 2 = 2 = 3 $ 2 U K.}.}.}.}.}.}.{.{.L.F.d.s.r.M % = - 2 2 , 8 8 8 8 8 8 8 w O R W W + ",
"c W.' * % w 8 8 8 8 8 8 8 6 * = 2 2 2 2 = 2 ; m F.].].{.{.{.{.{.'.{.{.{.}.{.F.s.d.G 7 * 3 2 1 0 8 8 8 8 8 8 w X T W W o ",
"R W.' < % w 8 8 8 8 8 8 w 6 * 2 2 = 2 2 = % D ]..X{.'.{.'.{.'.{.'.{.{.'.{.'.{.[.f.d.r.8 % 2 > 8 8 8 8 8 8 8 w X R W W o ",
"T W.' < $ s 8 8 8 8 8 8 w 6 * 2 = = = = 1 9.XX>X[.'.'.'.'.'.{.'.'.'.'.'.'.'.'.'.'.G.s.r.0 % 2 8 8 8 8 8 8 8 8 O R W W o ",
"n R.` < % f 8 8 8 8 8 8 8 6 * 2 2 2 2 , 9.:X1X X`.'.|.'.'.|.'.'.'.'.'.'.'.'.'.'.'.'.D.d.6.3 1 8 8 8 8 8 8 w w X R W W o ",
"c R.' 1 % s 8 8 8 8 8 8 8 6 % 2 & 2 > 3.:X6X X^.'._.'.'.'.'.|.`.|.'.).'.'.'.'.'.'.)._.S.D.P ; 0 8 8 8 8 8 8 w X R W W o ",
"R R.` 1 % s 8 8 8 8 8 8 w 6 % 2 2 $ C +X8XoX/.'.'.).'.)._._._._._._._.A.).).'.).).'.`.Z.p.g.j 7 8 8 8 8 8 8 8 . R W W o ",
"n R._ < % e 8 8 8 8 8 8 8 6 * 3 > r H.0X2X).).).).).)._.j.U Z Z L w.n._.`.`.`.).^.).).).C.s.+.9 i 8 0 e 8 8 w X c E ^ o ",
"T T.( * % w 8 8 8 8 8 8 w 7 % 4 > 2.5X0X'./.).).).^.A.J 6 9 9 7 6 6 s 4._.`._.).).^.V._./.s.s.l 8 8 8 8 8 8 8 X R E ^ o ",
"n T.( * % w 8 8 8 8 8 8 8 6 = > t .XwX<X/.).^.^.^./.J 6 w i s 8 8 w w ; 3.(.^.^.^.).).^._.c.s.P 6 8 8 8 8 8 w O R ^ ^ O ",
"R :.( * % e 8 8 8 8 8 8 8 6 = : F 4XqXV.V././././.t.0 8 8 8 8 8 8 8 w 2 < j././././././.^.V.g.y.8 8 8 8 8 8 w X T ^ ^ o ",
"n 1._ 1 % f 8 8 8 8 8 s w 3 % 4 m.wX<XV./.^.^./.x.N 7 w 8 8 8 8 8 8 8 2 % u /./.V./.^./././.S.p.m 8 8 8 8 8 w X T ^ E o ",
"n :.Q 1 % f 8 8 8 0 8 8 8 6 > z +XeX)././././.V.+.w 8 0 8 i 8 8 8 8 w 2 2 % j.(.V./.B./././.n.s.M 7 8 8 8 8 8 O R ^ ^ o ",
"n :.! 1 % w 8 8 8 8 8 8 w 6 > 2.4X9XV./.V.V./.D.V 6 w 8 8 8 8 8 0 8 w 2 2 > C (.V./.^./.V./.M.s.J q w 8 8 8 i o m ^ ^ O ",
"n :.Q 1 % s 8 8 8 8 0 8 8 3 1 k.8XOXV././.V./.u.g 6 r 8 8 8 8 8 8 8 w 2 = % j /./.V.V./././.B.p.P 6 8 8 8 8 i O T E ^ o ",
"n :.Q * % f 8 8 8 8 8 8 s , t ^.2XV.V.^.B./.N.+.7 7 8 8 8 8 8 8 8 8 8 2 = & 4 l./.B.^.V./.B.V.s.I 6 w 8 8 8 8 . T ^ E o ",
"R >.Q 1 % f 8 8 8 8 8 8 s > z (.{.^.V./.V./.D.#.2 q 8 8 8 8 8 8 8 8 w 2 = 2 % 0./.B././.B./.B.s.I q 8 w 8 8 e . T ^ ^ o ",
"R :.Q * % w 8 8 8 8 8 8 i > D (.B.V.B.B.B./.d.] > 8 8 0 8 8 8 8 8 8 w 2 > - > 8./.B.V.B.V.^.B.D.I 7 w 8 8 8 w X c ^ ^ o ",
"n ;.Q % % e 8 8 8 8 8 8 f > 3./.B.B./.B.B./.u.V > 0 8 8 8 8 8 8 8 8 w & 2 6 > 6./.V.^.B.V.V.B.s.K 7 w 8 8 8 w X T E ^ o ",
"n ;.^ 1 % e 5 8 8 8 8 8 8 1 0./.B.V.^.V.V.V.y.V ; 5 i 8 8 8 8 8 8 8 w 2 2 2 % 6.(.B.V.V.V.V.B.s.J 6 w 8 8 8 w O T ^ E o ",
"n =.^ 1 % f 8 8 8 8 8 8 w 2 j./.B.V.V.V.V.B.I.! ; 8 i 8 8 8 8 8 8 8 8 2 & = > 0./.V.V.V.B.V.B.s.B 7 8 8 8 8 w X T ^ ^ o ",
"n ;.^ * % e 8 8 8 8 8 8 8 3 h.V.B.V.V.V.V.B.>.B $ 7 s 8 8 8 8 8 8 8 e 2 = 2 = h./.V.B.B.B.V.M.i.b 0 8 8 8 8 w X R ^ ^ o ",
"n =.W * % w 8 8 8 8 8 8 8 6 h./.N.V.V.V.V.V.>.~ ; 8 8 8 8 8 8 8 0 8 8 2 = % 5 B.V.V.V.V.V.V.C.t.d 8 w 8 8 8 w O c W W o ",
"n =.W 1 % s 8 8 0 8 8 8 8 3 q.V.M.B.V.B.M.B.I.) % 8 8 8 7 8 8 8 8 0 8 2 2 > l V.B.V.B.B.N.V.b.+.8 8 8 8 8 8 w . R W W o ",
"N &.^ 1 % e 8 8 8 8 8 8 w , 8./.B.M.V.V.B.V.t.[ 3 7 8 8 8 8 8 8 8 8 w 2 = > S _.Z.N.V.V.V.V.D.H 7 w 8 8 8 8 w O R Q W + ",
"n *.^ 1 % w 8 8 8 8 8 8 s > 2./.B.B.V.N.V./.u.#.8 6 w 8 w 8 8 8 8 8 8 & = & 0.}.V.V.V.N.M.V.a.N 7 8 8 8 8 8 w X T W E o ",
"n | ^ 1 % w 8 8 8 8 8 8 s * A /.B.B.N.V.M.V.g.%.n 6 8 8 8 8 8 8 8 8 e 2 > t J. XV.M.N.B.B.M.t.f 8 8 8 8 8 8 8 X T W W + ",
"N | ^ < < s 8 8 8 8 8 8 i > l V.M.V.V.M.B.V.M.%.] 8 w 8 8 8 w 8 8 0 8 6 : G .X~.N.V.B.N.V.b.J 6 w 8 8 8 8 8 w X R W W o ",
"N | ^ 1 % s 8 8 8 8 8 8 s 2 4 l.V.N.M.V.M.M.V.@.#.v 7 8 8 8 q 8 8 8 w > r Z.OXJ.B.M.V.N.V.i.e 7 w 8 8 8 8 8 8 X R W ^ o ",
"R | W 1 $ f 8 8 8 8 8 8 8 3 ; 5./.V.M.V.V.M.V.z.#.[ w 8 w 8 8 w 8 8 8 > 5.oXOXN.M.V.N.V.C.K ; 8 8 8 8 8 8 8 w O R W W o ",
"E | ^ 1 % f 8 8 8 8 8 8 8 7 ; l V.M.N.M.V.N.N.V.@.#.) 5 q 8 8 5 8 7 9 G }.1XL.N.B.N.N.V.a.s ; 8 8 8 8 8 8 8 w X R W W o ",
"n } ^ 1 % w 8 8 8 8 8 8 w 3 > & q.V.N.N.B.M.M.V.v.&.#.] c w w 0 e N 7.J.3X-XN.M.M.M.V.v.J , 2 8 8 8 8 8 8 8 8 O T W ^ o ",
"n } ^ 1 % 8 8 8 8 8 8 8 8 6 2 % z V.M.M.V.M.B.M.N.N.t.*.#.[ [ +.u.v.'.6X<XM.M.N.M.M.N.y.7 > > 0 8 8 8 8 8 8 w X T ^ E o ",
"n ] ^ * % e 8 8 8 8 8 8 8 6 , 3 > 5.V.M.M.M.M.N.N.N.N.l.x.x.b.N.V.;X7X;XN.N.M.N.B.N.D.g % 3 2 0 8 8 8 8 8 8 w X T ^ ^ o ",
"n ] Q * % w 8 8 8 8 8 8 w 6 % 3 & r M.V.M.N.N.N.N.N.N.N.V.N.N.v.~.-XZ.v.M.N.N.N.M.N.N % 6 2 > 8 8 8 8 8 8 8 8 O c W ^ o ",
"n ` ^ * % e 8 8 8 8 8 8 8 2 2 2 = > x V.N.N.N.N.N.N.N.M.v.N.M.M.N.v.v.N.N.N.N.N.N.M > 2 = = > 8 8 8 8 8 8 8 8 o T ^ E o ",
"n ` / * % e 8 8 8 8 8 8 w 6 % = = 3 > S V.v.v.N.N.N.N.v.N.v.N.N.N.N.N.N.N.v.N.v.b ; 3 2 & = 2 8 8 8 8 8 8 8 8 X R ^ ^ o ",
"c ` ^ 1 % w 8 8 8 8 8 8 w 6 * 2 = 2 = > S V.N.v.v.M.N.N.N.N.N.N.v.N.M.v.v.V.q.t : 2 2 2 2 2 1 0 8 8 8 8 8 8 8 X T ^ ^ o ",
"c ` ^ 1 % e 8 8 8 8 8 8 w 2 = 2 = 2 = = > x k.V.N.v.v.v.v.v.v.v.v.v.N.V.N.G 2 % 6 2 2 2 , 2 1 8 8 8 8 8 8 8 i O T E ^ o ",
"n ` ^ 1 $ f 8 8 8 8 8 8 8 6 1 2 2 = = 2 4 > 6 C q.M.V.V.N.V.V.V.V.N.l.5.y > & 2 = 2 2 = 2 = 1 0 8 8 8 8 8 8 w O T W W o ",
"c ( ^ 1 * i 0 8 8 8 8 8 w 6 = = = 2 2 = 2 2 = > > m A G 6.6.5.+.S M f ; : 6 2 2 2 = = 2 = 2 > 8 8 w 8 0 8 8 e . T W W o ",
"T ( ^ * % w 8 8 0 8 8 8 8 3 % = 2 = = 2 2 2 = 6 > 6 9 2 9 7 7 6 9 7 w 6 2 4 = = 2 2 = 2 2 = 1 8 8 8 8 8 8 8 w X T ^ ^ + ",
"c ( W * % e 8 8 8 8 8 8 w 6 * = 2 = 2 2 & 2 = = 1 8 w 8 e w w w e 5 w & , 2 & 2 2 = 2 = = 2 1 8 8 8 8 8 8 8 8 X T W W o ",
"c ( ^ 1 % f 8 0 8 8 8 8 8 2 % = = 2 2 2 = 2 2 2 1 8 8 8 8 8 8 8 8 8 w 2 1 & 2 2 2 = 2 2 2 2 > 8 8 8 8 8 8 8 8 X R W W o ",
"c Q ^ 1 > w 0 8 8 8 8 8 8 3 2 2 2 = 2 = = 2 = 2 > 8 8 8 8 0 8 q 8 8 w 2 = 2 2 2 = = = 2 = = 1 8 8 8 8 0 8 8 8 X T W W o ",
"h Q W 1 * g w s f p f s f 7 3 6 3 = 4 6 6 4 3 4 2 8 f w s s f f 8 e e 3 2 4 3 4 4 - 6 4 3 4 3 w w 8 s s f f f X T W ^ o ",
"h Q ^ 1 . % $ $ $ $ $ $ % @ o + + + + + X X + + O $ $ $ $ $ $ ; % $ $ + X + + X X + + . + + O $ $ $ $ $ % $ %   T W W o ",
"c Q Q h 3 3 3 3 3 3 3 3 3 3 3 3 3 7 3 3 3 7 3 3 3 3 3 3 3 3 3 3 3 3 3 3 7 3 3 3 3 7 3 3 3 3 3 7 3 3 2 3 2 3 3 7 N E W o ",
"h W E W ! Q W ^ ^ ^ ^ W ^ W ^ ^ Q Q ^ ^ ^ Q ^ ^ ^ ^ ^ W ^ W W / Q W ^ Q Q Q ^ ^ ^ ^ ^ ^ Q Q ^ ^ ^ ^ ^ ^ ^ ^ ^ ^ ^ E ^ o ",
"Y _ W W W W W W W W W W W W W W W W W W W W W W W W W W W W W W W Q W W W W W W W W W W W W W W W W ^ W W W W E W ^ ^ o ",
"7 h h g h h h h h h h h h h h h h h j j h h h h h h h h h h h h h h j j h h h h h h h h h h h h h h h h h h h h h h h O "
};
