/* XPM */
static char *result[] = {
/* columns rows colors chars-per-pixel */
"60 60 198 2 ",
"   c #2C1B06",
".  c #351E05",
"X  c #391F06",
"o  c #371E08",
"O  c #3A1F09",
"+  c #352106",
"@  c #3A2106",
"#  c #36220A",
"$  c #3C2309",
"%  c #3F2809",
"&  c #40260B",
"*  c #442A0D",
"=  c #4C2D0D",
"-  c #532E0E",
";  c #4F310F",
":  c #55310F",
">  c #5A330F",
",  c #5E390F",
"<  c #442B11",
"1  c #4E2D11",
"2  c #4B2613",
"3  c #532C12",
"4  c #5D2D16",
"5  c #543111",
"6  c #5B3310",
"7  c #5F3811",
"8  c #663606",
"9  c #683506",
"0  c #65350C",
"q  c #69360B",
"w  c #69380F",
"e  c #633515",
"r  c #663914",
"t  c #6D3D15",
"y  c #623419",
"u  c #6D3D18",
"i  c #683716",
"p  c #713F16",
"a  c #733F19",
"s  c #6B440D",
"d  c #7C4D0E",
"f  c #6F4115",
"g  c #6D4019",
"h  c #724016",
"j  c #744018",
"k  c #7D4C1D",
"l  c #784216",
"z  c #7F4A20",
"x  c #88580B",
"c  c #814E1E",
"v  c #854C18",
"b  c #895710",
"n  c #84511E",
"m  c #8B521F",
"M  c #825013",
"N  c #92551F",
"B  c #9C5D17",
"V  c #9D690C",
"C  c #916407",
"Z  c #A16F0E",
"A  c #AA750B",
"S  c #AF7C09",
"D  c #B57E0C",
"F  c #BC7D0C",
"G  c #A6601B",
"H  c #A76319",
"J  c #B4671F",
"K  c #B56B1E",
"L  c #BA6F1D",
"P  c #BA721B",
"I  c #B57214",
"U  c #814D21",
"Y  c #865220",
"T  c #8A5421",
"R  c #8E5824",
"E  c #8E5829",
"W  c #935520",
"Q  c #965B25",
"!  c #9A5D26",
"~  c #9C5E28",
"^  c #A05F27",
"/  c #A05F29",
"(  c #9E6027",
")  c #9F6129",
"_  c #A46126",
"`  c #AA6427",
"'  c #A46228",
"]  c #AB6529",
"[  c #AD6A2D",
"{  c #B36621",
"}  c #B76927",
"|  c #BA6D24",
" . c #B26729",
".. c #B56A2A",
"X. c #BB6C2A",
"o. c #BC722E",
"O. c #B46E32",
"+. c #B77232",
"@. c #C17919",
"#. c #D07B1E",
"$. c #C26E29",
"%. c #C67322",
"&. c #CB7424",
"*. c #C6702A",
"=. c #CC732B",
"-. c #D27926",
";. c #D4762C",
":. c #DD7A2D",
">. c #D8762B",
",. c #C27432",
"<. c #C97F38",
"1. c #C77A36",
"2. c #D27C32",
"3. c #E27E2E",
"4. c #E67F30",
"5. c #BC8108",
"6. c #C48509",
"7. c #C68A06",
"8. c #CD9004",
"9. c #DE9D03",
"0. c #D3851B",
"q. c #DF8E18",
"w. c #DA8C17",
"e. c #DD9319",
"r. c #D99F19",
"t. c #E29C09",
"y. c #E18D1A",
"u. c #E39416",
"i. c #E49915",
"p. c #E59C19",
"a. c #E19118",
"s. c #D8A109",
"d. c #D9A619",
"f. c #E9A908",
"g. c #F4AF02",
"h. c #FAAF08",
"j. c #F3A30E",
"k. c #ECB40A",
"l. c #F6B301",
"z. c #F9B401",
"x. c #F6B900",
"c. c #FABB01",
"v. c #FABF0D",
"b. c #E8A918",
"n. c #F5B91C",
"m. c #F9BF15",
"M. c #CC833B",
"N. c #D48137",
"B. c #D4853C",
"V. c #E78031",
"C. c #EC8936",
"Z. c #EE8D3C",
"A. c #EA8533",
"S. c #F0913F",
"D. c #DCAB28",
"F. c #DAAA37",
"G. c #DCB037",
"H. c #FBC203",
"J. c #FFCC05",
"K. c #FAC30C",
"L. c #FFCD0D",
"P. c #F7C00B",
"I. c #FAC513",
"U. c #FBC913",
"Y. c #FAC61A",
"T. c #FCCA1B",
"R. c #F7C417",
"E. c #F9CC2E",
"W. c #FFD022",
"Q. c #FECC35",
"!. c #FED63E",
"~. c #FFD938",
"^. c #D38B44",
"/. c #D08742",
"(. c #DD954D",
"). c #F19643",
"_. c #F39C4B",
"`. c #DBB24B",
"'. c #DAB243",
"]. c #DDB557",
"[. c #F0A24D",
"{. c #F6AA57",
"}. c #DCB865",
"|. c #DCB969",
" X c #DAB660",
".X c #FFD94D",
"XX c #FDD445",
"oX c #FFDA5D",
"OX c #FED557",
"+X c #FFE051",
"@X c #FEDC65",
"#X c #FEDD6B",
"$X c #F9D766",
"%X c #FBDB74",
"&X c #FEE789",
"*X c #FDEEB5",
"=X c #FFF2BB",
"-X c #FBF1CE",
/* pixels */
"$ & $ $ $ $ $ $ $ $ $ $ % $ $ % $ $ $ % $ $ % $ $ $ $ % % & % & $ * * * & * * & & * & * * * * * & * * * * & = & * * *   ",
"T ^.^.^.^.^.B.^.B.B.B.N.N.N.N.2.N.2.2.2.2.2.2.=.=.2.2.=.*.*.*.*.*.$.X.X.X.X.X.| | }  . . .] ` ` _ ` _ ^ ^ ~ ! ~ ! ! ~ & ",
"E {.(././.B.M.M.M.1.1.*.o.o.o.o.o....... ... .] ] ' ] ] ] ' ' _ ' / ' ~ ^ ^ ~ ! ~ ~ ! ! ! ! ! ~ ! ! ~ ! ! ! Q ! ! Q ! & ",
"R {.[ k k k c k k z k k k Y U c z n z n z n U c z Y k k Y k Y Y c n c Y Y c n Y Y U Y Y U Y Y c U Y c Y n n n m W Q ~ & ",
"R [.+.: . & & $ $ & & $ $ @ @ O $ # @ @ @ @ O @ + & & $ $ $ $ $ $ $ & o # + @ @ X X X @ X X # $ & $ & X & $ &   T ~ ! & ",
"R [.+.= : j p h t f p p h e 6 6 6 6 6 6 e 6 6 6 > r h h f p h j h t h e 6 6 6 6 e 4 0 e 6 6 6 g p p p p p p a O Y ! ! & ",
"T _.O.1 - f t t t t t t f 6 5 > 6 6 7 6 > 6 6 6 : r t w t r t t t t t 6 > 6 6 6 > > > 6 6 6 5 i t t t t t t p $ Y ! ~ & ",
"R )...= - h t t t t t t t e 5 6 6 6 6 > 6 6 6 6 5 r h r t t g t t t t 6 5 6 6 6 > > 6 6 6 6 5 t w t t t t p p X Y ! ! & ",
"R ).[ = - l t t t t t t p 6 6 6 6 6 6 6 6 6 6 6 5 t t t t r h p f t a 6 > 6 6 6 > 6 > 6 6 6 5 t t t t t t t t @ Y ~ ! $ ",
"R Z.[ 1 - p t t t t t t p 6 6 6 6 > 6 6 6 6 6 > 3 t g t t f t r r h t 3 6 6 6 > 6 6 6 6 6 6 5 t t t t t t t p @ Y ~ Q * ",
"R Z.[ 1 - p t t t t t t p 6 : 6 > 6 6 6 6 6 6 6 5 i t t t e l B P @.@.B 6 : > 6 6 6 6 6 6 6 5 t t t t t t t u @ Y ! ~ $ ",
"W Z.] ; - p r t t t t t t 6 6 6 6 6 > 6 6 > 6 6 5 t f i t I b.n.n.b.e.q.P r : , > 6 6 6 6 6 3 u t t t t t t a @ Y ! ~ & ",
"R C.] ; : h t t t t t t p > > 6 6 6 6 6 6 6 6 > 3 t e b b..X.XE.T.T.Y.e.q.H 3 6 6 > 6 6 6 6 5 t t t t t t t t @ Y ! ! $ ",
"T C.' ; : h t t t t t t p > 5 6 > 6 6 > 6 6 6 > 5 6 A XX&X$XE.Y.U.Y.Y.Y.q.@.- 6 6 6 6 6 6 6 5 t t t t t t t p @ Y ! ! & ",
"m A.' ; - a t t t t t t p 6 6 6 6 6 6 6 6 6 6 6 2 D +X*X$XI.R.R.R.R.R.U.p.I > > 6 6 > 6 6 6 5 i t t t t t t p @ Y ! ! & ",
"W A.' : : h t t t t t t p 6 6 > 6 6 6 6 6 6 6 3 C ~.-X$XK.I.I.I.U.I.I.U.p.P > 6 6 > 6 6 6 6 5 t t t t t t t p X Y ! ! & ",
"R V.' 5 - p t t t t t t p 6 3 6 6 6 6 6 6 > > 0 k.=X%XH.I.I.I.K.U.I.I.U.p.P > 6 6 6 6 6 6 6 5 t t t t t t t u @ Y ! ~ & ",
"R V.' 1 - t t t t t t t p 6 > 6 > 6 e 6 6 6 3 x !.$XH.I.K.K.I.K.K.K.K.K.p.P > 6 > 6 6 > 6 6 5 t t t t t t t h @ Y ! ! & ",
"N 3.' 5 - p t t t t t t t 6 6 6 > 6 > > 6 6 3 b L.H.P.K.K.H.K.K.I.K.K.K.p.P 6 6 6 6 6 6 6 6 5 t t t t t t t h @ Y ! ! $ ",
"N 3.' 5 - p t t t t t t h 6 5 6 > > > > e > > > f.L.P.P.K.v.K.K.H.K.H.K.i.P 5 6 > 6 6 > 6 6 5 t t t t t t t u @ Y ! ~ & ",
"N 3.~ : - l t t t t t t p 6 6 6 6 6 4 6 > > 6 - s f.J.J.H.H.K.H.H.P.H.K.i.P 6 6 6 6 6 6 6 > 5 u t t t t t t p @ Y ! ! & ",
"N :.! : - j t t t t t t p 6 6 6 6 6 6 6 > > > e 1 t Z D k.H.H.H.H.H.H.H.i.P 5 > > 6 6 > 6 6 5 t t t t t t t u $ Y ! ! & ",
"m :.( : : j t t t t t t p 6 5 6 6 6 6 6 6 6 6 6 5 r i 6 s.J.H.H.H.c.c.J.i.P > > 6 6 > 6 6 6 5 t t t t t t t u @ Y ! ! & ",
"N :.~ ; - j t t t t t t t 6 6 6 > 6 > 6 6 > 6 6 : t t t d.W.c.H.H.H.H.H.i.| > > 6 6 6 6 6 > 5 t t t t t t t t @ Y ! ~ & ",
"N >.( ; ; h t t t t t t p 6 6 6 > 6 6 > 6 6 6 6 5 r t w d.!.c.H.H.H.c.H.i.P > > 6 > 6 6 6 6 3 t t t t t t t t @ Y ! ! & ",
"W >.( 5 = h t t t t t t h 6 5 6 6 6 6 6 6 > 6 6 5 r f w D..Xc.H.H.c.H.H.i.L 6 6 6 6 6 > 6 6 5 u t t t t t t h @ Y ! ! & ",
"W ;.( ; 3 h t t t t t t h 6 6 6 6 6 6 6 > 6 6 > 5 r g q G.oXx.H.x.H.x.H.i.L 6 6 6 > 6 6 6 6 5 t t t t t t t u @ Y ! ~ & ",
"W ;.( 1 - h t t t t t t p 6 6 6 6 > > 6 6 6 6 6 5 t f q '.@Xx.c.H.H.x.H.i.L > 6 6 6 6 > 6 6 3 t t t t t t t u @ Y ! Q & ",
"N =.( : - j t t t t t t p 6 - 6 6 > 6 6 > 6 6 6 5 r h q `.@XH.H.H.x.H.H.i.K > > 6 6 6 6 6 6 5 t t t t t t t h @ Y ! ! & ",
"N *.( 1 - h t t t t t t p 6 6 6 6 6 > 6 6 6 6 > 5 t f 9 ].#Xx.x.x.H.x.H.i.K > 6 6 > 6 > 6 6 5 t t t t t t t u @ Y ! ! & ",
"W =.~ 5 - p t t t t t t t 6 6 6 6 6 6 6 6 6 6 6 5 t g 9 }.#Xx.x.c.c.x.c.u.K > 6 6 6 6 6 6 6 5 t t t t t t t h @ Y ! ~ & ",
"N *.! 3 - a t t t t t u h 6 : 6 6 > 6 6 > 6 6 6 5 r f 8 |.#Xx.c.x.H.x.H.u.K > > 6 6 > 6 6 6 5 u t t t t t t u $ Y ! ! & ",
"Q *.~ : - a t t t t t t t 6 6 6 6 6 6 6 6 6 6 6 3 t t 8 |.#Xx.x.x.x.x.H.u.J > > > > 6 6 > 6 5 t t t t t t t g @ Y ! ! & ",
"N *.! : - a t t t t t t t 6 6 6 > 6 6 > 6 > 6 6 5 t u 8 |.#Xx.v.c.c.x.c.a.J > > 6 > 6 6 6 6 5 t t t t t t t u @ Y ~ ! & ",
"N $.! - - a t t t t t t h 6 6 6 6 6 6 6 6 > 6 > 5 r t 9 |.#Xx.x.c.c.x.c.a.J > 6 6 6 6 > 6 6 5 t t t t t t t p @ Y ! ! & ",
"W X.! 5 - p t t t t t t p 6 3 6 > 6 6 > 6 6 6 6 5 t p 9 |.#Xz.z.x.x.c.c.q.J > 6 6 > 6 6 6 6 5 t t t t t t t p @ Y ! ! & ",
"Q X.! 1 : h t t t t t t t 6 6 6 6 6 > 6 6 > 6 > 5 t h 9  X#Xx.x.x.c.z.x.a.J > 6 6 6 6 6 6 6 5 t t t t t t t g @ Y ! ! $ ",
"N X.! 5 - h t t t t t t p 6 6 6 6 6 6 6 6 6 6 6 5 r f 8 ].#Xx.x.z.x.c.x.a.{ > > > 6 > 6 6 6 3 t t t t t t t t @ Y ! ! & ",
"N X.! : - a t t t t t t h 6 5 6 6 > 6 6 6 6 6 6 5 r h q `.@Xl.x.x.x.x.c.a.{ > > 6 6 > 6 6 6 5 t t t t t t t t $ Y ! ! & ",
"W X.~ - - a t t t t t t t 6 6 6 6 6 > 6 6 > 6 > : r t q F.$Xl.z.c.z.c.c.y.J > 6 6 6 6 6 6 6 5 u t t t t t t a @ Y ~ ! & ",
"N  .( 5 - p t t t t t t p 6 6 6 6 6 4 6 6 6 6 6 5 r u q F.OXl.c.x.x.z.c.e.J > > > > 6 6 6 6 3 u t t t t t t g @ Y ! ~ & ",
"N [ ( 1 - p t t t t t t p 6 6 6 6 6 > 6 > 6 > 6 3 t t t D.XXl.z.z.z.x.x.q.{ : > 0 > 6 > 6 6 - t t t t t t t u @ Y ! ! & ",
"N  .! : - p t t t t t t p 6 5 6 6 6 6 6 > 6 6 0 5 t t 6 r.E.l.z.x.x.z.x.w.J e 0 3 : > 6 e 6 5 u t t t t t t p @ Y ! ! $ ",
"N ` ( 3 - a t t t t t t t 6 6 6 6 6 6 6 6 > > 4 6 e h G j.n.g.z.z.z.z.x.w.%.%.$.G i : > 6 6 5 p t t t t t t p @ Y ! ! & ",
"N ` ~ : - h t t t t t t p 6 6 6 6 6 > 6 6 6 6 6 2 b t.h.g.z.z.z.z.z.z.l.g.g.j.0.-.| 0 > 6 6 3 t t t t t t t u $ Y ! ! & ",
"N ` ( 5 - a t t t t t t t 6 6 6 > > 6 6 6 6 > 3 V c.c.z.z.z.z.z.x.x.z.l.x.z.l.x.0.-.G : 6 6 5 t t t t t t t u @ Y ! ~ & ",
"N ' ! 1 - l t t t t t t h 6 6 6 e > 6 6 6 6 3 x c.z.l.l.z.z.z.z.z.l.l.z.g.z.g.z.x.#.=.f 3 6 5 a t t t t t t h @ Y ! ! $ ",
"m ' ( 5 3 j t t t t t t u 6 5 6 > 4 6 6 6 6 3 8.c.g.z.z.z.z.g.z.z.h.z.z.l.z.z.z.c.t.&.v - 6 5 t t t t t t t t @ Y ! ~ & ",
"R _ ( 5 = a t t t t t t t 6 5 > 6 6 > > > e > 9.z.z.z.z.g.z.z.g.g.z.z.z.g.z.z.g.z.f.-.t - > 5 t t u f t t t t @ Y ! ! & ",
"N _ ) 1 - j t p t t t t h 6 6 6 6 > 6 6 6 6 3 8.c.g.g.g.g.g.g.g.g.g.g.g.g.g.g.g.c.j.v 6 6 6 5 t t t t t t t u @ Y ! ! & ",
"m ^ ~ : - j t t t t t t p 6 6 6 6 > 6 > 6 6 - d z.z.c.c.c.c.c.c.c.c.c.c.z.z.c.z.9.M 3 6 6 6 6 t t t t t t t u $ Y ! ! & ",
"Y ^ ^ : - a t t t t r t p 6 5 6 6 6 6 6 6 0 > 3 s A F 5.@.6.6.6.7.6.6.F A Z x d 6 3 0 6 6 6 3 t t t t t h t u @ Y ~ ! & ",
"n _ ! : 3 h t t t t t t h 6 6 6 6 6 6 > 6 6 6 6 1 y i i e y e i e i i 3 3 2 3 - 6 > > 6 6 6 5 t t t t t t g p $ Y ! ! & ",
"n ! ( : - a t t t t t t p 6 : > 6 > > 6 6 6 6 6 3 r t t u h t t t p t 6 > 0 6 6 > 6 6 > 6 5 5 u t t t t t r p # m ! ! $ ",
"n ~ ~ - - l t t p a h h p e 6 6 6 6 > > 6 6 6 6 6 t p p h f g f h t p 6 > > > 6 > 6 6 6 6 6 5 g p t p p p p h X Y ~ ! & ",
"U ! ! >   & & $ $ $ $ $ $ # + + @ $ X X @ @ X X o $ $ $ $ & @ $ $ $ $ O $ X $ X @ + X @ + # + $ $ $ $ $ & $ $ . Y ~ ! & ",
"c ! Q R m Y Y n n Y Y n n n T n Y T Y T Y Y Y Y Y Y Y n Y Y Y Y Y Y Y Y n m Y Y Y Y Y Y Y Y Y Y m m n Y m n n T Q ! ! % ",
"c ! W ! ! ~ ! ! ( ! ! ( ! ! ( ! ! ! ! ! ! ( ( ! ( ! ! ! ! ! ! ( ~ ! ! ~ ! ( ( ! ( ! ! ( ! ! ( ( Q ! ! ~ ! ! ! ~ ! W ~ & ",
"c ( ! ! ! ! ! ! ! ! ! ! Q ! ! ! ! ! ! ! ! ! ! ! ! ! ! ! ( ! ! ( ! ! ! ! ! ! ! ! ! ! ! ! ( ! ! ! ! ! Q ! ! ! ! Q Q ~ ~ $ ",
"$ = * * * * * * * * * * * * * * * * * * * * * * % * * * * * % * * * * * * * & * * * * * * * % * * * * * * * * * * < <   "
};
