/* XPM */
static char *result[] = {
/* columns rows colors chars-per-pixel */
"60 60 216 2 ",
"   c #2D1B05",
".  c #341E06",
"X  c #3B1F07",
"o  c #351F08",
"O  c #3A2207",
"+  c #3C2309",
"@  c #362008",
"#  c #392C19",
"$  c #412509",
"%  c #442B0C",
"&  c #4C2D0D",
"*  c #4B270D",
"=  c #512D0D",
"-  c #582F0F",
";  c #4F310F",
":  c #54310F",
">  c #5B330F",
",  c #4E2B12",
"<  c #4A2612",
"1  c #532D12",
"2  c #5A2F12",
"3  c #4F3011",
"4  c #4B371E",
"5  c #46341E",
"6  c #553212",
"7  c #5C3411",
"8  c #5F3912",
"9  c #61370F",
"0  c #653B0C",
"q  c #623514",
"w  c #683716",
"e  c #663A14",
"r  c #6D3D15",
"t  c #643518",
"y  c #6D3E18",
"u  c #703F16",
"i  c #753F19",
"p  c #754C0E",
"a  c #7F530C",
"s  c #6F4115",
"d  c #724116",
"f  c #7A4416",
"g  c #7D4C13",
"h  c #744118",
"j  c #7A4419",
"k  c #7B4B1D",
"l  c #764916",
"z  c #8B5C0C",
"x  c #81510F",
"c  c #834E1E",
"v  c #8A4F1D",
"b  c #854E16",
"n  c #855214",
"m  c #8D5B13",
"M  c #82501F",
"N  c #8B511E",
"B  c #885615",
"V  c #915A13",
"C  c #92561C",
"Z  c #925417",
"A  c #A45D1F",
"S  c #926009",
"D  c #9D690D",
"F  c #986015",
"G  c #A16D06",
"H  c #A1710B",
"J  c #AB730B",
"K  c #AC7805",
"L  c #B57C09",
"P  c #B67C08",
"I  c #A2611B",
"U  c #A76817",
"Y  c #B66C1C",
"T  c #B47714",
"R  c #BE7E14",
"E  c #854F20",
"W  c #855121",
"Q  c #8F5523",
"!  c #915621",
"~  c #955A24",
"^  c #9A5D26",
"/  c #9D5E28",
"(  c #A05F26",
")  c #A25F29",
"_  c #9E6027",
"`  c #9E6129",
"'  c #A46227",
"]  c #AB6424",
"[  c #A36129",
"{  c #AB6529",
"}  c #AE682B",
"|  c #B16422",
" . c #B26629",
".. c #B46A2B",
"X. c #BB6B2A",
"o. c #B36827",
"O. c #B16F32",
"+. c #BC7433",
"@. c #B77032",
"#. c #B9702C",
"$. c #C06F1E",
"%. c #C5771D",
"&. c #D37F1F",
"*. c #C26E29",
"=. c #CD7424",
"-. c #CD7A23",
";. c #C67029",
":. c #CC722B",
">. c #C37520",
",. c #D37C23",
"<. c #D3762C",
"1. c #D5792F",
"2. c #D9782B",
"3. c #C37A36",
"4. c #D67A30",
"5. c #D87E32",
"6. c #E27E2F",
"7. c #BE8109",
"8. c #BA8206",
"9. c #C48B03",
"0. c #C58B07",
"q. c #D08F01",
"w. c #CC9303",
"e. c #CC980C",
"r. c #D1940B",
"t. c #D69A06",
"y. c #C78515",
"u. c #D3841F",
"i. c #D9881C",
"p. c #CF9912",
"a. c #DA9616",
"s. c #E29516",
"d. c #E79D13",
"f. c #E49B1E",
"g. c #E59718",
"h. c #D9A206",
"j. c #EAA703",
"k. c #E5AA03",
"l. c #E3A20C",
"z. c #EAA30D",
"x. c #EEA909",
"c. c #E5A907",
"v. c #F5AF01",
"b. c #F3AB0B",
"n. c #F0A50E",
"m. c #EAB306",
"M. c #F6B401",
"N. c #F9B301",
"B. c #F6BA02",
"V. c #FBBB01",
"C. c #F9BD08",
"Z. c #F4BC0B",
"A. c #EDA110",
"S. c #E9A817",
"D. c #F3B716",
"F. c #D98521",
"G. c #C6803B",
"H. c #CC833E",
"J. c #DC8235",
"K. c #DE863B",
"L. c #E98432",
"P. c #EC8937",
"I. c #F0913F",
"U. c #E5A220",
"Y. c #F5BC2D",
"T. c #F7C105",
"R. c #FCC202",
"E. c #FFCA02",
"W. c #FBC30C",
"Q. c #FECA0C",
"!. c #F6C008",
"~. c #F6C212",
"^. c #FAC513",
"/. c #FDCB13",
"(. c #FAC61B",
"). c #FCCA1B",
"_. c #EFC32F",
"`. c #FCCA26",
"'. c #FACA2C",
"]. c #F8C52B",
"[. c #FFD126",
"{. c #F9C734",
"}. c #F9CB33",
"|. c #FBCB39",
" X c #FED435",
".X c #FFD93D",
"XX c #DE8C40",
"oX c #DD964B",
"OX c #DC9146",
"+X c #E08A41",
"@X c #F19946",
"#X c #E09247",
"$X c #F1A04E",
"%X c #F5A857",
"&X c #F9CE41",
"*X c #FACF4D",
"=X c #FDD64A",
"-X c #FBD253",
";X c #F7CB5E",
":X c #FFE359",
">X c #FEDB6B",
",X c #FAD665",
"<X c #FDDB74",
"1X c #F9D97C",
"2X c #FADC89",
"3X c #FDE78C",
"4X c #FCE49C",
"5X c #FDE396",
"6X c #FAE5A7",
"7X c #FDEBB8",
"8X c #FEF4BF",
"9X c #FBEDC6",
"0X c #FBF3D9",
"qX c #F9F0C9",
"wX c #FCF8EF",
"eX c #FCF9F0",
/* pixels */
"% , % & & & & & ; & % & ; & , % & % & & & & , & & 3 , ; 3 3 3 ; : : 3 3 : ; : 6 : 6 6 : : : ; : : : : 6 ; : : ; 6 : 3   ",
"W oXoXoXOX#XOXXXXX+XK.K.K.K.J.J.J.J.5.J.5.4.1.4.4.<.4.:.:.:.:.;.;.;.;.*.*.X.X.X.o.o.o.o.o.{ { { ] ' ' ' ` ^ ^ ^ ^ ^ ` % ",
"W %XOXG.G.XX3.3.+.+.+.@.#.#.O...} O.{ } } { { { ' ' [ [ ' ' [ ` ) ( ^ / ^ / ^ ^ ` ^ ^ ^ ^ ^ ^ ~ ~ _ ^ _ ^ ^ / ^ ~ ~ ~ % ",
"W %XO.k s h l h h k j l l h k k k l k k j l k k k k k k l k k k k k k k k k k k k k k k W k k k k k k k k k k M ~ ~ ^ % ",
"W $X+.=   $ + + $ $ $ $ $ X o O X X O X X X X X o + $ + + + $ $ + + $ O X . . X O O O . O O @ + $ + + + $ $ $   N ~ ^ % ",
"W $X+.: 3 k h h i i h r h e > 9 7 7 > q > q > q > u d u h h h i i u h q > q 9 q 8 7 q q > > 7 s d i h i h i i O M ^ ^ & ",
"E @X@.: & s r r r r r w s 8 2 7 6 > > 7 > 7 > 8 = w r r r r r e r r u 7 > > 6 > 6 7 > > 7 7 : w u r r r r r u + M ^ ^ % ",
"W @X@.: = h r y r r r y u 8 : 7 7 7 7 > 7 > 6 > : e s r r r r u u r u 7 > 6 7 > q - > 6 7 > 6 r r r r r r r u O M ~ ^ % ",
"W @X..6 = u r r r r r r r 8 1 > > 7 > 7 7 2 > 7 6 e u r r r e e r e e 6 2 8 > > 2 7 7 7 7 7 6 e r r r r r r u + c ^ ^ % ",
"M I...& = i r r r r r r u 7 : 8 7 > > 7 > 9 6 > - r r w e f v Z C C Z s : = q > > > > > 7 7 6 r u r r r r r u X c ^ ^ % ",
"c I...6 = i r r r r u r r 8 - 8 7 7 2 > > > 6 9 , 8 j U y.i.f.f.a.F.F.=.Y Z 7 : 9 2 7 6 7 2 6 w u r r r r r u + M ^ ^ % ",
"c I.} 3 = u r r r r r r r 8 : > 7 7 9 2 7 7 8 = e T S.D.).).).).(.`.D.S.F.,.$.h - 7 7 7 7 6 1 r r r r r r r u X M ^ ^ % ",
"k P.{ 6 ; h r r r r r r u 8 : 7 7 > > 7 > : : D D.[. X|.}.`.(.(.(.(.(./.(.a.-.-.f 1 > > > > 1 r u r r r r r u + M ^ ^ % ",
"W P.{ 6 = h r r r r r r r 8 - > > 2 > q & s p..X>X<X-X}.`.).(.(.(.(.(.(.(.(.S.=.=.r : 8 6 > 6 e r r r r r r u + k ^ ^ % ",
"W L.{ 6 = h r r r r r r u 7 6 8 > 7 > 1 S _.3X4X,X'.^.^.^.(.^.^.~.(.(.^.^.^./.f.:.Y : 8 7 8 6 r r r r r r r u + M ^ ^ % ",
"W L.{ 6 & h r r r u r r u 7 - > 7 > 1 K =XqX3X'.W.~.^.^.^.^.^.^.^.^.^.^.^.^.^.^.u.:.b = 7 6 6 w u r r r r r u X M _ ^ % ",
"v L.' : & h r r r r y r u 7 - 7 > 1 9.:X0X,XW.W.^./.W.^.^.^.~.W.^.W.W.^.W.^.^.W.S.-.| 7 7 > 1 r u r r r u e u + k ~ _ + ",
"E L.' 6 = u r r r r r r r q : q 1 8..X0X=XT.W.W.W.W.^.W.^.Q.Q./.^.W.^.^.Q.W.^.W.Q.u.=.s - 6 6 r r r r r r r u + W _ _ % ",
"v 6.' 6 = h r r r r r r u 8 2 = z Q.6X&XT.W.!.W.W.^.^.Q./.c.e.p.Q.W.W.W.W.W.W.W.Q.d.:.B 1 8 6 e r r r r r r u + M _ ^ % ",
"N 6.' : = u r r r r y r u 7 6 1 e. X&XT.^.W.W.Q.W.!.E.p.m e e t m !.W.T.W.!.W.W.W.Z.,.A 6 7 6 e u r r r r r y + k _ ^ % ",
"E 6.[ 6 = u r r r r r u u q : 8 m.Q.R.!.T.W.!.!.W.W.J e t r s s 7 U Q.T.W.W.!.T.R.!.F.Y - > 6 r r r r r r r s + k _ _ + ",
"E 6._ 6 = i r r r r r y r q : - h.E.!.T.R.R.B.E.M.m t s s r y y u e c.W.C.W.R.T.W.T.i.| > 2 6 e u r r r r r s O W _ _ % ",
"N 2.` 6 = u r r r r r u u 8 > 1 p E.R.B.C.V.E.h.e 7 h r r r r r r q 0.E.C.E.R.R.R.R.s.| > > 6 r u r r r s e s + k _ _ + ",
"N 2.[ 6 = i r r r r r r u q 6 > , z B.E.E.m.H > : e r r r r r r u q e.E.R.V.R.R.V.E.i.I - 7 6 r r r r r s s d + k _ _ % ",
"N 2./ 7 & h r r r r r y u q : 7 > 1 e z x q 1 > : e r r r s r h w n R.R.V.R.R.R.R.V.i.v - 7 1 y u r y r r r u X M _ _ % ",
"v 2./ 6 = h r r r r r r r 8 > > > 8 - = - 6 7 > : r s r r r r r r h.R.V.V.R.V.T.V.C.&.r 6 q 6 e r r r r r r u X k ^ ^ % ",
"v <.^ 6 = i r r r r u r u 8 1 7 2 > > 8 > > 7 7 : r r r u u q r e.R.B.R.B.T.B.R.E.b.Y 1 6 > 6 e r r r r r r u + M _ _ % ",
"Q <.^ > = u r r r r r r r 8 : 7 7 7 > q > 6 > > : e r s e q m k.E.C.^.T.R.B.R.B.R.s.f : > > 7 w u r r r r r u + k ^ ^ % ",
"W =._ 6 & h r r r r r r r 8 - 8 > 7 > 7 > 6 > 8 6 w r q j y.V.R.~.'.C.T.B.R.V.V.N.U 1 > > 7 1 r r u r r r r u X M ^ ^ % ",
"N :._ 6 = i r r r r r r u 8 : > 7 > > 7 > > > > 6 q r T M.E.C.'.'.V.B.B.T.B.B.R.u.8 > 7 6 7 6 e r r r r y r u X M ^ ^ % ",
"Q :._ 6 & i r r r r r r r 7 : 7 7 > 7 > > - 7 8 < n c.R.C.].*X`.V.V.V.B.V.B.R.l.r 2 8 6 7 7 2 r u r r y r r u + M ^ ^ % ",
"N :.^ 7 = i r r r r r r u q - 7 > 7 > 6 2 8 > 1 H V.V.{.,X-X^.V.B.R.B.B.B.E.h.r - > 7 > 7 7 1 e r r r r r r u + k ^ ^ % ",
"N :.^ 7 = u r r r r r r u 8 - 6 > > 7 > 7 - 8 w.R.|.1X<X'.B.B.V.B.V.M.V.E.0.7 - > > > 7 7 > 2 e r r r r r r u + c ^ ^ % ",
"N ;._ 6 = i r r r r u r r q : > 9 2 2 9 1 r k.Q.1X4X*XC.V.B.V.B.B.B.E.B.H 1 2 q > 8 7 > > 7 1 e u r r r r r u + c ^ ^ % ",
"N ;._ 6 = u r r r r r r r 8 : 8 > 6 > - r m.`.6X5X`.M.V.B.V.N.B.V.V.t.p * > q 2 > > 7 7 7 7 6 r r r r r r r u X c ^ ^ % ",
"N #.` 6 = u r r r r r r u q : > 9 6 : > t.`.9X2XM.M.V.V.B.B.V.E.k.D e 6 > > > > 7 6 > > 7 7 2 e u r r r r r u X M ^ ^ % ",
"C *.` 6 ; h r r r r r r u 8 1 > 6 q 1 P Q.9X4XV.M.B.V.V.M.R.M.J h t y 8 2 6 8 7 > 7 7 > 6 > 1 e u r r r r r u + M ^ ^ % ",
"Q X._ 7 & h r r r r r r r 8 : 7 > = p V.6XqXB.N.B.V.V.M.R.t.g q r r y 8 2 7 > 6 7 > 7 > 8 > 6 r r r r r r r u + M ^ ^ % ",
"v X.^ 6 & h r r r r r r r 8 > 7 > 1 9..XwX{.N.B.N.B.M.V.0.w e h r r u 7 > > 6 > 8 - > 6 7 7 1 r r r r r r r u O M ^ ^ % ",
"v X.^ 6 = h r r r u r r u 8 : > - d v.7X6XN.V.B.V.M.R.r.w r u r r r u 7 2 > 8 > - q 8 - 6 7 6 w r r r r r r u + M ^ ^ % ",
"N .._ 7 = u r r r y r y u q 6 9 1 G `.wX].N.C.M.M.V.x.b r d r u u r u 8 > 9 - 2 I %.%.Y l 1 : r r r r r r r u + k ^ ^ % ",
"N o._ 6 & i r r r r r r u 7 6 7 1 q.<X9XN.N.N.B.B.N.R q q w e e w e w 1 * , p t.N.x.s.&.,.g , r r r r r r r u + M ^ ^ % ",
"N o._ 6 = h r r r r r u u 8 6 2 e j.7X1XM.C.M.N.N.z.y.U U F V N B N B v V T M.R.M.V.V.l.u.%.6 e u r r r r r u + M _ ^ % ",
"N { ^ 6 = i r r r r r r r q 6 1 x N.9X{.M.N.M.N.M.x.x.b.n.z.d.d.d.d.A.A.b.V.N.M.M.M.M.V.a.,.h e u r r r r r u + k ^ ^ % ",
"N { ^ 7 = u r r r r r r u 7 > 1 S R.9XD.N.N.M.N.M.N.N.M.N.N.M.M.M.M.M.B.N.M.M.M.V.N.N.N.l.&.f w u r r r r e u + M ^ ^ % ",
"W { ^ 6 = i r r r r r r u 8 - , P W.4Xv.M.M.M.M.B.M.N.M.v.N.M.M.N.N.M.M.M.N.M.M.M.N.N.N.x.%.> r u r r r r r h + M _ _ % ",
"N { _ 6 = u r r r r r r r 8 - = 9.D.2XN.M.N.N.N.N.N.N.M.N.N.N.N.N.M.N.N.N.N.N.N.N.M.N.N.d.b = r r r r r r r s + k ^ ^ % ",
"N ' _ 6 1 i r r r r r r u 8 > 1 q.C.;XN.N.M.N.M.M.N.N.M.N.N.N.N.v.N.N.M.N.v.M.N.M.M.N.v.n 1 6 e r r r r r r s + M ^ ^ % ",
"W ' _ 6 = h r r r r r r u q > & P V.Y.N.v.N.v.N.N.v.N.v.N.N.N.v.N.N.N.N.N.M.N.v.v.V.j.b 1 7 6 w y r r r r r u X W _ ^ % ",
"v ' ` : = h r r r u u u r 8 : - p N.N.v.v.v.v.v.v.v.v.v.v.v.N.v.v.v.v.v.v.v.v.N.V.r.0 = 9 > 6 e u y r r r r u + k ^ ^ % ",
"c [ ^ 6 & h r r r r r r r 8 - q 1 S v.V.V.V.N.V.V.V.V.V.N.N.V.N.N.V.N.N.V.N.N.j.G 1 - q - > 7 r u r u r r r u O E ^ ^ % ",
"k [ _ 6 = h r r r r r r r 8 : > > 1 d J P P P P P 8.%.7.0.P 0.P 7.7.0.P P K z 9 1 > 7 7 > 2 2 w r r r r r r y + c ^ ^ % ",
"M _ ' 6 = h r r r r r r r 8 1 7 > > 1 = 1 , , , < 8 t q t q q q t q q 1 * 1 1 - q > 6 > 7 7 6 e r r r r r y u + c ^ ^ % ",
"k _ _ 6 = h 0 r r r r r u q 6 7 7 2 8 q q 9 > 9 : r h s y h u h y h u q 8 9 > 7 > 6 > > 6 6 7 y r r r r r r h O c ^ ^ % ",
"c ^ [ 6 = h r r r r r r u 7 2 7 7 > 6 6 > > > > 1 w r r r r r r r e u 6 - 7 2 > 2 > 6 7 > 7 6 r r r r r r r r O c ^ ^ % ",
"c ^ C 8 . $ + + + + + + $ + o + O O O O O X + X + + + + + + + + $ + + O O O O + O + + O O O @ + $ + $ + $ + + o W / ^ % ",
"k ^ ~ ~ Q Q ! Q Q Q Q Q ! Q Q Q ! ! Q ! ! ! ! Q Q Q Q Q Q Q Q Q ! Q Q ! ! ! ! Q ! Q Q ! ! Q ! Q Q Q Q Q Q Q ! Q ~ ~ ^ % ",
"l _ ~ ^ ^ ^ ^ ^ ^ ^ ^ ^ ^ ^ ^ ^ ^ ^ ^ ^ ^ ^ ^ ^ ^ ^ ^ ^ ^ / ^ ^ ^ ^ ^ ^ ^ ^ ^ ^ ^ ^ ^ _ ^ ^ _ ^ ^ ^ ^ ^ ^ / ^ ^ ^ ~ / % ",
"l ~ ! C C ! ! C ! ! ! ! ! ! ! ! ! ! ! ! ! ! ! ! ! ! ! ! ! ! ! ! ! ! ! ! ! ! ! ! ! ! Q ! ! C ! ! ! ! ! ! ! C ! ! C ! ~ + ",
"5 4 4 4 4 4 4 4 4 4 4 4 4 4 4 4 4 4 4 4 4 4 4 4 4 4 4 4 4 4 4 4 4 4 4 4 4 4 4 4 4 4 4 4 4 4 4 4 4 4 4 4 4 4 4 4 4 4 4 # "
};
