/* XPM */
static char *result[] = {
/* columns rows colors chars-per-pixel */
"60 60 208 2 ",
"   c #2E1B04",
".  c #361F06",
"X  c #351F09",
"o  c #381F09",
"O  c #362106",
"+  c #3B2207",
"@  c #36220A",
"#  c #3D2309",
"$  c #3D280B",
"%  c #412307",
"&  c #41250A",
"*  c #452A0D",
"=  c #4C2D0E",
"-  c #542E0F",
";  c #4E300E",
":  c #55310E",
">  c #5B330F",
",  c #462F16",
"<  c #4C2C12",
"1  c #532D12",
"2  c #592F13",
"3  c #463116",
"4  c #483016",
"5  c #543010",
"6  c #5B3311",
"7  c #63390E",
"8  c #6D3F03",
"9  c #633514",
"0  c #663914",
"q  c #6D3D15",
"w  c #633318",
"e  c #6D3C18",
"r  c #683917",
"t  c #713F16",
"y  c #753D1A",
"u  c #4E3F2C",
"i  c #513E2D",
"p  c #6D440F",
"a  c #734A0E",
"s  c #784907",
"d  c #6D4014",
"f  c #734215",
"g  c #7C4A13",
"h  c #734219",
"j  c #7A461B",
"k  c #75481B",
"l  c #7A4A1C",
"z  c #794516",
"x  c #4F402D",
"c  c #504333",
"v  c #7E4E20",
"b  c #84550D",
"n  c #8E5A07",
"m  c #905B0F",
"M  c #814E12",
"N  c #824E1E",
"B  c #884F1A",
"V  c #82471B",
"C  c #83501E",
"Z  c #8C531B",
"A  c #855315",
"S  c #915517",
"D  c #99571C",
"F  c #A15F15",
"G  c #94620D",
"H  c #9C680B",
"J  c #9F6C12",
"K  c #9F6115",
"L  c #A16B08",
"P  c #AA730A",
"I  c #AD7602",
"U  c #B37B07",
"Y  c #A9651A",
"T  c #BA6D1C",
"R  c #B26D19",
"E  c #AD7A11",
"W  c #BE711B",
"Q  c #834E21",
"!  c #964F23",
"~  c #845121",
"^  c #8C5422",
"/  c #965924",
"(  c #9B5D26",
")  c #9C5D28",
"_  c #985221",
"`  c #A05F27",
"'  c #A15F28",
"]  c #AC5C25",
"[  c #B15F28",
"{  c #9A6028",
"}  c #A36127",
"|  c #AA6224",
" . c #A56128",
".. c #AB6529",
"X. c #AF682A",
"o. c #B36225",
"O. c #B96B22",
"+. c #B26629",
"@. c #B56A2A",
"#. c #BB6C2A",
"$. c #BC652A",
"%. c #BD722E",
"&. c #C4781B",
"*. c #D67F1E",
"=. c #C96E27",
"-. c #C46C2B",
";. c #CA6D29",
":. c #C3682B",
">. c #CD7325",
",. c #C4712B",
"<. c #CC732B",
"1. c #CB7524",
"2. c #D17B23",
"3. c #D4752A",
"4. c #DB7A2E",
"5. c #D8762B",
"6. c #C37533",
"7. c #C97631",
"8. c #CB7C36",
"9. c #D37C33",
"0. c #D77F35",
"q. c #BC860C",
"w. c #CA8B07",
"e. c #C58A07",
"r. c #D48D0D",
"t. c #CF9103",
"y. c #C9960B",
"u. c #D69A09",
"i. c #D3841C",
"p. c #D3891B",
"a. c #DE8D1D",
"s. c #DD9415",
"d. c #DC921C",
"f. c #E49C0D",
"g. c #E09D04",
"h. c #E08F19",
"j. c #E49A12",
"k. c #E59B19",
"l. c #DDA40C",
"z. c #D9A308",
"x. c #DAA511",
"c. c #E1A502",
"v. c #EDAA02",
"b. c #EBA20D",
"n. c #EAAA0A",
"m. c #EAA603",
"M. c #F3AE02",
"N. c #F4AA0B",
"B. c #EEB102",
"V. c #E9B50B",
"C. c #F6B401",
"Z. c #F9B401",
"A. c #F7BA01",
"S. c #FABC01",
"D. c #F6B30A",
"F. c #F6BB0A",
"G. c #E9A619",
"H. c #F5BA1C",
"J. c #E8B319",
"K. c #D48321",
"L. c #D98322",
"P. c #CD843D",
"I. c #DD8335",
"U. c #D5833A",
"Y. c #DB8739",
"T. c #D2893F",
"R. c #DE8A3C",
"E. c #F5B92B",
"W. c #F4B926",
"Q. c #FCC202",
"!. c #FCC904",
"~. c #F6C20A",
"^. c #FAC30C",
"/. c #FFCB0C",
"(. c #FAC412",
"). c #FDCC12",
"_. c #FAC619",
"`. c #FFCC1C",
"'. c #F7C117",
"]. c #FCCB2C",
"[. c #F8C925",
"{. c #FFD627",
"}. c #F9CD33",
"|. c #F7C33C",
" X c #FFD33A",
".X c #C48041",
"XX c #D58C44",
"oX c #DD8D42",
"OX c #D28B45",
"+X c #DD9348",
"@X c #E0984E",
"#X c #EEA556",
"$X c #FACF42",
"%X c #FCD64A",
"&X c #F9CC54",
"*X c #FDDC5C",
"=X c #FED758",
"-X c #FDD963",
";X c #FCDE79",
":X c #FFE66B",
">X c #FFE27C",
",X c #FCDF89",
"<X c #FFE689",
"1X c #FDE995",
"2X c #FAE397",
"3X c #FFEBA7",
"4X c #FEEDBA",
"5X c #FDEDC3",
/* pixels */
"  & # + + + + $ # # # # # + $ @ $ $ # # $ $ $ $ # $ # $ $ $ $ & # * & $ * * * * & * & * & * * * * * * * * & * * * * O u ",
"= .XOX+XXXXXT.XXU.OXU.U.U.U.0.0.0.9.9.9.3.9.7.3.7.<.<.<.<.;.<.,.,.;.-.#.#.#.O.#.O.@.+.+.X.......| '  .` ) ( ) ( ( } Z i ",
"* @X#XP.T.OXP.8.8.8.6.8.6.6.#.#.#.#.@.@.@.@.X.X.X....... . . .}  .' } ' ) ' ) ( ( ) ( ( ( ( ( ( ( ) ( ( ) / ( ( / { B u ",
"* +XXXN V N l l v l Q l v v v Q v Q v Q l N N N N N Q Q N C C Q N Q Q ~ Q Q N ~ ~ ~ ~ ~ ~ ~ ~ C N C C C N ^ N Z / ( B u ",
"* +XoXk   & # # # # % $ % # o O O # O # o + o . O # # # # # # # # # % O @ O + + o . O + . O o + % + # $ % % o # / ) Z u ",
"* oXoXh # z q h f d t t h 0 6 6 6 6 9 6 9 6 9 6 5 9 z t f d t f q f z 5 6 6 > 6 9 6 9 > 9 6 6 q t t t t t f 0 # / ( B u ",
"* R.Y.h # h e q q q q q q 0 : 6 6 6 6 6 > 6 > 6 1 0 d q q q q q q q d 6 5 6 6 6 > > 6 6 > > 2 q q q q q q t 0 # / ) B u ",
"* R.U.h # t q q q q q q q 0 1 > 6 6 6 6 > > 6 > 5 0 t q q q q q d r h 6 > 6 6 5 6 > 6 6 > > 5 q q q 0 q q t 0 + / ( B u ",
"* R.U.h & y q q q q q q t 0 5 6 6 > > 6 6 6 6 > 2 w r r r q q q q q 0 1 - > 6 6 6 6 6 6 6 6 5 t q q q q q q 0 $ / ( B u ",
"* Y.P.k % t q q q q q q q 0 5 6 > > 6 6 6 6 6 - 1 z S F Y W W T =.O.Y D f 6 : 6 > 6 6 6 6 6 5 e q q q q q d 0 % / ( B u ",
"* Y.7.h # t q q q q q q q 0 5 > > 6 > 6 6 1 q K e.j.G.W.E.E.W.H.J.G.d.L.1.O.Z 6 : > 6 > 6 6 6 t q q q q q q 0 # / ) B u ",
"* I.7.k % t q q q q q q q 0 5 > > 6 6 2 2 H n.].-X<X2X1X<X;X;X*X%X X[.H.k.2.>.T f : 6 6 6 6 5 q q q q q q t 0 # / ( B u ",
"* I.7.h + f q q q q q q t 9 5 > 6 6 : 0 y.$X1X4X3X;X=X$X}.].[.].}.}.}.].`.'.d.<.1.z : > 6 > 5 q q q q q q q 0 % / ( B u ",
"* I.6.k $ h q q q q q q t 9 5 6 > 5 p J.:X2X-X].(.~.~.~.^.(.(.(.(.^.(._.'.).).G.<.=.d : 6 6 5 e q q q q q q 0 # / ( B u ",
"* I.,.k $ t q q q q q q t 0 - 6 6 6 x.{.[.~.Q.^._.(._.(.(.'._._._._.(.(.'.).(.).k.;.| > 6 6 6 q q q q q q q 0 # / { Z u ",
"= I.,.h + z 0 q q q q q t 0 5 6 2 a (.~.~.(._.(.(.^.(.(.(.(.(.~.(.~.(.^.(.(.(.(.^.K.=.h 6 6 5 q q q q q q t 0 # / ( N u ",
"* 4.%.k % t q q e q q q q 0 5 6 - p ~.(.(.~.(.^.(.^.(././.)././.).^.(.^.(.^.^.^.^.G.=.D : 6 6 q q q q q q q 7 # / ( B u ",
", 4.#.k % t q q q q q q q 0 5 6 6 1 x./.~.^.^.^.^./.^.V.x.u.u.x.V./.Q.(.~.^.^.^.^.~.2.[ > 6 5 q q q q q q t 0 # / ( B u ",
"* 4.#.k % h q q q q q q d 0 5 > > - a V./.^.Q./.~.E A f r 9 r r f J F.^.^.^.^.^.~.^.L.[ 6 > 6 q q q q q q q 0 # / ( B u ",
"= 4.#.h # z q q q q q q q 0 5 6 > 9 - p e.V.V.y.a 2 r r q d d e q w y./.~.Q.S.~.Q.!.h.[ 6 > 5 r q q q q q f 0 $ / ( B u ",
"* 4.#.k # z r q q q q q t 0 5 > > > 9 : 1 6 7 1 = r t e t q q q h w q.!.S.~.S.~.Q.!.d.] : > 2 q q q q q q q r # / ( C x ",
"* 4.@.k % y q q q q q q q 0 1 > > 6 > 6 6 > > 6 6 9 t q d q r q w r l.!.Q.Q.Q.Q.S.!.a.! - > 2 q q q q q q d q + / ( B x ",
", 4.@.k # t q q q q q q q 0 : 6 > > 6 > > > 6 6 : 0 e 9 0 0 t V K c.Q.Q.S.Q.Q.Q.S.Q.2.y > > 5 e q q q q q q 0 # / ( B u ",
"* 3...v # y q q q q q q q 0 5 6 6 6 6 > 6 6 6 6 6 5 j F R &.p.b.Q.Q.Q.A.Q.Q.Q.A.Q.D.o.> 6 > 6 q q q q q q q 0 # / ( Z u ",
"* 5.o.k + z r q q q q q t 9 5 > > > > 6 > > > > < n g.N.D.S.Q.Q.S.Q.A.Q.Q.A.S.Q.Q.s.j : 6 6 5 q q q q q q q 9 % / ( C u ",
"* 5.X.k $ t q q q q q e t 0 5 > > 9 6 > 6 > 6 5 I `.=X%X_.Q.A.Q.Q.A.Q.A.Q.A.Q.Q.F.D 1 6 6 6 6 e q q q q q q r # / ( Z u ",
"3 5.X.k % h q q q q q q q 9 5 6 6 > > 6 6 > < L {.5X,X[.A.Q.S.Q.A.Q.A.Q.A.A.A.Q.R - 6 6 > 6 5 t q q q q q f 0 # / ( B u ",
"= 3...k % t 0 q q q q q t 0 5 6 6 > 6 > 6 6 6 c.3X<XA.A.A.A.A.A.Q.A.A.Q.A.Q.Q.p.$.h 5 > 6 6 5 q q q q q q q 0 # / ) B u ",
", 3. .j % z r q q q q q q 0 : 6 6 6 6 6 > > 0 C.=XS.S.A.Q.A.A.A.S.S.S.A.S.F.A.j.=.=.V : > > 6 q q q q q q q 0 $ / ( Z u ",
"= 3...j # y q q q q q q t 0 5 6 6 6 6 > 9 6 : z.S.A.S.S.A.S.A.Q.S.S.S.A.S.S.A.Q.f.=.=.f 2 6 5 q q q q q q q 7 # / ( N u ",
"= <. .l # t q q q q q q q 0 5 6 > 6 > 6 > 6 1 b Q.Q.S.S.A.A.A.A.A.S.S.S.S.S.S.S.Q.f.;.$.9 : 2 q q q q q q q 0 % / ( B u ",
"= >...k # t q q q q q q q 0 : 6 6 6 6 6 > > 6 6 s u.A.Q.Q.!.Q.Q.S.A.A.A.A.S.A.A.A.Q.i.:.B : > q q q q q q t 0 # / ) B u ",
"< <. .l % h q q q q q q q 0 2 > 6 6 6 > 6 6 6 9 = 6 M m L P q.y.B.Q.S.A.S.A.A.S.Z.S.M.-.o.6 6 q q q q q q q 0 % / ) B x ",
"= <.} k % y q q q q q q t 9 5 > 6 6 6 > 6 > 6 6 - r q r w w w r z H C.S.A.S.S.S.S.A.S.i.$.t 1 q q q q q q q 0 # / ( B x ",
"* <.} l o y q q q q q q d 0 1 > 6 > > 6 6 > 6 6 - 0 t q q f d q r w g B.S.A.Z.Z.A.Z.S.f.:.V 1 q q q q q q q 0 # / ( A u ",
"= <.} k % t q q q q q q d 9 5 > > > 9 > 6 6 > 6 - 9 q q e q q q t k 2 H Q.Z.A.A.S.Z.S.M.;.N 5 q q q q q q t 0 # / ( B u ",
"= ;.} k # h q q q q q q t 0 5 6 6 > 6 6 6 > 6 > 6 0 q q q q q q q d r b S.A.Z.A.A.Z.A.C.;.! < q q q q q q q 0 # / ( B u ",
"= ,.` k $ y q q q q q q q 0 5 6 6 6 6 > > > : : * 9 f q q q q q q t 9 m S.Z.S.A.Z.A.Z.D.;.V 1 q q q q q q f 0 # / ( B u ",
"= ,.} l % t t q q q q q q 0 5 6 6 6 6 6 1 f Z D M d q q q q q q q d w U Q.Z.S.Z.A.A.S.M.;.z 1 q q q q q q q 0 % / ( Z u ",
"= #.) l # t q q q q q q q 0 5 > 6 6 6 1 L j.j.d.L.&.Z 0 q q q q q q q c.S.Z.Z.F.Z.Z.S.b.o.6 5 q q q q q q d 0 # / ( N u ",
"= -.( l % y 0 q q q q q q 0 2 6 6 : 7 t.^.S.Z.C.f.K.K.Y q 0 q t t 6 G S.C.Z.A.Z.Z.Z.S.h._ 2 6 q q q q q q q 0 % / ) B u ",
"= #.) l % t q q q q q q t 9 5 6 6 - e.=X&XZ.A.Z.A.n.i.*.&.N q 0 9 A C.A.A.Z.Z.Z.Z.A.A.2.y : 5 q q q q q q t 0 # / ( B u ",
"= #.) l # h q q q q q q d 0 1 > 2 8 |.5XH.Z.Z.A.C.Z.C.s.*.1.O.Y &.C.A.Z.C.Z.Z.Z.Z.A.N.! - 6 6 e q q q q q q 0 # / ( B u ",
"< O.) l % t q q q q q q q 0 5 6 - s &X4XF.Z.C.Z.Z.C.C.Z.M.f.j.N.S.Z.C.Z.C.C.Z.Z.C.S.W 6 > 6 2 q q q q q q q 0 $ / ( B u ",
"; @.) l # z 0 q q q q q t 0 5 6 6 7 n.,XW.C.Z.Z.C.C.Z.C.Z.Z.A.Z.C.C.Z.Z.Z.Z.C.M.S.r.9 > > > 5 q q q q q q q 7 # / ( C x ",
"; @.( l # y q q q q q q q 0 5 6 6 1 I ^.H.M.Z.M.C.Z.Z.Z.Z.Z.Z.C.Z.C.M.Z.Z.Z.M.S.u.9 5 > > > 6 d q q q q q t 0 # / ( B u ",
"; o.( l # t r q q q q q d 0 5 6 > > 6 U S.Z.Z.Z.M.Z.C.M.Z.M.Z.Z.Z.Z.Z.Z.Z.Z.S.u.0 - 6 6 6 6 5 q q q q q q t 0 # / ) B u ",
"; X.( l + z q q q q q q q 0 5 > > 6 > 1 H M.S.Z.M.Z.M.Z.M.C.Z.Z.M.M.Z.M.Z.S.t.9 : > 6 6 6 6 5 q q q q q q q 0 $ / ( B x ",
"; X.( l $ y q t q q q q q 0 5 6 5 6 6 > 1 q e.Z.S.M.M.M.Z.M.M.M.Z.M.M.Z.Z.P 1 : 9 6 6 6 > > 5 t q e q q q d 0 O / ( N u ",
"= ..{ l # t q q q q q q q 0 2 6 6 6 6 6 9 - - b w.C.Z.S.Z.Z.Z.Z.Z.S.M.w.M - > 6 > 6 6 > 6 6 5 q e q q d q d r # / ( Z u ",
"; ..( l # t q q q q q q t 0 5 5 6 6 > 6 > > > 5 1 z P w.g.v.v.m.u.U M 1 1 9 6 > 6 6 > 6 > 6 2 q q q e q q d q # / ( N u ",
"= ..( k # z 0 q q q q q q 0 5 6 6 6 6 6 6 6 > 9 5 6 r 9 t f z t r 9 r 9 > 6 > > > 6 6 6 6 6 5 q q q q q q f r O / ) Z x ",
"= } ( l % t t t e q q q q 0 5 > 6 6 > 6 > > 6 > 5 9 h q q q r q t t q 9 - > > > > 6 > > > 6 5 q q q q q q d r O / ( B u ",
"; } ( l # t q r q q q q d 0 : 6 6 > 6 6 6 6 > 6 1 0 q d q q q q q 0 t > 2 > > 6 6 6 6 6 6 6 6 q q q q t q d 0 # / ( B u ",
"= } ) z O z q q d d q q q 0 2 > 6 > 6 6 6 6 6 > 5 0 q t q d t d q t t 6 > > > > 6 6 > 6 6 > 6 r t q q q q t q # / ( B u ",
"= ) ) l X & + % % # # # # # o + o o O O O + + + o # # # # # O # % # $ O o + o O O O + @ + O o # # # # # # # O & / ( B i ",
"4 ) / / Z ^ ^ ^ Z ^ ^ ^ ^ ^ ^ Z ^ ^ ^ ^ ^ ^ ^ ^ Z ^ ^ ^ ^ ^ Z ^ ^ ^ ^ ^ ^ ^ ^ ^ ^ ^ ^ ^ ^ ^ ^ ^ ^ ^ Z ^ Z ^ Z ^ ( ( N u ",
"= ` / ( ( ( { { ( ( ( ( ( ( ( ( ) ( ( ( ( ( ) ( ( ( ( ( ( ( ( ( ( ( ( ( ( ( ( ( ( ( ( ( ( ( ( ( ( ( ( ( ( ( ( ( ( ( Z x ",
"= ( / / / / / / / / / / / D / / / / / / / / / / / / / / D / / / / / / / / / / / / / / / / / / / / / / / / / / / / ( N i ",
"@ < 4 4 3 4 3 3 4 4 4 3 4 4 4 4 4 , , , < 4 4 4 4 4 4 4 4 4 4 4 < , , , 4 4 4 4 4 , , , 4 4 < 4 4 4 4 4 3 3 < 4 , 4 & c "
};
