/* XPM */
static char *result[] = {
/* columns rows colors chars-per-pixel */
"60 60 205 2 ",
"   c #2B1A04",
".  c #341E06",
"X  c #391F06",
"o  c #341F0A",
"O  c #3A2107",
"+  c #352008",
"@  c #3D2309",
"#  c #392712",
"$  c #412306",
"%  c #42250A",
"&  c #44290C",
"*  c #4D2C0E",
"=  c #542E0E",
"-  c #55310E",
";  c #5B330F",
":  c #4D2A12",
">  c #482912",
",  c #532D12",
"<  c #592F13",
"1  c #483016",
"2  c #493119",
"3  c #463117",
"4  c #553111",
"5  c #5B3310",
"6  c #5E3B15",
"7  c #5F321A",
"8  c #653B0D",
"9  c #623614",
"0  c #683717",
"q  c #633914",
"w  c #6D3D15",
"e  c #653519",
"r  c #6A3919",
"t  c #703F16",
"y  c #753F1A",
"u  c #674009",
"i  c #6C4117",
"p  c #6C4319",
"a  c #744116",
"s  c #7A4616",
"d  c #7C4B11",
"f  c #75431A",
"g  c #7C4519",
"h  c #7C4C1D",
"j  c #764604",
"k  c #7E4E20",
"l  c #804F02",
"z  c #83530F",
"x  c #8B590D",
"c  c #865506",
"v  c #935E0D",
"b  c #814D1D",
"n  c #8B4E1E",
"m  c #844916",
"M  c #8C5A13",
"N  c #83501E",
"B  c #8E531C",
"V  c #865616",
"C  c #94531C",
"Z  c #98581B",
"A  c #A15D1C",
"S  c #8E610E",
"D  c #986402",
"F  c #9E6D05",
"G  c #95620C",
"H  c #9E690B",
"J  c #936011",
"K  c #A46C01",
"L  c #A26B0C",
"P  c #AD740B",
"I  c #A97405",
"U  c #B27508",
"Y  c #A5611C",
"T  c #AC691D",
"R  c #B66A1F",
"E  c #AE701D",
"W  c #BC721C",
"Q  c #B57514",
"!  c #854F20",
"~  c #845121",
"^  c #8C5422",
"/  c #9A5323",
"(  c #965923",
")  c #9B5D26",
"_  c #9D5E28",
"`  c #A25E25",
"'  c #A75E26",
"]  c #9E6027",
"[  c #A46126",
"{  c #AB6425",
"}  c #A26128",
"|  c #AB6529",
" . c #B16627",
".. c #BA6A25",
"X. c #B16629",
"o. c #B66A2A",
"O. c #BB6C2A",
"+. c #B76927",
"@. c #BF712E",
"#. c #CA7E1D",
"$. c #C56F27",
"%. c #C36D2A",
"&. c #CB6C2B",
"*. c #C77324",
"=. c #CD7425",
"-. c #C6712B",
";. c #CC732C",
":. c #CC7820",
">. c #D07725",
",. c #D17C22",
"<. c #D3762B",
"1. c #D77A2D",
"2. c #D87A2D",
"3. c #C27533",
"4. c #CB7A33",
"5. c #C57D3B",
"6. c #D27C33",
"7. c #DA7E33",
"8. c #BE8505",
"9. c #BD8C09",
"0. c #C2850A",
"q. c #CD9405",
"w. c #D59C05",
"e. c #DE9B06",
"r. c #CE8518",
"t. c #DB8D14",
"y. c #DD8C1A",
"u. c #D4841D",
"i. c #C39013",
"p. c #DE9615",
"a. c #E39E0D",
"s. c #E29319",
"d. c #E59914",
"f. c #DEA70B",
"g. c #E2A302",
"h. c #EDA507",
"j. c #EEAD07",
"k. c #E6A20D",
"l. c #EBA40B",
"z. c #EFAB08",
"x. c #F3AE03",
"c. c #F2A80B",
"v. c #F6B401",
"b. c #F9B501",
"n. c #F6BA01",
"m. c #F9BA01",
"M. c #F2B109",
"N. c #F9BC0C",
"B. c #E7A819",
"V. c #F3AC15",
"C. c #EAB417",
"Z. c #F4BC16",
"A. c #D58222",
"S. c #D88E21",
"D. c #DE9023",
"F. c #CD833C",
"G. c #D58037",
"H. c #D98135",
"J. c #D4833A",
"K. c #D9853A",
"L. c #D7893F",
"P. c #DC893C",
"I. c #FCC202",
"U. c #FAC30C",
"Y. c #FECB0B",
"T. c #F7C209",
"R. c #F7C315",
"E. c #FAC413",
"W. c #FDCA13",
"Q. c #F9C51A",
"!. c #FECB1A",
"~. c #F7C318",
"^. c #FFD11A",
"/. c #F9C623",
"(. c #FDCA27",
"). c #FAC72D",
"_. c #FED42A",
"`. c #F9CB33",
"'. c #F7CD3B",
"]. c #FFD236",
"[. c #FFD43F",
"{. c #CD8942",
"}. c #D58B43",
"|. c #DB8F45",
" X c #D38F48",
".X c #D99348",
"XX c #DF9146",
"oX c #F0A957",
"OX c #FFD443",
"+X c #F8D04C",
"@X c #FFDB53",
"#X c #F8CC53",
"$X c #FFE15B",
"%X c #FAD664",
"&X c #FFDD63",
"*X c #F9D66B",
"=X c #FCD973",
"-X c #FEE372",
";X c #FEE688",
":X c #FAE194",
">X c #FBE59D",
",X c #FFEA99",
"<X c #FAE7AB",
"1X c #FDE9AA",
"2X c #FBEDC0",
/* pixels */
"  % $ @ O @ @ O @ @ @ @ @ @ @ @ @ @ @ @ @ @ @ @ @ @ # % % @ & % @ % & @ & & & % & & % & & & % & & & & % & & & & & & & o ",
"% 5. X X}.}.}.L.L.L.J.J.J.6.G.6.6.6.6.G.6.4.6.4.<.4.<.*.;.-.;.-.$.-.@.$.O.O.O.+.o.o.X.X.X.| | | { [ } ] } ] ) ] _ ( } q ",
"@ .XoX{.}.F.F.F.5.4.5.3.@.3.@.@.@.@.o.o.o.X.X.| | | | | | [ } } } } } } ] _ _ ` _ ] ] ) _ ) _ ) ] ] ) ) ) ) ) ) ) ( _ 6 ",
"@ |..XN b h h h h b b k k k k k h h k ~ ! b ! b N k b h h N ~ ~ N b b ~ ~ ~ b N N ~ ~ N ~ ~ ~ N k N ~ ~ ~ N N ~ ( ( ) q ",
"@ }.XXh . $ @ @ $ @ % @ % $ . @ + @ O @ X X X + O @ @ @ @ @ @ % @ % @ O . X X X O O X X @ X + @ @ $ @ O @ @ %   i ] ] 6 ",
"@ P.|.h @ a a a t w a w p w 4 5 5 5 9 5 9 5 5 5 - 9 a t a w a i t t a 0 = 9 5 9 9 ; 5 5 ; ; 4 0 t t i i t w g % i ] _ 6 ",
"% }.P.h @ w w w w w w w w w - 5 5 5 5 5 5 5 ; 5 - 5 w w w w w w w q q q , ; - ; ; 5 ; 5 5 5 4 q a w w w w w a @ i ) ) 6 ",
"% P.K.h @ w w w w w w w i 0 , ; 5 5 5 5 ; 5 5 5 - 9 t w w i w 9 g C C w , 5 ; ; ; 5 5 ; 5 5 4 0 w w w w w w a % i _ ) q ",
"@ K.K.h @ w w w w w w w i w - 5 5 ; 5 ; ; ; 5 5 4 5 w w i 0 w E S.A.=.-.m , 9 ; ; 5 ; 5 5 5 = w w w w w w w t % a ) _ q ",
"@ K.H.h O a w w w w w w w q - ; 5 5 5 5 5 5 5 5 - 9 w a 9 M C.!.!.W.B.*.>.s = ; 5 5 5 5 5 ; 4 q t w w w w w t $ i ) ) q ",
"@ H.6.h @ t w w w w w w i w 4 5 5 5 5 5 5 5 ; 5 4 5 a q V Q.!.R.Q.Q.!.B.;.' = ; 5 5 5 5 ; 5 4 q t w w w w w s % i ) _ 6 ",
"% H.4.h O w w w w w w w w w 4 5 5 ; 5 ; 5 5 5 5 - 5 w a C.!.R.W.Q.E.Q.E.,.T - 9 ; 5 ; 5 5 5 5 q t w w w w w y % i _ ) q ",
"@ H.4.h O w w w w w w w t w 4 ; 5 - 5 5 5 5 5 5 , 6 9 i.^.R.E.E.E.E.E.Y.D./ = 5 5 5 ; 5 5 5 4 q w w w w t w a % i ] ) 6 ",
"@ H.4.h @ a w w w w w w w q 4 5 5 5 5 5 5 5 ; 5 5 < v W./.E.U.E.E.E.E.E.,.w 4 5 5 5 5 5 5 ; 4 q t w w w w w a % i ] _ 6 ",
"% 2.4.h @ w w w t w w w t q - 5 ; 5 5 ; 5 5 5 5 4 < f.(.!.U.E.U.E.U.W.V.C ; 5 5 5 5 ; 5 5 5 - w t w w w w w y % i ) ) 6 ",
"@ H.*.h O t w w w w w w w w 4 ; 5 5 5 5 5 5 5 5 : S ^.'.U.E.U.U.U.U.Y.#.5 ; 5 5 ; ; 4 5 5 ; 4 q w w w w w w t $ i ] ) 6 ",
"& 1.-.f @ t w w w w w w i q 4 5 5 5 5 5 ; 5 5 ; = f.[.~.T.T.U.U.T.Y.V.g , ; ; 5 ; 5 ; 5 5 5 4 q t w w w w w a % i ) _ 6 ",
"@ 1.-.h @ t w w w w w w a w 4 5 - 5 5 ; 5 ; 6 : F _.'.T.T.I.I.T.T.N.Y 5 < 5 5 ; 5 5 5 5 ; 5 4 q w t w w w w a % i _ ) 6 ",
"@ 1.%.h @ t w w w w w w w w 4 ; 5 4 5 5 ; 5 4 u ~.@X~.I.I.I.U.I.I.u.y q , 9 ; ; 5 5 5 ; 5 5 4 q t w w w w w a % i ) ) q ",
"@ 2.%.h X t w w w w w w w q 4 5 5 5 ; 5 ; 6 * 9.@X'.I.I.I.I.I.T.c.C w q - ; ; ; 5 5 5 5 ; 5 - q t w w w w w a % i ] _ 6 ",
"& 2.@.h @ t w w w w w w a q - 5 5 5 5 ; 9 , c ].%XT.I.I.I.I.I.m.W r w q 5 5 ; 5 5 5 5 5 5 ; - 0 w w w w w w a % i ) ) 6 ",
"@ 2.O.h X t w w t w w w i q - 5 5 5 ; 5 ; ; B.-X`.m.I.I.I.m.I.p.g w w 5 : = ; ; 5 5 ; 5 5 5 - 0 t w w w w w a $ i ] ) q ",
"% <.o.h @ t w w w w w w w 0 4 5 5 5 5 5 > I $X*XT.I.I.n.m.I.M.Y q 9 m / Z Z w < 5 5 5 5 5 5 4 q t w w w w w a % i ] ) 6 ",
"& <.o.h O t w t w w w w w w 4 5 5 5 5 , j ).;X(.m.I.I.n.I.I.u.w w Q d.d.y.=.*.g = ; 5 5 5 5 4 q t w w w w w a $ i _ ) q ",
"@ 1.X.h @ a w w w w t w w w 4 5 5 ; ; = w.-X%XI.m.m.I.n.I.l.N s g.I.I.I.I.f.*...5 5 5 ; 5 5 4 q t w w w w w t $ i ] ) q ",
"@ <.X.h @ i w w w w w w i 0 4 ; 5 6 : D @X>XR.m.I.I.n.I.m.W 6 w.Y.).I.n.n.I.t.$.a - 5 5 ; ; 4 q w w w w w w y $ i ) ) 6 ",
"% <.X.h @ w w w w w w w t q 4 5 ; 4 8 Z.1X+Xm.n.n.n.n.I.p.f d n.=X`.n.m.n.I.k.;.m * 6 ; 5 5 4 0 t w w w w w y $ i ) _ 6 ",
"@ <.X.k @ w w w w t w w w w 4 ; 6 , 8.-X>Xm.T.m.m.n.I.M.Y 7 D ].1XE.n.m.m.m.j.=.m - 5 5 5 5 4 q t w w w w w s % i _ _ 6 ",
"@ <.| h @ t w w w w w w i 0 4 9 , l (.<X/.m.m.m.m.n.m.r.a e K &X<Xm.n.m.n.I.M.>.n = ; ; 5 ; 4 0 t w w w w w t $ i ) ) q ",
"& <.| h @ w w w w w w w i 0 4 5 , w.1X=Xn.m.m.m.n.m.c.B w e F -X>Xn.m.m.m.m.j.>.b - ; ; ; ; 5 q w w w w w w s $ i ] ) 6 ",
"% ;.{ h X t w w i w w w i 8 5 : K OX1Xm.m.m.m.m.I.n.E 9 w e D %X:Xm.n.m.n.m.j.=.s = - ; ; 5 = 0 t w w w w w y $ i _ ) 6 ",
"& ;.{ h @ t w w w w w w w w , z m.>X).b.m.m.m.m.m.s.Z B B m U (.*Xm.m.m.m.m.c.=.n a m w , ; 4 9 t w w w w w s % i _ ) q ",
"% ;.[ k @ t w w w w w w w r 4 g.OX*Xv.m.n.v.n.m.j.p.d.s.s.y.k.m.Z.m.n.n.v.m.j.#.A.,.$.%.C 9 = 0 t w w w w w s $ w _ _ q ",
"& ;.[ k @ t w w w w w w t 5 F I.#Xm.b.m.m.m.m.m.m.m.m.m.m.m.b.m.n.m.m.m.m.m.m.m.m.m.l.:.&.' 5 9 w w w w w w y % i ` _ 6 ",
"@ ;.[ h @ w w w w w w w w t g.U.n.n.n.v.v.b.n.v.m.b.v.m.v.m.m.n.n.m.b.m.v.n.n.m.m.n.m.b.*.&.m 5 t w w w w w t $ i _ ) 6 ",
"& ;.} b @ t w w w w w w 0 x m.m.n.b.m.m.n.m.b.n.m.n.b.v.b.m.v.b.n.v.m.v.m.m.v.m.b.m.b.m.c.&.' 9 t w w w w w t $ i _ ) q ",
"& -.} b @ w w w w w w a e L m.m.m.m.M.m.n.b.b.n.v.m.m.v.m.m.v.m.b.n.m.v.m.v.m.v.n.v.b.m.m.A./ 9 t w w w w w s $ i ) ) 6 ",
"& $.` k @ t w w i w w w 9 v m.b.v.b.m.m.m.v.m.v.m.v.m.b.b.b.m.b.b.m.v.m.m.m.b.b.b.n.n.b.m.,.0 9 t w w w w w y % i ] ) q ",
"& %.` h @ t w w w w i w i q q.I.m.v.b.b.v.v.v.v.v.b.b.b.v.v.v.m.b.m.v.b.v.b.v.v.v.v.b.I.k.y * q w w w w w w s $ i ) ) 6 ",
"& %.] ! @ w r w w w w w w 0 6 0.v.m.m.I.m.m.I.I.I.m.m.I.I.I.m.b.v.n.v.n.v.m.m.m.m.I.m.q.w = 5 9 t w w w w w y % i ] ) 6 ",
"& O.) b X t w w w w w w w 0 , = 8 z G v G G G H H L P P P P 0.b.v.v.b.b.v.b.x.a.0.I x ; < 5 4 0 t w w w w w t $ i _ _ 6 ",
"& O.) h @ w w w w w w w t w 4 5 ; , : , , : : = : , e 9 9 7 x m.v.v.b.v.v.b.h.&.y > , ; ; ; - q t w w w w w s % i _ _ q ",
"& O.) ! X t w w w w w w a q 4 5 9 ; 5 5 ; 5 9 6 < 9 t w y 0 v m.v.b.v.v.v.b.h.>.m = 9 ; ; 5 4 0 w w w w w w t % i ) _ q ",
"& O.) ! @ t w w w i w w i 0 4 5 5 5 5 5 ; 5 ; ; - 5 t w t 9 G m.v.v.b.b.v.b.h.>.s , ; ; 5 ; - q t w w w w w t $ i ] ( 6 ",
"& +.) ~ @ w w w w w w w w w - ; 5 ; < ; 5 5 5 ; - 9 w w w 9 G b.v.x.b.b.x.b.h.>.h = 5 5 ; 5 4 q t w w w w w a % i ) ) 6 ",
"& +._ b @ t w w w w w w a q 4 ; 5 5 ; 5 5 5 5 5 - 9 w w w 9 M b.x.b.x.b.b.b.h.>.a = 5 5 ; ; ; q t w w w w w a % i ] ) 6 ",
"& X.) k @ t w w w w a w i q 4 5 5 ; ; ; 5 5 ; ; - ; t w i w m x.x.b.b.x.v.v.c.R ; ; ; 5 ; ; 4 q t w w w w w a % i ) _ 6 ",
"& { ) N O w w w w w w w w w 4 5 5 ; 5 5 5 5 5 ; - 9 t w w w w g.b.x.x.b.v.b.t.t - 9 5 ; ; 9 4 q t w w w w w a $ i ) ) q ",
"* { ) h O a w w w w w w a 8 4 5 ; 5 ; 5 5 5 5 ; = 9 w i w a 9 L b.b.v.v.b.e.8 - 5 5 ; 5 ; 5 5 0 i w w w w w y % i ] ) 6 ",
"& { ) k @ t w w w w w w w w 4 5 5 5 5 5 4 ; 5 5 - 9 w w w w w 9 U x.b.x.#.8 = ; ; 5 5 5 5 5 - q w w w w w w a $ i ] ) 6 ",
"& { ) N @ w w w w w w w w q - ; 5 5 5 5 ; 5 5 5 - 6 w w w i w w 0 m v s , ; ; ; 5 5 ; 4 5 5 , q w w w w w w a % i _ _ 6 ",
"* [ ) k @ w w w w w w w i w - 5 ; 5 ; 5 5 5 5 ; - q w w w w w w t 0 0 < - ; ; ; ; 5 5 5 - 5 - 0 a w w w w w a % w _ ) 6 ",
"& [ _ k @ w w w w w w w w w 4 5 5 5 5 5 5 ; 5 5 - 5 t w w t w w w w w q 5 5 5 5 5 5 5 5 5 5 4 q i w w w w w y % i ] ) 6 ",
"* [ ( ! O t w w w w w w w w 4 5 5 ; 5 5 5 5 5 5 - 9 a w w w w w w w t 9 4 5 5 5 5 5 5 5 ; 5 4 q t w w w w w a $ i ] ) 6 ",
"& } _ k X t t w t w w w w w 4 ; 5 ; 5 5 5 ; ; 5 ; 5 t t i w i i i t a 9 4 ; 5 5 ; 5 ; ; 5 9 4 0 y w w w i w g $ p ) ) 6 ",
"& _ ) ~ . @ @ $ @ @ @ @ @ @ + + + X O O O + + X X O @ @ $ @ @ @ @ @ @ @ + . X @ @ O O O O O + @ % @ @ $ $ @ %   f ] ) 6 ",
"& ) ( ( ^ ^ B ^ ^ ~ ^ ^ B ^ ^ ^ ^ ^ ^ ^ ^ ^ ^ ^ ^ ^ ^ ^ ^ ^ ^ ^ ^ ^ ^ N ^ ^ ^ ^ ^ ^ ^ ^ ^ ^ ^ ^ N B ^ ^ ^ ^ N B ( ( ] 6 ",
"& _ ( ) ) ( ] ( ] ] ( ] ) ) ) ) ) ) ( _ ) ] _ ( _ ( ( ] ) ] ) ( ) ) _ _ ) ) ) ) _ ( ) ] ) ] ) ( _ ) ) ) ( ) _ _ _ ( ) 6 ",
"% _ ( ( ( ) ( ( ( ( ( ( ( ( ( ( ( ( ( ( ( ( ( ( ( ( ( ( ( ( ( ( ( ( ( ( ( ( ( ( ( ( ( ( ( ( ( ( ( ( ( ( ( ( ( ( ( ( ] 6 ",
"+ 1 3 3 1 1 3 2 1 1 3 3 1 1 1 1 > 3 3 2 1 1 1 2 1 1 3 2 1 1 1 1 1 1 1 > 1 1 1 1 3 3 2 2 1 3 > 3 1 1 1 1 1 1 1 1 2 1 1 # "
};
