/* XPM */
static char *result[] = {
/* columns rows colors chars-per-pixel */
"60 60 214 2 ",
"   c #2C1A05",
".  c #321E05",
"X  c #371F06",
"o  c #3A2106",
"O  c #3C2309",
"+  c #362106",
"@  c #43260A",
"#  c #43290C",
"$  c #4A290B",
"%  c #492708",
"&  c #532D0E",
"*  c #582F0F",
"=  c #56310E",
"-  c #5B330F",
";  c #4B2612",
":  c #4E2A11",
">  c #542D11",
",  c #5B2F13",
"<  c #553111",
"1  c #5B3311",
"2  c #5E3914",
"3  c #623613",
"4  c #623A14",
"5  c #6D3D15",
"6  c #643519",
"7  c #6C3C18",
"8  c #693518",
"9  c #713E15",
"0  c #743C1C",
"q  c #673C0F",
"w  c #7A3A21",
"e  c #6C440F",
"r  c #66400F",
"t  c #72480C",
"y  c #794D0C",
"u  c #7B510D",
"i  c #6F4015",
"p  c #6E4319",
"a  c #744116",
"s  c #7C4716",
"d  c #7D4B13",
"f  c #73441A",
"g  c #7A471A",
"h  c #75481C",
"j  c #7E4B1D",
"k  c #774E10",
"l  c #7F4F21",
"z  c #83550C",
"x  c #8A5B0D",
"c  c #8B5809",
"v  c #814D1E",
"b  c #8B4C1C",
"n  c #834819",
"m  c #8E5114",
"M  c #84511F",
"N  c #8A521C",
"B  c #885611",
"V  c #935315",
"C  c #9C5D16",
"Z  c #95551C",
"A  c #9A551E",
"S  c #A25C16",
"D  c #92630E",
"F  c #9C6E0D",
"G  c #96670B",
"H  c #8F6010",
"J  c #9C6216",
"K  c #A26D0A",
"L  c #AA750D",
"P  c #A77509",
"I  c #B77D08",
"U  c #AA6619",
"Y  c #AB6818",
"T  c #AD7911",
"R  c #A77310",
"E  c #BB741A",
"W  c #8B4523",
"Q  c #824F20",
"!  c #984C24",
"~  c #865220",
"^  c #8A5321",
"/  c #9C5322",
"(  c #965A24",
")  c #9A5E26",
"_  c #9D5E28",
"`  c #965420",
"'  c #A14F29",
"]  c #A25623",
"[  c #A05F26",
"{  c #A05F29",
"}  c #AF5034",
"|  c #B85235",
" . c #B4592C",
".. c #9E6027",
"X. c #9F6128",
"o. c #A36126",
"O. c #AC6324",
"+. c #A36129",
"@. c #AA6529",
"#. c #AF682A",
"$. c #B16729",
"%. c #B56A2B",
"&. c #BB6C2A",
"*. c #BB6726",
"=. c #BD722F",
"-. c #BC7433",
";. c #C6791B",
":. c #D17D1E",
">. c #C15C30",
",. c #C66F25",
"<. c #C4662B",
"1. c #C36D2A",
"2. c #CA6D2A",
"3. c #CB7325",
"4. c #C6712A",
"5. c #CC732B",
"6. c #C87522",
"7. c #D37C22",
"8. c #D3752B",
"9. c #DD7A2C",
"0. c #D67728",
"q. c #C17532",
"w. c #C57935",
"e. c #CA7E3A",
"r. c #D27C32",
"t. c #C76830",
"y. c #E27E2E",
"u. c #BC8203",
"i. c #BE880A",
"p. c #C58B05",
"a. c #C08507",
"s. c #CB9304",
"d. c #D49503",
"f. c #D49908",
"g. c #C98416",
"h. c #DC8C1B",
"j. c #D78C18",
"k. c #DD9513",
"l. c #D9901F",
"z. c #E39C09",
"x. c #E29712",
"c. c #E19219",
"v. c #E59916",
"b. c #DCA205",
"n. c #E5A502",
"m. c #ECAB03",
"M. c #EAA50A",
"N. c #EAA906",
"B. c #F4AE03",
"V. c #F3A90B",
"C. c #F6B301",
"Z. c #F9B401",
"A. c #F6BA01",
"S. c #FABC01",
"D. c #F8BD0B",
"F. c #F5B70C",
"G. c #E4AB14",
"H. c #EEAB1D",
"J. c #E6A01C",
"K. c #EEB718",
"L. c #F7BC1B",
"P. c #F6BA19",
"I. c #E7B20E",
"U. c #CD823C",
"Y. c #D5843A",
"T. c #D5893E",
"R. c #DC8921",
"E. c #E7812F",
"W. c #E59D2C",
"Q. c #EA8432",
"!. c #ED8B39",
"~. c #EA9A35",
"^. c #EAA628",
"/. c #E8A032",
"(. c #FCC202",
"). c #FAC30D",
"_. c #FFCC0C",
"`. c #FBC607",
"'. c #F5C314",
"]. c #FAC413",
"[. c #FAC51A",
"{. c #FDCB1A",
"}. c #FBC819",
"|. c #F9C424",
" X c #FBCA22",
".X c #FAC82D",
"XX c #FBCB35",
"oX c #F9CD3C",
"OX c #F8C432",
"+X c #FED233",
"@X c #CE8942",
"#X c #D28B43",
"$X c #E89847",
"%X c #F19948",
"&X c #F09F50",
"*X c #F1A556",
"=X c #F9C741",
"-X c #FACC42",
";X c #F8CC48",
":X c #FFD94E",
">X c #FCD241",
",X c #FACF54",
"<X c #FEDA55",
"1X c #FAD355",
"2X c #FEDB61",
"3X c #FFE277",
"4X c #FFE685",
"5X c #FFF289",
"6X c #FEEA99",
"7X c #FCEAA5",
"8X c #FFF2B9",
"9X c #FCEBB7",
"0X c #FFF4C4",
"qX c #FFF7C9",
/* pixels */
"o O O O O O O O O O O O O O o o O O O O o O O O O O O O O # O # # O # O # # @ @ O O # # # # ; # # # # $ # # # # O # #   ",
"h #X@X@X@X@X#X#XY.Y.Y.Y.Y.Y.Y.r.r.r.r.r.r.r.r.5.5.r.5.5.w.3.4.4.4.1.1.&.&.&.&.&.&.&.$.$.$.@.@.@.@.+.o._ .._ ) ) ..) X.O ",
"p *X$X@X#X@XU.U.U.e.w.w.4.q.=.=.-.%.=.%.%.#.$.#.@.+.@.@.+.o.+.+.o.o.[ [ _ _ ) .._ ) ....) ) ) ( ) _ ) ) ( ) ) ) ( ( ..O ",
"l &X-.l n j j j j j v j j v j Q l Q l ~ Q Q ~ Q ~ ~ ~ l ~ ~ ~ ~ ~ M v Q ~ ~ M N ^ N M M N ^ ~ ~ ~ M Q ~ ~ ~ M ^ ( ) ) O ",
"f &XU.2 . @ @ O O @ O @ @ O X X X o o o + X X o . O O O O O O @ O O O X . X X X o + X X X X X O O O O o O O O . ^ ....O ",
"h &X-.< $ f 9 9 9 i 5 5 9 3 * 2 1 1 - - 1 1 - - , 5 9 9 a p a 5 9 5 9 3 1 - 2 1 - - 2 - 1 - > 5 a 9 9 5 9 5 7 o ~ ( ) O ",
"f %Xw.1 $ 9 5 5 5 5 5 5 5 3 * - 1 1 1 - 2 - 1 2 < 4 9 9 5 9 5 5 5 5 5 1 1 1 1 1 - 2 - 1 1 - * 5 5 5 5 5 5 5 a o M ....O ",
"f %X-.1 $ 9 5 5 5 7 5 i 5 3 , 1 1 1 2 1 * & & < : 3 4 4 5 3 5 4 5 4 5 < & , 3 < * > - - - 3 > 5 5 5 5 5 5 5 5 o M ( ..O ",
"f %X=.1 $ a 9 5 5 5 5 5 5 3 * 2 - - > 2 n V m V m Z C S S U S U U Y Y U Y E 6.;.Y d * * < 1 > 5 5 5 5 5 5 5 5 O ~ ) ) O ",
"f !.-.1 $ a 5 5 5 5 5 5 9 2 > - - : c l.W.W./.~././.^./.^.^.^.^.H.H.H.K.L.L.L.v.k.h.C & 2 1 < 5 5 5 5 5 5 5 7 O ~ ) ) O ",
"h !.%.2 $ a 5 5 5 5 5 5 9 2 < 1 3 i.4XqX0X8X8X8X7X7X5X4X3X3X<X<X<X>X+X.X X{.{.{.K.j.h.d & - < 5 5 5 5 5 5 5 7 o M ) ) O ",
"h ~.%.= $ 9 5 5 9 5 5 7 i 3 < > s.5X9X>XoXoX>X>XoXoXoXXXXX.X|..X[. X}.}.[.}.[.[.{.H.R.J > - > 5 5 5 5 5 5 5 a O ~ ) ..O ",
"p !.%.2 # 9 5 5 7 5 5 5 5 4 $ u  X6X).`.).).).).).).).).'.).'.].].}.].}.].'.].}.}.'.j.J & 1 < 5 5 5 5 5 5 5 5 o ~ ) ) O ",
"f !.#.2 $ a 5 5 5 9 5 5 5 4 ; D +X1X`.[.].].].}.}.}.].].].}.].].].].].].].].].}.'.'.c.n & 1 < 5 5 5 5 5 5 5 9 o M ) ..O ",
"h Q.#.2 $ a 5 5 5 5 5 5 9 4 $ x {.[.'.].].].).].).).].].].).].'.].].].'.).].].D.].].Y - - 1 < 7 5 5 5 5 5 5 9 o ^ ) ) O ",
"f Q.#.2 $ a 5 5 5 5 5 5 5 3 < 3 G._.).].).].).].).].).).].'.).).).'.).).).).]._._.R = - 1 1 = 5 5 5 5 5 5 5 5 o ~ ) ) O ",
"h Q.@.2 % a 5 5 5 5 5 5 5 3 - ; G _.).).`.).).).).`.]._._._._._._._._._._._._.I.D $ 2 - 1 1 > 7 5 5 5 5 5 5 7 o ~ ( ..O ",
"h Q.@.2 $ 9 5 5 5 5 5 5 5 3 1 > H _.).).D.).`.).D.v.i.R T T T T L R R F F F z 3 & - 3 1 1 1 < 7 5 5 5 5 5 i 7 o ~ ....O ",
"f y.@.2 $ a 5 5 5 5 5 5 9 3 - > x _.(.(.(.).`.`.F.1.b < 6 3 4 6 3 3 6 > : : > * 2 - * - 1 1 < 7 9 5 5 5 5 5 f o M ..( O ",
"h y.@.2 $ a 5 5 5 5 5 5 9 - > > z `.A.).(.(.D.`.F.3.` 5 9 i a a i a 9 1 1 2 2 1 * 1 - - < 1 < 7 5 5 5 5 5 5 7 o ~ ) ..O ",
"f y.@.4 % f 5 5 5 5 5 5 9 3 - * u `.A.(.(.(.(.(.A.3.A 3 4 5 4 5 4 5 5 1 - - 1 - - 1 1 1 1 * < 5 5 5 5 5 5 5 5 o ~ ) ( O ",
"f y.+.2 $ a 5 5 5 5 5 5 5 3 < > z (.(.(.A.(.S.(.F.2.] n / ] ] A A N s = = 1 - 1 1 * 1 - - 3 < 5 5 5 5 5 5 5 a o ~ ....O ",
"f 9.+.4 % a 5 5 5 5 5 5 5 3 - > u (.(.S.(.(.(.(.A.:.h.c.v.v.c.h.7.3.,.O.N 3 < = 3 - 3 1 1 - > 5 9 5 5 5 5 5 p + ~ ) ..+ ",
"g y.+.2 % 9 5 5 5 5 5 5 5 3 < > y (.S.(.(.A.A.(.S.(.(.(.(.(.(.(.A.N.v.:.3.*.V 3 > - - - , 1 = 5 5 5 5 5 5 5 5 + ~ ) ..O ",
"f y.+.2 % f 5 5 5 5 5 5 5 3 - * t A.A.(.A.(.S.S.(.A.(.A.(.S.A.(.(.(.(.A.z.7.4.&.s = - - 1 1 < 7 5 5 5 5 5 5 5 o ~ ) ( O ",
"f 9.+.2 $ a 5 5 5 5 5 5 5 3 = * e A.(.(.S.S.(.A.S.(.A.S.A.(.(.A.S.S.A.(.(.A.k.,.6.N = - 1 1 < 5 5 5 5 5 5 5 5 O ~ ) ..O ",
"g 9.{ 2 % 9 5 5 5 5 5 5 a 3 = * e A.A.A.(.A.S.(.A.A.(.(.(.S.A.(.(.A.(.S.A.S.(.M.6.5.n = 1 1 < 5 9 5 5 5 5 5 9 o M ....O ",
"g 0.{ 4 % 9 5 5 5 5 5 5 5 3 - = r A.(.A.(.A.S.A.(.A.A.A.A.A.A.A.A.A.A.S.A.(.A.(.N.1.,.5 1 1 > 7 5 5 5 5 5 7 9 o M ) ..O ",
"g 8.X.2 $ a 5 5 5 5 5 5 5 3 * - r C.(.A.S.S.S.S.A.A.[..XXXOX|.P.A.A.S.S.S.S.S.S.(.v.1.O.1 1 < 5 5 5 5 5 5 5 7 O ~ ) ) O ",
"g 8...4 % a 5 5 5 5 5 5 5 3 < - < b.(.A.S.S.S.D.XX<X<X:X:X<X<X2X,X.XD.S.S.S.S.S.A.S.:.2.s * < 5 5 5 5 5 5 5 5 o ~ ) ) O ",
"g 8._ 2 % a 7 5 5 5 5 5 9 3 = 2 : F (.A.A.A.A.{.P.f.p.I u.p.f.K.XX<X,X|.S.S.A.S.A.S.M.1.U > < 5 5 5 5 5 5 5 a o ~ ) ..O ",
"g 8...4 $ a 5 5 5 5 5 5 5 3 * 2 1 - s.(.(.(.(.n.t < 6 6 3 6 4 a G b.XX1XOXC.S.A.S.A.S.:.<.p > 5 9 5 5 5 5 5 7 o M ) ) O ",
"g 5...4 $ a 5 5 5 5 5 5 9 3 > 2 - - * D u.p.P 2 ; 5 5 i 5 i i 5 3 4 u. X,X[.Z.Z.A.S.(.x.t.b > 5 5 5 5 5 5 5 9 o ^ _ ) O ",
"g 5._ 2 $ a 5 5 5 5 5 5 5 3 * - - - - : > : : - = 4 i 5 5 5 5 5 9 5 6 d.XX-XS.S.Z.A.S.m.2.A : 5 5 5 5 5 5 5 7 o ~ _ ) O ",
"g 5._ 2 % a 5 5 5 5 5 5 9 3 1 1 * 2 - 1 1 1 2 - < 4 5 5 5 5 5 5 5 a 3 z ).;XP.A.S.Z.A.Z.3.] = 5 5 5 5 5 5 5 9 o ~ ) ) O ",
"g 4._ 2 % 9 5 5 5 5 5 5 5 3 > - 1 - 1 1 1 1 1 1 < 4 i 5 5 5 5 p 5 9 7 t Z.oX|.Z.A.S.Z.A.7./ $ 5 9 5 5 5 5 5 9 o ~ ) ) O ",
"g 1.X.2 $ f 5 5 5 5 5 5 9 3 1 - - - 1 - 2 1 2 - = 4 5 5 5 i 5 5 5 5 8 z S.oX|.Z.A.Z.Z.A.0.! : 5 5 5 5 5 5 5 p o ~ ) ) O ",
"g 1.X.2 % a 5 5 5 5 5 5 5 3 < 1 3 - 1 - = = & 1 < 5 5 5 5 5 5 5 5 i 8 L S.=X[.Z.A.A.A.C.5.n & 4 5 5 5 5 5 5 9 o ~ ) ..O ",
"g 1...4 $ a 7 5 5 5 5 5 5 3 < - * - > , 0 W n 8 : 4 9 5 5 i 5 5 i 5 5 n.D.;XF.Z.Z.A.S.B.*.5 & 5 5 5 5 5 5 5 7 O ~ ) ) O ",
"g &._ 2 $ 9 5 5 5 5 5 5 5 3 * 2 - : n 6.7.<.| } W 5 5 5 4 5 5 5 4 3 i.S.OXOXZ.Z.Z.Z.Z.v.' - < 5 5 5 5 5 5 5 9 o ~ ) ) O ",
"g &.X.2 % 9 5 5 5 5 5 5 5 3 = 1 > P Z.(.S.C.x.<.| } ! n 9 9 0 0 b g.S.P.oXA.A.C.Z.C.S.7.0 - * 5 5 5 5 5 5 5 9 o M ) ..O ",
"g %._ 2 % a 5 5 5 5 5 5 9 3 < & K (.C.C.Z.C.S.C.k.2.>.| |  .*.:.V.S.P.OXZ.C.Z.Z.C.A.V.! * - > 5 5 5 5 5 5 5 7 O ~ ) ) O ",
"g *.X.2 % a 5 5 5 5 5 5 9 3 > 3 n.Z.C.C.Z.A.C.Z.Z.A.B.M.M.B.Z.S.S.Z.F.Z.Z.C.Z.Z.C.S.,., - 1 > 5 9 5 5 5 5 5 9 o ~ ) ) O ",
"g %.X.4 $ a 5 5 5 5 5 5 9 3 = q m.Z.C.Z.Z.C.Z.C.Z.Z.Z.S.Z.Z.C.B.C.Z.Z.F.C.C.Z.Z.S.k.8 * 1 1 < 7 5 5 5 5 5 5 5 o ~ ) ..O ",
"g $.) 4 $ a 5 5 5 5 5 5 5 3 = - n.Z.C.C.C.Z.Z.C.C.C.B.Z.Z.B.Z.C.Z.Z.C.C.Z.B.B.S.z.7 = 1 1 1 < 5 5 5 5 5 5 5 7 O M ) ) O ",
"g %._ 2 % a 5 5 5 5 5 5 9 3 = & P S.B.Z.Z.C.Z.B.Z.Z.Z.Z.Z.Z.Z.Z.Z.Z.Z.Z.Z.Z.S.d.6 > - 1 - - < 7 5 5 5 5 5 5 p o ~ ..) O ",
"g $.X.2 % a 5 5 5 5 5 5 5 3 = - * a.S.Z.B.C.C.Z.Z.Z.B.C.Z.B.B.Z.Z.B.B.B.Z.S.I < - 1 1 1 1 1 < 5 5 5 5 5 5 5 i o M ) ) O ",
"g @...2 % 9 5 5 5 5 5 5 9 3 * 1 , & c d.S.Z.Z.B.B.B.Z.C.B.Z.Z.Z.B.Z.Z.S.n.x & 1 - - 1 1 - - > 7 5 5 5 5 5 5 i + ~ ) ..O ",
"l { _ 2 % a 5 5 5 5 5 5 5 3 < 1 1 1 > * z a.M.Z.S.Z.Z.Z.Z.Z.Z.Z.S.Z.z.G - > - - - - 1 1 - 1 < 7 5 5 5 5 5 5 5 o ~ ) ) O ",
"g { _ 4 % f 5 5 5 5 5 5 5 3 * - 1 - 1 1 & : 5 c L d.N.B.B.B.m.d.I V 5 > - - - 3 1 1 1 - - 1 < 5 5 5 5 5 5 5 p O ~ ) ) O ",
"g @._ 4 % a 5 5 5 5 5 5 5 3 = 2 1 1 1 3 1 1 - & ; 3 a d n d a 4 3 3 9 2 , - 1 - = 1 1 - 1 - > 5 9 5 5 5 5 5 5 X M ) ..O ",
"a +._ 4 % a 5 5 5 5 5 5 a 3 = - 1 1 1 - 1 - - 3 - 4 5 5 q 8 5 5 a 9 9 1 - - * 3 1 - 1 1 1 1 < 5 5 5 5 5 5 5 7 o ~ ) ) O ",
"f o.) 2 % f 5 5 5 5 5 5 5 3 * - - 1 - - - 1 1 1 < 4 a 5 5 5 5 5 5 5 9 1 * 1 1 1 1 1 - 1 1 1 < 5 5 5 5 5 i 5 9 o ~ ) ) O ",
"f o._ 4 $ a 5 5 5 9 5 5 5 2 & - , 1 - * 1 1 - - > 4 5 5 5 5 5 5 5 7 9 1 1 - - = - * 1 1 1 1 < 5 5 5 5 9 5 5 7 o ~ ) ) O ",
"f _ _ 3 > g 9 f 9 0 9 f a 5 - q 3 - 3 q 3 3 1 3 - 5 a 9 a a a a 9 a a 3 - 3 2 3 3 q 3 3 3 - 1 i 9 a 9 9 9 f h O ~ ) ) # ",
"f _ _ 2   $ O % @ # # # % o o o O O O X O X O o o O % @ @ @ @ @ # % % O X O O X X O o O o O X @ # % @ @ # @ %   ~ ) ) O ",
"i ..) M i p p p p p p p p p p p a f f f f f p f p p p p i p p p p p p f a p f f p f p f f p f f p p p p a p p h ( ( ) O ",
"p ) ( ) ..) ....) ) ) ..) ......_ _ _ _ _ _ _ _ ........) ......_ _ _ _ ) _ ......_ _ _ _ _ ) _ _ _ _ _ ) ......( ( ( O ",
"f +.) _ ........) ..) ) ..) ) ..) ) ) ) ..) ) ) ) .._ ) ) ....) ) ) ) ) ) ) ) ) ..) ) ) ..) ..) ) ) ) _ ) ) ) ) ..o.+.# ",
": 4 2 4 4 2 2 2 4 2 4 4 4 2 4 2 4 2 4 4 2 4 4 4 2 2 4 4 4 4 2 4 4 4 4 4 4 4 4 4 2 4 4 4 2 4 2 4 4 4 4 4 2 4 4 4 2 2 4   "
};
