/* XPM */
static char *result[] = {
/* columns rows colors chars-per-pixel */
"60 60 211 2 ",
"   c #2C1B04",
".  c #351F07",
"X  c #351E08",
"o  c #381E05",
"O  c #3B2107",
"+  c #372109",
"@  c #3C2309",
"#  c #3B2508",
"$  c #402406",
"%  c #41270C",
"&  c #462B0D",
"*  c #4B2C0E",
"=  c #522E0E",
"-  c #5A2F0F",
";  c #4F310E",
":  c #54310E",
">  c #5B330F",
",  c #4D2C11",
"<  c #4C2714",
"1  c #542D11",
"2  c #582F12",
"3  c #4E3011",
"4  c #553111",
"5  c #5B3311",
"6  c #5D3515",
"7  c #663908",
"8  c #623614",
"9  c #693716",
"0  c #663914",
"q  c #6C3D15",
"w  c #633519",
"e  c #6C3C18",
"r  c #703F16",
"t  c #753D18",
"y  c #6C410A",
"u  c #784908",
"i  c #7B500C",
"p  c #6E4015",
"a  c #734116",
"s  c #7A4615",
"d  c #7C4A13",
"f  c #744319",
"g  c #7A441B",
"h  c #7C4B1D",
"j  c #77481C",
"k  c #7E4E20",
"l  c #82530D",
"z  c #865608",
"x  c #824C14",
"c  c #834F1F",
"v  c #8A4E19",
"b  c #8B5414",
"n  c #84501E",
"m  c #8F5219",
"M  c #885A14",
"N  c #915617",
"B  c #91521B",
"V  c #985C16",
"C  c #9A6407",
"Z  c #A46E01",
"A  c #AB7404",
"S  c #AC740D",
"D  c #A57308",
"F  c #A46618",
"G  c #B46B1E",
"H  c #B16E17",
"J  c #A27112",
"K  c #B5741B",
"L  c #BC7519",
"P  c #B57B15",
"I  c #B47B0A",
"U  c #824E21",
"Y  c #845020",
"T  c #8B5220",
"R  c #965A25",
"E  c #9A5D26",
"W  c #9C5E28",
"Q  c #995621",
"!  c #A15E25",
"~  c #A25F28",
"^  c #9E6128",
"/  c #A46227",
"(  c #AA6427",
")  c #A36128",
"_  c #AB6629",
"`  c #AF682A",
"'  c #B46827",
"]  c #B16628",
"[  c #B36B2B",
"{  c #BB6B29",
"}  c #B56727",
"|  c #B7702E",
" . c #BC7432",
".. c #C77B1B",
"X. c #D27E1E",
"o. c #CB6F26",
"O. c #C36D29",
"+. c #C86C2B",
"@. c #C67522",
"#. c #CE7B22",
"$. c #C6702A",
"%. c #CC732B",
"&. c #CC7623",
"*. c #D37D23",
"=. c #D1762B",
"-. c #D3792E",
";. c #C27735",
":. c #C47F3C",
">. c #C67E39",
",. c #D27C33",
"<. c #D97D32",
"1. c #D27F39",
"2. c #BB8202",
"3. c #BD8900",
"4. c #B88409",
"5. c #B68618",
"6. c #C28807",
"7. c #CD9409",
"8. c #D29503",
"9. c #D39902",
"0. c #DB9C02",
"q. c #C88413",
"w. c #CE8C12",
"e. c #DC8F16",
"r. c #D5841E",
"t. c #DB861E",
"y. c #D98C17",
"u. c #DC9315",
"i. c #DA9715",
"p. c #E59C0F",
"a. c #E59B13",
"s. c #E99E11",
"d. c #E1991B",
"f. c #DDA302",
"g. c #D9A40A",
"h. c #E5A304",
"j. c #EDAB03",
"k. c #E9A60B",
"l. c #EEAB0A",
"z. c #E5A808",
"x. c #F3AD02",
"c. c #F2AB0B",
"v. c #EFB001",
"b. c #F6B401",
"n. c #F9B401",
"m. c #F6BA01",
"M. c #F9BB01",
"N. c #F4BE0D",
"B. c #F9BC0B",
"V. c #F5B00D",
"C. c #E5A513",
"Z. c #E5A514",
"A. c #EAB21D",
"S. c #F4B713",
"D. c #D58423",
"F. c #DD8C23",
"G. c #CE853E",
"H. c #C6813E",
"J. c #DB8235",
"K. c #D18339",
"L. c #DE863A",
"P. c #DE883D",
"I. c #E19D22",
"U. c #E1893F",
"Y. c #FCC101",
"T. c #FBC30A",
"R. c #FECB0D",
"E. c #F6C004",
"W. c #F7C314",
"Q. c #FAC513",
"!. c #FECC14",
"~. c #F6C41D",
"^. c #FAC61A",
"/. c #F7C818",
"(. c #FDCB1B",
"). c #FFD21A",
"_. c #FFD217",
"`. c #FDCC23",
"'. c #F9C52A",
"]. c #FACA2E",
"[. c #F9C936",
"{. c #FED23F",
"}. c #CE8842",
"|. c #DE8B41",
" X c #D08C45",
".X c #DF954A",
"XX c #DE9143",
"oX c #E28E43",
"OX c #E39346",
"+X c #E09449",
"@X c #F0A854",
"#X c #F3CC45",
"$X c #F9CA44",
"%X c #FCD747",
"&X c #FCD658",
"*X c #FBD664",
"=X c #FEDE65",
"-X c #FEDD7A",
";X c #F9D877",
":X c #FFE479",
">X c #FBDE86",
",X c #FCE389",
"<X c #FFED97",
"1X c #FFEBA1",
"2X c #FCE9AF",
"3X c #FEF4A5",
"4X c #FFF5B5",
"5X c #FBEAB6",
"6X c #FFF1C2",
"7X c #FDFBD7",
"8X c #FFF9E3",
/* pixels */
"  * * & & & * * * & * * * * * & * * * * 3 & ; * * : , = , 3 , ; ; * : ; 1 ; : : ; : 3 : : : ; : : ; ; ; 3 : ; 3 : ; =   ",
"@ H..X.X+XOX|.oXXXP.P.P.P.L.L.L.J.J.J.J.<.,.,.-.-.,.-.-.-.%.%.%.$.$.$.$.O.{ { { { { { ] ' _ _ ( ( _ / / ) ) ^ E E E ^ # ",
"o  X@XH.G.H.H.;.;.;. .;.| | | [ [ ] ' ` ` ` _ ( ( / / / ) ) ^ ) ) ~ ~ W ^ E W E ^ E ^ E E ^ E E E ^ E E E E E E R R E @ ",
"O }..XT j f f j f j j a j j j j h j j h h j j h h j j h j h h h h h j h h h h h h h h h h h h h j h j h c h j c R E E % ",
"O }.OXY   $ $ % # $ % % % # . O + o O o O o # O o O % $ @ @ $ $ % @ $ O . O O O + + + O O O . @ % @ $ $ @ @ %   Y E E % ",
"+ K.OXh # a a a a a a t a q > 8 8 5 8 5 8 5 > 5 5 0 a a a f f t a t a 9 5 5 > 5 > > 8 > > > 5 p r f t t a a f @ U E E % ",
"O K.oXc @ p p q q q q q q 0 4 : > 5 > : > > 5 > 4 6 q q q q q q q q q 8 : 5 5 5 > > 5 5 > > 4 0 q q 0 q q q r O Y E E % ",
"O G.U.h @ q q q p q q q q 0 4 5 5 5 5 5 5 5 5 5 5 8 p q q q q q p q r 8 4 5 5 > 5 > 5 5 > > 4 0 q q r q q q r @ Y E E % ",
"+ 1.L.h O r q r q q q q q q 4 > 5 5 > 2 5 5 5 > 1 6 r q q q q 0 8 q r 8 : > 5 5 5 5 5 5 5 > 4 0 q q q q q q r $ U W E % ",
"+ 1.J.h @ r q q q q q r p 0 4 > > 5 5 > > > - 8 5 8 r r q 9 g v v r 9 8 4 > 5 5 5 > 5 > 5 5 4 0 r q q q q q r o U W E % ",
"+ 1.J.h @ r q q q q q q p q 4 5 5 5 5 5 5 5 5 5 4 6 a 9 a ' D.-.+.O.v 2 > 5 > > > 5 5 5 5 > 4 q r q r q q q r @ U E E % ",
"+ ,.J.h o r q q q r q q q q 4 > > 5 > 5 5 5 5 > 5 8 8 M A.`.(.^.I.+.o.r 4 > > 5 5 5 > 5 5 5 4 0 q q q q q q r $ U E E % ",
"+ ,.,.h + r q q q q q q r 9 4 5 2 > 5 5 - > 8 5 4 2 5.(.).^.^.(.(.Z.+.Q 4 > 4 5 > 5 5 5 5 > 4 0 r q q r q q r o Y E E % ",
"+ -.,.k @ q q q r q q q p 9 4 > 5 5 > 5 > 5 > > , 5.).^./.^.^.^.^./.*.! = 5 5 5 4 > 5 > 5 5 4 0 r q q q q q r @ Y E E % ",
"+ -.=.k @ r q q q q q q p 0 : > 8 5 5 2 5 5 5 1 5.).W.Q.Q.(.^.^.^.^.F.B = > 5 5 5 > 5 5 5 > 4 q q q r q q 9 r @ Y E E % ",
"+ -.%.k @ r q q q q q r q q : > - 5 > > 5 5 * J !.W./.Q.Q.Q././.^.Q.*.0 4 > 5 5 5 5 5 > 5 > 4 0 q q q q q q r @ Y E E % ",
"+ -.%.h o r q r q q q q p 0 4 5 > 5 5 5 > , M !.Q.`./.Q.Q.Q.Q.Q.!.Z.g 5 5 5 5 5 5 5 5 > 5 5 4 0 r q q q q q r @ Y E W % ",
"+ -.$.k $ r q q q q q q q q 4 5 > 5 5 5 : p E.^.].W.T.Q.Q.R.W.R.Z.s e 6 4 > 5 5 5 5 5 5 > 5 4 0 q q q q q q q @ Y E W % ",
"X =.%.k @ r q q q q q q p 9 4 5 5 5 2 5 1 g.).#XW.T.Q.Q.T.Q.R.C.f q a 5 4 > > 5 5 5 5 > > 5 4 q r q q r q q r @ Y E E @ ",
"+ -.O.h @ r q q q a q q p q 4 > 5 5 > 1 4.!.&X`.T.T.T.T.T.R.Z.t 0 p p 8 1 5 5 5 5 > 5 5 5 > 4 0 r q q q q q r @ Y E W % ",
"+ =.O.h @ r q q q q q q p 0 4 5 5 8 1 l R.*X{.M.T.T.T.T.T.V.c 9 a q r 8 : 5 2 5 > 5 > 5 5 5 4 0 q q r q q q r @ Y E E @ ",
"+ =.{ h @ r 9 q q q q q p 0 4 5 5 - 5 z.=X*XY.T.T.Y.T.T.B.V 9 r q q q 8 > > > 5 5 5 5 5 5 > 4 q q q q q q q r @ Y E W % ",
"+ =.{ k @ r q q q q r q q q 1 5 8 1 A %X,XQ.Y.E.E.T.E.T.L 0 e q q q p 8 : 5 - 5 > 4 > 5 5 5 1 0 r q q q q q p @ Y E E @ ",
"+ %.{ k @ r q q r q q q p 0 4 5 = 7 ~.<X%Xm.T.Y.Y.Y.Y.u.r q q p p q q 8 : > 5 5 5 5 5 > > 5 4 0 9 q q r e e p @ Y E W % ",
"# =.} h @ q q q q q q a q q 4 6 , 3.,X,XY.Y.Y.Y.E.Y.V.B 8 0 0 0 0 e q 8 5 > 5 > 5 5 5 5 5 5 4 q r q q q q q r o Y E E % ",
"+ %.{ c @ a q q q q q q q q 5 2 u {.6X].M.M.Y.M.Y.Y.H 0 s v m B v d a 6 * > > > 5 > > > 4 5 4 q q r q q r 9 r $ Y E E @ ",
"+ %.} h @ r q q q q q q p 0 5 , 3.3X,XM.Y.M.Y.Y.M.i.G ..y.d.u.e.r.X.@.G B q = > 5 5 5 5 5 5 4 0 r q q r q q r @ Y E E % ",
"+ =.} c @ r q q q q r q q 0 4 7 [.7X[.M.M.E.M.E.n.k.M.Y.M.Y.M.m.m.l.a.y.*.&.F r * 5 5 > 5 5 4 0 q q q q q q r @ Y E E % ",
"@ o.] c @ r q q q q q q q q < C <X2Xm.N.Y.M.Y.Y.m.Y.m.Y.M.M.Y.M.Y.Y.Y.M.j.u.*.&.N = 5 5 5 > 4 0 q q q q q q r o Y E E % ",
"@ o.( U @ r q q p e q q q 0 & 7.7X&Xm.m.M.E.M.m.M.E.M.E.M.M.E.m.m.E.M.E.B.Y.k.*.*.F = 5 > 5 5 0 r q r q q q t % Y E E % ",
"@ +.` U o r q q q q q q q 0 7 [.8XQ.m.M.M.m.Y.m.E.M.m.E.M.m.m.Y.M.M.Y.E.m.m.Y.b.X.*.v = > > 1 0 q q q q q q q @ Y E E % ",
"+ %.( U @ r q q q q q q a w z :X5Xm.E.M.Y.m.m.Y.m.M.M.M.M.M.M.m.m.M.m.M.M.M.M.M.l.#...0 5 5 4 9 r q q q q q r @ Y E E % ",
"@ $._ k @ r q q e r q q a 6 Z 3X;Xm.B.M.m.M.M.M.M.M.M.M.m.m.N.'.^.M.M.M.M.M.M.M.Y.u.*.N = > > 0 r 9 r q q q a @ c E E % ",
"@ $._ Y @ r q q e q q e t w 3.4X$Xn.M.M.m.M.M.m.M.M.m.Y.Y.Y.`.=X-X;X'.m.M.M.M.m.M.b.X.' > > 4 q q q q q q q t o n E E % ",
"# O._ k @ r q q q r q r q 8 9.1X~.n.M.m.M.M.m.M.m.Y.M.z.2.S A 3.l.%X>X].m.m.M.m.m.Y.e.&.q > 4 0 r q q q r 9 r @ U E E % ",
"@ O./ U o r q q q q q 0 p q 0.,XB.M.M.M.M.m.M.m.Y.h.M 9 w w w w q I {.-XB.M.M.M.m.M.k.#.d : 4 q q r q q q q r @ Y E E % ",
"@ $./ U @ r q q q q q r q 0 f.%Xm.M.n.m.M.m.n.M.7.8 9 p q p p r q 8 8.=X[.b.B.m.M.M.j.*.b = 4 q q q q q q q r @ Y E E @ ",
"# O.) Y @ r q q q q r q r 9 h.Q.m.m.M.m.n.M.M.l.r 5 a q p e q q q 9 C ].$Xn.n.M.m.M.j.D.m 1 5 0 r q r q q q r @ Y E E % ",
"@ O.) Y @ r q q e q q q a 0 9.M.m.n.m.n.m.M.c.u.q 8 r q q q q r p 0 l m.S.m.n.n.m.M.b.t.b 1 4 q q q q q q q r @ Y E E % ",
"@ { ^ Y @ r q q q q q q q 6 6.Y.n.m.n.m.n.M.k.s.l 4 a q q q q p q 9 d b.m.m.M.M.n.M.b.D.x : 4 0 r q q q q q r @ Y E E % ",
"# { ~ n @ r q q r q q q a 6 D Y.b.m.n.n.m.m.x.s.w.q 0 a p q e e q 9 b M.m.n.m.m.n.M.l.X.r > : 0 r q q q q q r @ Y E E % ",
"@ { ~ n @ a q q q q q q f 8 i M.n.M.m.m.M.n.m.k.a.w.d 0 e q r p r 6 I Y.n.m.n.m.m.M.k...> 5 1 q q r q q q q t o Y E E % ",
"@ { ! n @ r q q q q q q q e 4 h.M.n.b.n.n.m.n.m.k.a.u.F s q 0 0 9 x j.M.n.m.n.n.n.b.k.F 1 > : 0 q q q q q q r @ Y E E % ",
"# ' E n O r 9 q q r q q q q < D Y.b.m.m.n.n.n.m.m.j.a.a.u.q.L K q.b.m.b.m.n.m.b.n.m.d.d 4 5 4 q r q q q r 9 r @ Y E E % ",
"@ } ^ n @ r q q q q q q a 0 1 0 j.n.b.b.b.n.n.b.n.m.n.j.l.c.c.n.n.m.n.n.b.b.b.n.b.V.L - > 5 5 0 q q q q e q r @ Y E E @ ",
"# } E Y @ r q q q q q p q q 4 = C M.b.b.n.b.b.b.n.n.n.n.n.x.n.b.b.b.n.b.b.b.n.b.n.k.s 5 > 5 > 0 r q q r q q r @ Y E W % ",
"@ ] E Y + a q q q q q q p 0 1 8 1 6.M.b.b.b.n.b.n.x.n.b.n.n.n.n.n.b.b.n.n.b.n.n.n.F 1 > 5 5 2 0 q q q q q q p @ Y E E @ ",
"% ] E Y O a q q p q p q p 0 4 > > 8 0.M.b.n.b.n.n.b.n.n.n.x.n.n.n.b.n.n.n.n.b.M.P 5 5 5 5 5 4 0 r q q q q q e @ Y W ^ % ",
"% _ E n + q q q q q q q r 9 4 5 > 1 0 0.M.n.n.n.n.n.n.n.n.n.n.n.x.n.n.x.n.n.n.S 1 5 5 5 5 5 4 0 q q r q q q r @ Y E E % ",
"@ ( E n @ a q p q r q q q q 4 5 5 5 2 5 I M.n.x.x.n.n.x.x.n.x.n.b.x.b.n.M.x.z 1 5 > 5 5 > 5 4 0 r q q q q q r $ Y E E @ ",
"% ( E n @ r q q q q q q p q : 5 > > 5 > = l 8.n.n.M.n.n.n.x.n.x.n.M.M.j.I q 1 6 5 5 5 > 5 5 4 0 q q q q q q r o Y E E % ",
"@ _ E n @ r q q q q q q p 0 : > 5 > > 5 > 1 - d S 8.x.n.n.n.n.j.p.6.F q * 2 5 2 5 > 5 5 5 > 4 q r e r q q q a @ Y E E % ",
"@ ) E Y @ r q q q q q q q 9 : 5 > > > > 5 5 5 1 , 5 s x b b x s q 8 9 > > > > 5 5 5 5 5 > 5 4 0 q q q q q q t @ Y E E % ",
"% ~ E Y @ r r 0 q q q q q 0 4 > 5 > > > 5 5 5 > : 8 q 0 0 0 0 0 q p p 8 - > 5 5 > 5 5 5 5 5 4 0 q q q 9 q q r + Y E E % ",
"% E E Y @ a r r a r r r a q 4 8 5 5 5 8 5 5 8 8 5 8 a t t a a a r q r 9 5 8 5 5 5 5 > 5 5 5 5 q a a r a r r a @ Y E E % ",
"% E R v . @ @ $ # $ @ @ @ % X O + + @ + + . o o + # $ # # @ @ @ % @ @ . X O o + + + + + O # + @ # @ % @ $ % $   Y E E % ",
"$ E E R n n n n c U n c Y Y n U Y Y Y Y Y Y Y Y Y Y n n Y Y U n c c c U Y Y Y Y Y Y Y Y Y Y Y Y c c c c n c n T E E R @ ",
"@ E R R E E E E E E E E E E E E E E E E E E E E E E E E E E E E E E E E E E E E E E E E E E E E E E E E E E E E R R W % ",
"% E E E E E E E E E E E E E E E E E E E E E E E E E E E E E E E E E E E E E E E E E E E E E E E E E E E E E E R E E ^ % ",
"  * & & & & & & & & & & & & & & & & & & & & & & & & & & & & & & & & & * & & & & & & & & & & & * & & & & & & & & & & &   "
};
