/* XPM */
static char *result[] = {
/* columns rows colors chars-per-pixel */
"60 60 208 2 ",
"   c #2A1804",
".  c #3E2407",
"X  c #3E2409",
"o  c #382509",
"O  c #41250A",
"+  c #45280C",
"@  c #4E2C0E",
"#  c #492808",
"$  c #532E0E",
"%  c #56310F",
"&  c #5A330F",
"*  c #4E2D11",
"=  c #532D11",
"-  c #592F13",
";  c #4F3011",
":  c #543111",
">  c #5B3310",
",  c #5F3914",
"<  c #5F3318",
"1  c #61360F",
"2  c #673F0E",
"3  c #633613",
"4  c #683716",
"5  c #653914",
"6  c #6D3D15",
"7  c #6C3E19",
"8  c #643519",
"9  c #713E15",
"0  c #4C3E2C",
"q  c #4A3A25",
"w  c #513E2D",
"e  c #6A410F",
"r  c #73470C",
"t  c #75480D",
"y  c #6D4015",
"u  c #6E4319",
"i  c #664011",
"p  c #724215",
"a  c #7B4515",
"s  c #774913",
"d  c #7C4A14",
"f  c #72441A",
"g  c #7A491D",
"h  c #79461B",
"j  c #7F5115",
"k  c #4D402D",
"l  c #52412D",
"z  c #534230",
"x  c #64584A",
"c  c #8C5A0B",
"v  c #925F03",
"b  c #834C15",
"n  c #894F1D",
"m  c #874D1B",
"M  c #8E531D",
"N  c #875515",
"B  c #9C591D",
"V  c #955818",
"C  c #A45C1D",
"Z  c #A95D1E",
"A  c #9C660C",
"S  c #9C700D",
"D  c #9B6212",
"F  c #A16D0B",
"G  c #B57909",
"H  c #AC6719",
"J  c #AF6A1A",
"K  c #A56D13",
"L  c #B0611F",
"P  c #B36C1C",
"I  c #B26F16",
"U  c #A67511",
"Y  c #BD7B13",
"T  c #BB731A",
"R  c #B77518",
"E  c #8E5623",
"W  c #925723",
"Q  c #945925",
"!  c #9B5D26",
"~  c #9D5E28",
"^  c #A15E25",
"/  c #AA5E20",
"(  c #9E6027",
")  c #9D6029",
"_  c #A46127",
"`  c #AC6224",
"'  c #A36129",
"]  c #AB6429",
"[  c #A96B2E",
"{  c #B36423",
"}  c #B46925",
"|  c #B1672A",
" . c #B46A2B",
".. c #BB6C2A",
"X. c #BF702E",
"o. c #AE7132",
"O. c #B27131",
"+. c #C17D12",
"@. c #CD7A1E",
"#. c #C56F2B",
"$. c #C07123",
"%. c #CB7426",
"&. c #CD7820",
"*. c #C3722D",
"=. c #CC722B",
"-. c #D37C23",
";. c #D4762B",
":. c #DD7B2D",
">. c #CA7732",
",. c #CD7B33",
"<. c #CB7A34",
"1. c #D17F36",
"2. c #E07F30",
"3. c #BD840A",
"4. c #CC9102",
"5. c #CB9109",
"6. c #D39906",
"7. c #CB8416",
"8. c #DD8D15",
"9. c #D5831D",
"0. c #DB8C1B",
"q. c #D8881B",
"w. c #DD9715",
"e. c #CB9D16",
"r. c #E49C0E",
"t. c #E08F1A",
"y. c #E59D11",
"u. c #E49617",
"i. c #E3A101",
"p. c #EAA504",
"a. c #ECAC04",
"s. c #E5A10E",
"d. c #EDA60C",
"f. c #ECA90C",
"g. c #E2AE0C",
"h. c #F4AE01",
"j. c #F6AE09",
"k. c #EFBA0C",
"l. c #F6B401",
"z. c #F9B501",
"x. c #F6BA01",
"c. c #FABC01",
"v. c #F4B30D",
"b. c #F2BD0C",
"n. c #FBBF0F",
"m. c #ECA412",
"M. c #EEAC15",
"N. c #E4A715",
"B. c #F2AE13",
"V. c #F0AD18",
"C. c #F4B314",
"Z. c #F5BB15",
"A. c #F8BA19",
"S. c #D98320",
"D. c #D4843A",
"F. c #D6853B",
"G. c #E38335",
"H. c #E18B3B",
"J. c #E38638",
"K. c #F7BF2A",
"L. c #FBC203",
"P. c #FFCA02",
"I. c #FAC40D",
"U. c #F7C30E",
"Y. c #FFD20D",
"T. c #FAC412",
"R. c #FAC61A",
"E. c #FBC91B",
"W. c #FAC613",
"Q. c #FFD31A",
"!. c #FBCA23",
"~. c #F9C42C",
"^. c #FBCC2C",
"/. c #F7C523",
"(. c #FFD227",
"). c #FDCD32",
"_. c #FACA39",
"`. c #FDD135",
"'. c #FCD33C",
"]. c #D48B41",
"[. c #DD8B41",
"{. c #DE9246",
"}. c #E18E43",
"|. c #E1954A",
" X c #E2964A",
".X c #E69E52",
"XX c #F8AC5E",
"oX c #FDD444",
"OX c #FDD54B",
"+X c #F8CF58",
"@X c #FCD55B",
"#X c #F8D557",
"$X c #FDD564",
"%X c #FDDA6B",
"&X c #F9D671",
"*X c #FCDE7C",
"=X c #FBDB74",
"-X c #FFE274",
";X c #FADC84",
":X c #FCE189",
">X c #FBE295",
",X c #FAE29A",
"<X c #FCE8A3",
"1X c #FBE7AD",
"2X c #FCE8A7",
"3X c #FFEEB3",
"4X c #FDEDC6",
"5X c #FFF1D0",
/* pixels */
"0 0 0 0 q 0 q 0 0 0 q 0 0 q q 0 0 0 0 0 0 0 0 0 0 0 0 0 0 0 0 0 0 0 0 0 0 0 0 0 0 w 0 0 0 w l w l w l l l l l l l l q x ",
"# [ o.o.o.O.O. .O. . . . . .} } | } } ] } | { { { ` { { ` { Z ` L H ` Z / / C / ^ ^ C C ^ B Q B B Q M M M M M M M M a q ",
"= .XXX{. X|.{.{.[.[.F.D.D.,.D.,.,.,.*.*.*.*.*......... . . . .| [ ] ] ] ' ] ' ' ' ^ ) ^ ' ~ ~ ~ ~ ~ ! ~ ~ ! ~ ~ ! ~ M k ",
"@ {.].E Q M E E E M E E M E E E E E E E E E E W E E E E W E E W Q E W E Q Q Q Q Q Q Q Q Q Q Q Q V Q Q Q W ! Q Q Q ! m 0 ",
"@ |.].g o O O X O O O O O X X X X X O X O X O X . O O O O X X O + . + X X . . O X X . . X o o O + O + O O O . # Q ~ M l ",
"@ |.].y X 6 5 6 5 5 5 6 6 , $ % : > $ & & : % % $ , 6 5 5 6 5 6 5 5 6 % $ % : : % > & & & $ $ 4 5 5 5 5 5 6 3 . Q ! n 0 ",
"@ }.D.y + p 6 6 6 y p 6 6 5 % > , & , & > & & 3 % 5 9 9 y y y y 6 6 f > & > > & & & , & & > > 9 y y y 6 6 p 5 X Q ! M q ",
"@ }.D.y O 9 6 6 6 6 6 6 7 5 = > & > & & , & > > : 5 9 6 7 6 9 6 6 6 6 > & , , & & & & & > & > 6 6 6 6 6 6 6 5 X Q ! M k ",
"* H.D.y O p 6 6 6 6 6 6 p 5 = > , & $ $ % % % = = , 6 6 6 6 5 5 6 5 6 - = : % : $ $ = > = * * 6 6 9 6 6 6 9 5 . Q ! M 0 ",
"@ H.<.u O 9 6 6 6 6 6 6 6 5 > > @ > b C L H P P J P P T P T T Y T Y +.Y Y Y Y Y Y 7.+.+.3.Y d , y 6 6 6 9 6 5 O Q ~ n 0 ",
"@ H.<.u O 9 6 6 6 6 6 6 6 5 = , K w.C.V.B.V.M.B.C.B.B.C.C.C.C.C.C.Z.C.C.A.A.A.A.Z.Z.A.C.m.d.f.D 5 6 y 6 6 6 5 . Q ! n 0 ",
"* H.<.y O 9 6 6 6 6 6 7 9 3 5 N.(.(.).`.'.'.oXOXOXOXoXoXoXoX'.`.).).^.^.!.!.R.R.E.E.E.E.Z.r.m.s.d 6 6 6 6 6 5 X Q ~ n 0 ",
"@ G.*.u X p 6 6 6 6 6 9 p > e.Q./.#X*X>X<X<X2X2X<X<X,X:X;X-X=X&X$X@XOXoX_.).~.E.R.R.R.R.R.C.r.f.D 4 9 6 6 y 5 . Q ~ n w ",
"* G.*.u O f 6 6 7 6 6 6 6 j W.R.W.U.L.I.I.T.T.R.R.!.E.R.R.R.R.R.R.W.W.T.T.W.W.W.T.W.W.W.T.T.s.m.D 4 6 6 6 6 6 . Q ~ n 0 ",
"; G.#.u O 9 6 6 6 6 7 6 3 N W.W.T.T.W.R.T.T.T.T.I.T.W.W.T.T.W.W.I.T.W.W.W.T.T.T.T.T.W.T.T.T.s.r.d 5 6 6 6 6 5 . Q ! n k ",
"; F...p O f 6 6 6 6 6 6 6 p U.W.U.T.T.U.T.T.n.I.T.T.W.I.T.T.U.W.T.T.T.T.I.W.T.T.T.T.T.T.W.b.m.K 4 6 6 6 6 y 5 O Q ~ n 0 ",
"= 2...u O 9 6 6 6 6 6 6 p - K Y.W.I.W.I.I.I.I.I.W.I.I.I.I.I.I.I.I.I.I.W.I.I.U.I.I.I.I.U.U.B.K 4 6 6 6 6 6 6 4 X Q ! M 0 ",
"* 2...u O 9 6 6 7 6 6 6 6 5 @ S g.b.b.b.b.b.b.b.U.U.b.b.b.b.U.U.b.b.I.I.I.I.I.I.I.T.I.I.v.G $ 9 6 6 6 6 6 9 5 . Q ! n k ",
"* :...u O 9 5 9 6 6 6 6 6 5 % $ & 6 y i 2 e y 2 2 p d b s a d d y U P.I.L.I.L.L.L.U.L.C.7., : 6 6 6 6 6 6 6 5 . Q ! n 0 ",
"; :. .f O f 6 6 6 6 6 6 6 5 = , & & $ & % % % % * 3 5 5 6 6 6 5 s b.L.U.L.I.c.U.I.L.v.w.p = > 6 6 6 6 6 6 p 5 . Q ~ n w ",
"; :. .f X 9 6 6 6 6 6 6 6 4 $ & & & , & & & 3 & = 5 y 6 6 6 6 6 6.P.L.L.L.L.L.L.L.x.m.V * & : 7 6 6 6 6 6 6 5 . Q ~ n 0 ",
"; :. .f O f 6 6 6 6 6 6 6 5 = , & & > > & & & > : 5 6 6 6 6 8 S P.c.L.L.L.L.L.L.x.m.Y % & & > 6 6 6 6 6 6 6 2 O Q ! n 0 ",
"* :. .u O 9 6 6 6 7 6 7 9 4 $ & > > > > & > & & : 5 p 6 y 6 p l.L.L.L.L.L.c.L.L.f.8.y : , & > 6 6 6 6 6 6 p 5 . Q ! n w ",
"* :. .u O p 5 6 6 6 6 6 9 5 $ & > > & > > > > > : 6 6 6 y 8 3.P.x.L.L.x.L.c.c.x.u.D : & & % : y 6 6 6 6 6 9 5 . Q ! n k ",
"; :.] f O f 5 9 6 6 6 6 9 4 $ , & > & > > > > > = 5 9 6 6 b c.L.c.L.L.L.x.L.c.y.7., > > & % > 6 6 6 6 6 6 6 5 O Q ! M 0 ",
"* :.[ u O f 6 6 6 6 6 6 6 3 = > 3 > > > & & > & : 5 6 6 8 5.L.U.c.L.L.x.L.L.a.0.b = > > > & - 7 6 6 6 6 6 9 5 . Q ~ n 0 ",
"; :.] u X p 6 6 6 6 6 6 9 5 : , & & > & > > > > : 5 6 4 c L.I.R.L.c.x.c.x.x.u.R $ , > > > > : 6 6 6 6 6 6 9 5 O Q ! n 0 ",
": ;.] u O 9 6 6 6 6 6 6 6 5 : > & > > > & > & > : 5 f 4 5.L.~.n.x.x.L.x.L.s.0.t $ & > > > > > 6 6 6 6 6 6 6 5 . Q ! n 0 ",
": ;.] f X f 6 6 6 6 6 6 6 4 $ , > > > > > > > > > 5 6 d x.R._.c.c.x.L.c.z.t.I $ & > , & > > % 6 6 9 6 6 6 y 5 O Q ~ n l ",
": ;.' g X 9 6 6 6 6 6 6 9 5 $ & > & > & & > & > : 5 8 3.L.#X/.c.c.x.c.L.y.9.a = & > & - & > : 7 6 6 6 6 6 6 5 . Q ! n 0 ",
": ;._ f O 9 6 6 6 6 6 6 6 5 - & > & > > & > & > = 5 a a.^.$Xc.x.c.c.L.l.0.I % 1 & & 1 % > & > 6 6 6 6 6 6 6 2 . Q ! n l ",
": =.' f X 9 6 6 6 6 6 6 6 4 $ > > > > & > > > & % < F L.&X_.x.x.c.x.x.y.S.b % > > & - > & > = 6 6 6 6 6 6 6 4 . Q ! n 0 ",
"; ;.) f X f 6 6 6 6 6 6 9 3 = & & > > % & & & 3 : 8 4.`.;Xn.x.x.c.c.z.0.T & & > , & > > > > > 6 6 6 9 6 6 6 5 O Q ! n w ",
"% =.' f O 9 5 9 6 6 6 6 9 4 $ , > & & 3 > > > > = s z.*X$Xz.x.x.c.c.y.9.V = & & & & & > & > : 6 6 6 6 6 6 6 5 . Q ! M 0 ",
"% =.' g O 9 6 6 6 6 6 6 6 3 % & > - > > & & > > @ F !.<X~.c.c.x.x.x.8.@.5 & & - > > > > > > > 6 6 6 6 6 6 6 5 . Q ! n 0 ",
"% >.) u X 9 6 6 6 6 6 6 9 5 : > > > & > > > > 1 = 4.%X,Xx.c.z.x.c.f.9.H $ & & > > & > & > > : 6 6 6 6 6 6 9 5 O Q ! n 0 ",
": %.) f X f 6 6 6 6 6 6 6 5 : > > & > > > > > = 2 l.3X$Xz.l.z.x.c.u.-.d = & & & & > > > > > : 6 6 6 6 6 6 6 5 . Q ~ n 0 ",
"% *.) g X f 6 6 6 6 6 6 9 5 $ , > & > > > > > = v ).4X/.l.z.x.x.l.9.@.5 & , & & > > & > > > > 6 6 6 6 6 6 9 5 . Q ! n 0 ",
"% $.) f X 9 6 6 6 6 6 6 6 5 = & > > - > - > > - 3.-X1Xl.x.c.z.c.p.-.P - & & : , > > > > > > : 7 6 6 6 6 6 9 5 O Q ! n l ",
": *.~ f O f 6 6 6 6 6 6 9 3 $ , > & > > > > & > i.3X&Xl.c.l.l.c.w.-.B = & & > > > & > > > > > 6 6 6 6 6 6 y 5 . Q ~ n 0 ",
"% X.~ g O f 6 6 6 6 6 6 9 3 = > 3 & & > & > = t Z.5X~.z.z.z.x.z.9.@.b > & > > > > > > > & > = 6 6 6 9 6 6 6 5 O Q ! n k ",
"% ..~ f O 9 5 6 6 6 6 6 9 4 : > > > > > % 3 $ v ).4Xl.z.x.l.x.h.@...9 > - & > & > & > & > > > 6 6 6 6 6 6 6 5 . Q ~ n 0 ",
": X.~ f O 9 6 6 6 6 6 6 6 3 : > & > 3 & & 3 = G @X>Xh.l.z.l.z.y.%.P 6 > - > > > > > > > > > > 6 6 6 6 6 6 6 5 . Q ~ m 0 ",
"% ..~ f O 9 6 6 6 6 6 6 6 5 $ , > % & & & > = 4.%X+Xz.l.z.l.z.8.-.B 5 - % > > > & > & > > > = 6 6 6 6 6 6 9 5 O Q ~ M w ",
"%  .( f X 9 6 6 6 6 6 6 9 5 = > & & > & > & 1 p.$XK.h.z.z.z.l.@.%.n 5 3 & > > > > > > > > > : 6 6 6 6 6 6 6 5 . Q ! n 0 ",
"%  .( g O 9 6 6 6 6 6 6 9 5 $ , > > 1 - > % t h._.v.z.z.z.z.h.&.%.a 6 > $ & > & & > > > > > > 6 6 6 6 6 6 9 5 . Q ~ M 0 ",
":  .( u X f 6 6 6 6 6 6 6 3 % & > > & > > = c z.h.z.z.h.z.z.p.%.$.6 6 > & & & > > > > > > > > 6 6 6 6 6 6 9 5 O Q ! n 0 ",
": | ( f . f 6 6 6 6 6 6 9 5 : > > - > > > = F c.h.z.z.h.h.z.r.%.P 6 9 < - & & > > & > > > > : 6 6 6 6 6 6 y 5 . Q ~ n 0 ",
":  .( u . p 6 6 6 6 6 6 7 4 : > > & > > & = c c.h.z.h.h.h.z.u.%.m 4 9 & & > > > > > & & > > > 6 6 6 6 6 7 6 5 . Q ! n 0 ",
": ] ( g X f 6 y 6 6 6 6 6 3 % > > > > > & > 1 r.z.h.z.h.z.z.$.m 6 6 6 < : > & & > & > > & > = 6 6 6 6 6 6 9 5 . Q ~ n 0 ",
": ] ( f X f 6 6 6 6 6 6 9 4 : > > > > > > & $ t p.c.z.c.p.C 6 5 6 6 9 > % > > > > > > & > > : 6 6 6 6 6 6 9 4 X Q ! M 0 ",
": ] ( u . u 6 6 6 6 6 6 6 5 $ > > > > & 1 & & % 3 A G A 9 4 6 y 6 6 6 > & % 3 > & > > & & > > 6 7 6 6 6 6 9 5 . Q ! n k ",
"> ' ~ g X 9 6 6 6 6 6 6 6 3 : & > > & & > & > 3 = - 8 4 6 6 6 6 6 6 9 > - & & > > > & & > > > 6 6 6 6 6 7 6 5 . Q ! M 0 ",
": ' ~ f . 9 6 6 6 6 6 6 6 5 % & > > > % > > > > : 4 6 y 6 6 6 6 5 6 6 > & & > & & & , & > % > 6 6 6 6 6 6 6 5 . Q ~ m 0 ",
": ' ! f O f 9 9 9 9 p f p 6 > 5 3 3 1 3 3 1 3 3 < 6 p 9 f 9 p u f 9 p 3 > 1 & 3 3 & 1 3 3 & , 6 9 9 9 f 9 9 9 O Q ! n k ",
": ~ ^ h   $ @ $ @ @ @ @ @ + o + O O X O O O O . X + $ @ @ @ @ @ @ * @ O O O O O O O O O O O X @ * @ @ @ = $ O o Q ! n k ",
": ( Q E , , , , , , , , 5 , , 5 3 5 , , , , , , , , , , , , , , 3 , , , , , , , , 5 , , , , , , 3 , , , , 5 , y ! ! n k ",
"; ( Q Q ( ( ( ( ( ( ( ( ) ) ) ) ~ ~ ( ) ( ) ) ) ( ( ( ) ) ) ( ( ( ( ( ( ( ) ) ) ) ) ) ) ( ) ) ) ~ ~ ~ ( ( ) ) ' Q ! m k ",
": ' ( ( ) ( Q ( ( ) Q ( ) Q ! ) Q ( ! ! ) ) ( ) ( ( ( Q ) ! ( ) ! ! ! ! ) ( Q ( ( ( ( ( ) ( Q ) ! ! ! ! ) Q ( ( ! ( E 0 ",
"+ g f u u f f f u f f u f f u u f f f f f u u f u f f f f u u f u f f f f f f f u f f u f f f u f f f f f u u f u g 6 0 "
};
