/* XPM */
static char *result[] = {
/* columns rows colors chars-per-pixel */
"60 60 214 2 ",
"   c #2A1905",
".  c #361F05",
"X  c #3A1F06",
"o  c #301B08",
"O  c #3B2207",
"+  c #37230C",
"@  c #3C240A",
"#  c #3B260B",
"$  c #3E2A13",
"%  c #3E2F1B",
"&  c #422507",
"*  c #422509",
"=  c #4D290E",
"-  c #44280B",
";  c #542D0E",
":  c #542D0A",
">  c #53320F",
",  c #5B330F",
"<  c #5E3403",
"1  c #4A2712",
"2  c #412B13",
"3  c #4C2A12",
"4  c #412E18",
"5  c #532D11",
"6  c #582F12",
"7  c #44311A",
"8  c #49321B",
"9  c #563111",
"0  c #5B3411",
"q  c #5F3811",
"w  c #6B3F04",
"e  c #64390A",
"r  c #623513",
"t  c #683716",
"y  c #653914",
"u  c #6D3D15",
"i  c #623418",
"p  c #6C3B19",
"a  c #713E16",
"s  c #753D18",
"d  c #7D4D0E",
"f  c #754808",
"g  c #7D500D",
"h  c #6F4015",
"j  c #734215",
"k  c #74451A",
"l  c #794519",
"z  c #794816",
"x  c #8B5A0D",
"c  c #895804",
"v  c #824D15",
"b  c #844D1E",
"n  c #874B1B",
"m  c #835114",
"M  c #8D5614",
"N  c #8E5C14",
"B  c #84511F",
"V  c #88511D",
"C  c #935A13",
"Z  c #935919",
"A  c #995C17",
"S  c #9C660D",
"D  c #9C690A",
"F  c #9C6512",
"G  c #A66D0B",
"H  c #AA730D",
"J  c #AA7704",
"K  c #B57D08",
"L  c #A86A15",
"P  c #AA7512",
"I  c #B87913",
"U  c #B4671F",
"Y  c #824F20",
"T  c #865122",
"R  c #8B5422",
"E  c #8F5822",
"W  c #965A24",
"Q  c #9B5E26",
"!  c #9D5E28",
"~  c #915421",
"^  c #A25F25",
"/  c #A8542A",
"(  c #BC5D2F",
")  c #B95B30",
"_  c #B75731",
"`  c #9D6127",
"'  c #A46126",
"]  c #AC6325",
"[  c #A36329",
"{  c #AA6429",
"}  c #AC6C2F",
"|  c #B46524",
" . c #B76826",
".. c #BB6A26",
"X. c #B16729",
"o. c #B56A2A",
"O. c #BB6C2A",
"+. c #B96329",
"@. c #BF702D",
"#. c #CB7E1B",
"$. c #C67C19",
"%. c #D17E1F",
"&. c #C36D26",
"*. c #C36E29",
"=. c #C0652E",
"-. c #CD7922",
";. c #C4722C",
":. c #CA722B",
">. c #CA782F",
",. c #CD7723",
"<. c #D27B26",
"1. c #C77633",
"2. c #C67A35",
"3. c #CA7C35",
"4. c #C47F39",
"5. c #C97E39",
"6. c #C87735",
"7. c #D67B31",
"8. c #D97F33",
"9. c #BD8209",
"0. c #B88506",
"q. c #B98A14",
"w. c #C18604",
"e. c #C78B07",
"r. c #CE9708",
"t. c #DA9B04",
"y. c #D69905",
"u. c #C38112",
"i. c #CB821A",
"p. c #D4841C",
"a. c #D9861D",
"s. c #D6891A",
"d. c #DC8B1C",
"f. c #D88D16",
"g. c #C69411",
"h. c #DC9513",
"j. c #D99218",
"k. c #E49E0E",
"l. c #E29712",
"z. c #E39C11",
"x. c #E89D18",
"c. c #DCA50B",
"v. c #D2A11E",
"b. c #E2A602",
"n. c #E5A30D",
"m. c #EAA40D",
"M. c #E9AA06",
"N. c #F3AE02",
"B. c #F3A80C",
"V. c #E9B004",
"C. c #F6B301",
"Z. c #F9B401",
"A. c #F7BA01",
"S. c #FABC01",
"D. c #F5BE0B",
"F. c #FABA0A",
"G. c #ECA412",
"H. c #E8A717",
"J. c #F1A711",
"K. c #F4BC13",
"L. c #F5BB19",
"P. c #F3B21B",
"I. c #C6813B",
"U. c #CF8139",
"Y. c #D88338",
"T. c #E2883A",
"R. c #D1A42F",
"E. c #CCA035",
"W. c #E0B228",
"Q. c #FBC203",
"!. c #FFC801",
"~. c #F7C20B",
"^. c #FAC30C",
"/. c #FFC90E",
"(. c #FAC513",
"). c #FDCB12",
"_. c #F6C21C",
"`. c #FAC61A",
"'. c #FCCA1C",
"]. c #F7C413",
"[. c #F8C325",
"{. c #EBC03E",
"}. c #F8C932",
"|. c #FFD237",
" X c #FFD527",
".X c #C88542",
"XX c #D88C44",
"oX c #DB9248",
"OX c #E38D42",
"+X c #E59444",
"@X c #E6994A",
"#X c #FAAF5C",
"$X c #E9BF47",
"%X c #E8C04E",
"&X c #F9CC48",
"*X c #FFDA55",
"=X c #F9D25D",
"-X c #FEE15D",
";X c #EECE69",
":X c #FDDB6F",
">X c #F9D66C",
",X c #F7DA74",
"<X c #FFE66F",
"1X c #FBDE82",
"2X c #FFE682",
"3X c #FDE69B",
"4X c #FFF2A5",
"5X c #FEEEBA",
"6X c #FFF4B6",
"7X c #FEF7C0",
"8X c #FEF6D3",
"9X c #FFFCDC",
"0X c #FFFED2",
"qX c #FDFFED",
/* pixels */
"% 4 $ $ 4 4 4 % $ $ 4 % $ % $ 4 % 7 $ % 4 4 7 % 7 7 7 7 % 7 7 4 7 7 7 4 7 7 7 4 7 8 7 7 8 7 7 8 8 8 8 8 8 8 8 8 7 7 8 $ ",
"@ } .XI.4.4.4.6.4.4.6.6.1.1.1.1.:.;.;.;.;.;.*.*.*.&.&...&......... . . . .| |  .| ] ^ ] ' ' ' ^ ^ A A Q Q W W W W ~ Q : ",
"# .X#XoXoXoXXXXXY.Y.U.3.3.3.6.;.1.;.;.@.@.O.o.o.o.o.} X.X.{ { { [ { ' { ' ' ' ` ^ ' ^ ^ ! ! ` Q ^ ! ! Q Q Q W Q Q W ` 9 ",
"+ I.@XW R b b Y V Y R T T T T V T T T T T T T R T R R R R R R R R R R R R R R R R R ~ ~ W R R ~ R R V E R ~ ~ V W Q ` 9 ",
"# I.@XR X @ * @ @ * @ @ @ & O @ O O @ X O O X @ O O & @ O @ @ O @ @ @ # + X X X O O O O . O O @ $ @ # O & O @ o k ` ! 9 ",
"# I.+XV X u p a u u u a u u > 0 , 0 , , 0 9 , , 9 0 u u h u u h a u j r 5 , 0 0 0 9 , , , 9 5 r u u u u u u j O k ` ` 8 ",
"+ 5.+Xb O h u u u u u u a u 5 0 9 0 , , 0 , 0 0 9 r a u u u u y t y t 9 5 0 0 0 9 , 0 , 0 0 9 u a u u u u u s & k ` ` > ",
"+ 5.OXT O u a u u u u p u u 9 0 0 , 0 0 , 0 , 0 0 0 t t u l v M C Z C d y , 5 5 0 0 0 r 0 , 9 y u u u u u u j @ k Q ` > ",
"+ 3.T.Y @ j u u u u u u u t 6 , , 0 , 0 9 0 0 0 = r M L i.l.x.H.G.H.x.l.j.u.L f 5 9 0 , 0 , 9 y j u u u u u p & k ! ! 9 ",
"+ 3.T.Y O u u u u u u u u u 6 , 0 0 , 0 0 0 > r F j.P._.'.[.[.`.'.`.L.L.L.G.k.z.9.f 5 , , 0 9 y u u u u u u j @ k ! ` 9 ",
"+ >.T.b O u u u u u u u u u 6 , , 0 , 0 , 5 C H.[.'.'.'.`.'.'.'.'.`.`.'.'.`.L.G.G.G.F 9 0 0 9 y u u u u u u j @ k ! Q > ",
"+ >.Y.b @ h u u u u u u u u 9 0 , , , 6 , q.'.'.'.`.'.'.`.(.'.`.`.`.`.`.`.`.'.'.L.z.B.P 5 0 > y j u u u u u k & k ! ` > ",
"+ 1.8.T O u u u u u u u u u 6 , 0 r : w W. X~.(.`.(.`.`.`.`.(.`.(.(.).`.(.).`.`.(._.h.B.N ; , y u u u u u u j @ k ` Q > ",
"# >.8.T O u u u u u u u a t 6 0 0 6 e {.<XD.(.].(.].).`.(.`.(.(.`.(.(.`.(.].).(.(.(.K.n.h.e 5 t h u u u u u j @ k ` ` > ",
"+ >.7.l O h u u u u u u u u 5 0 , : R.4X`.^.(.(.].(.^.].].].].(.).].(.).(.].].].].~.).G.m.N 1 u u u u u u t j & k ` ` 9 ",
"+ >.7.b O h u u u u u u u u 6 0 5 c 4X>XQ.`.F.^.(.(.(.)./.).(.^.).).^.F.(.].).(.(.(.(.D.G.G 3 y h u u u u u j @ k ` ! 9 ",
"@ :.>.Y @ j u u u u u u u u 9 r : E.0X[.^.^.~.^.].^./.c.P N m m N P c./.~.].~.^.^.^.^.~.J.P 1 u u u u u u u k * k ! Q > ",
"# :.>.Y O u u u u u u u u u 9 9 e ;X8XQ.^.^.^.^.^.^.I i t t y u r r u I /.~.^.~.^.^.^.D.J.G 1 t u u u u u p a @ k ! ! > ",
"# :.:.Y O u u u u u u u a t 9 6 f 1X8X~.Q.^.^.~.Q.j. .u h h u a u h y h D.~.Q.~.^.^.^.D.m.F 1 u u u u u u u j @ k ` ` > ",
"+ :.:.Y O j u u u u u u a t 9 9 w ,X9X~.Q.^.Q.Q.Q.a.p.Z r h h p u h r F Q.Q.^.Q.Q.Q.Q.D.G.N = y h u u u u u j & k ` Q > ",
"$ :.*.Y O a u u a u u u u t 6 0 < $XqX}.Q.Q.~.Q.!.V.-.-.v e j u h p j V.Q.~.Q.Q.~.Q.Q.A.h.h 5 y h u u u u u p @ k ` ` 8 ",
"+ ;.*.Y O u u u u u u u u u 5 0 : q.0X>XS.Q.A.Q.Q.Q.m.-.-.V y h r h c.!.Q.S.Q.Q.Q.S.S.F.I 9 9 t u u u u u u j @ k [ Q 9 ",
"+ :.*.T @ a u u u u u u u u 6 r ; c ,X5XQ.Q.Q.Q.Q.S.Q.n.<.%.Z i g M.!.S.Q.Q.Q.S.Q.Q.Q.n.j , 9 y j u u u u u j @ k ! ! > ",
"# :.O.Y @ u u u a u u u u u 6 0 0 : R.6X&XA.Q.S.S.Q.S.Q.m.-.-.9.A.Q.Q.S.Q.A.Q.Q.S.S.S.L = 0 9 y u u u u u p j # z ! ` > ",
"+ ;.O.Y * p u u u u u u u u 9 , , ; f *X3XS.Q.Q.Q.Q.A.Q.Q.V.n.!.Q.A.A.Q.Q.Q.Q.A.A.!.I ; 0 0 5 y h p u u u u j @ k ` ` > ",
"# :.O.Y @ u u u u a u u a t 9 , , r : J <X>XS.A.S.S.Q.S.S.Q.Q.Q.Q.A.Q.A.A.A.A.Q.!.K 9 0 , , > u h u u u u u j @ k ! ! > ",
"+ ;.O.T O j a u u u u u u t 6 0 0 , , ; r.-X}.A.S.S.Q.Q.Q.Q.S.Q.Q.Q.A.Q.Q.A.Q.!.D 5 , r 0 0 9 y u u u u u u j @ z ! ` > ",
"+ :.o.Y O u u u u u u u a u 5 , , 0 , , , y.|.L.Q.S.A.A.A.A.S.A.A.S.A.A.A.Q.V.f 3 r , , , , 9 t h u u u u p s * k ! Q > ",
"# :.o.T @ h u u u u u u u u 9 0 0 , , r > 5 y.).D.Q.A.Q.A.Q.A.A.A.Q.A.Q.Q.J.i.z 9 9 , , , 9 9 y u u u u u u h @ k ` ` 9 ",
"+ &.X.T O p u u u u u u a u 9 , 0 0 , 6 9 J A.A.A.S.A.S.S.S.S.S.S.S.S.S.S.z.p.a.L y : r 0 , 9 u u u u u u u j @ k ` ! 8 ",
"# *.X.T @ p u u u u u u u u 9 0 , r ; y r.!.S.S.S.A.S.S.S.A.Q.S.A.S.S.A.S.Q.C.s.p.i.z ; , 0 9 y p u u u u u j @ k ` Q > ",
"$ &.X.T O j u u u u u u a t 9 , 0 9 e b.Q.A.A.S.A.S.A.A.A.A.A.A.S.S.S.A.S.A.Q.S.h.a.a.d 9 0 9 y j u u u u p j * k ! Q > ",
"# &.{ T O a u u u u u u a u 5 , 9 e b.).C.S.S.S.Z.S.S.C.S.Q.Q.S.S.S.S.S.S.S.S.S.S.m.p.a.z > 9 u h u u u u u j @ k ! ! 9 ",
"# *.{ T @ u u u u u u u a u 9 0 : g.*X_.S.S.A.A.A.S.S.Q.b.H b.Q.S.A.C.S.A.A.C.S.S.S.z.a.$.0 5 y u u u u u u j @ k [ ` 9 ",
"$ &.{ T @ u u u u u u u p u 0 5 D 2X=XC.A.S.Z.A.S.Z.Q.e.h i h H C.S.C.S.S.A.S.Z.S.S.S.h.d.C 1 u u u p u u t j & k ! Q > ",
"# ..{ T @ a u u u u u u u u 9 < %X5XL.S.Z.S.S.Z.A.S.I t p u u r z r.Q.A.C.S.S.S.S.Z.S.N.a.#.9 y a u u u u u j @ k Q Q > ",
"# O.[ R O u u u u u u u a u 1 c 3X3XZ.A.Z.S.S.S.S.$.t p h u u j t y G S.S.Z.A.A.Z.A.C.A.l.a.z q a u u u u u j @ k ` ` > ",
"$ O.[ T @ u u u u u u u u u = K 5X,XC.S.S.Z.Z.S.p.t u u p p u p h a i S S.S.Z.A.S.A.S.S.m.a.N r a u u u u p k * k ` ` 9 ",
"@ ..' T @ a u u u a u u u u 3 w.6X&XZ.A.C.S.S.k./ r u u j u u u u u j 5 K Q.A.C.C.S.S.S.F.d.A 0 a u u u u u a @ k ` ` 9 ",
"$ ..' T @ u u u u u u u u u = e.,XL.C.Z.S.C.S.s./ t a u u u u u u u j 6 g S.Z.S.S.C.C.C.C.d.Z 0 u u u u u u k @ k ` ` 9 ",
"$  .' T @ u u u u u u u u u = e.^.Z.S.A.Z.C.S.p.) l y h a u u u p p s 6 0.S.C.A.C.A.C.S.C.d.n 0 u u u u p u j @ k ! ! > ",
"$ ..` R O j u u u a u u u u 1 9.Q.C.Z.C.C.A.A.l._ ) n t e t u u h t i G S.S.C.C.A.C.C.S.C.#.y r a u u u u u j & k ! Q > ",
"$ | ^ T @ u u u u u u u u h 1 G S.Z.C.Z.C.S.Z.S.s._ ( / n j a a s V u.S.Z.Z.C.Z.Z.C.C.Z.J.L 3 u a u u u u u j @ k ` ` > ",
"$ | ! R @ h u u u u u u u y 1 c S.C.Z.C.Z.C.C.C.S.k.-.=.=.+.( &.p.B.S.C.C.Z.C.C.C.C.C.S.f.u 9 y u u u u u u j @ k ` Q > ",
"@ | ` R O p u u u u u u u u 9 0 M.Z.C.C.C.C.Z.C.C.Z.S.N.M.m.N.Z.S.C.C.Z.N.Z.Z.C.Z.Z.S.B.V ; 9 t h u u u u u j @ k ` ` 9 ",
"$ ] ! T @ h u u u u u u u p 0 = J S.N.C.Z.Z.Z.Z.C.N.Z.Z.Z.Z.Z.Z.Z.N.Z.Z.Z.Z.C.Z.Z.Z.Z.A ; , > t u u u u u u k @ k ` ` 9 ",
"$ { ! R @ u u u u u u u u u 9 0 , y.S.N.N.Z.Z.N.Z.Z.Z.Z.Z.N.Z.N.Z.Z.C.C.Z.N.Z.Z.Z.Z.C 5 0 0 9 y u u u u u u j @ k ! ` > ",
"@ { ! V O h u u u u u u u u 9 0 , y t.S.C.N.Z.N.Z.C.C.N.C.Z.N.Z.N.N.Z.C.Z.Z.N.S.b.d 5 , 0 > 9 y u u u u u u k @ k ! Q > ",
"2 { Q T O u u u u u u u u u 6 , r ; 0 w.S.Z.Z.N.Z.N.Z.Z.Z.N.Z.Z.Z.N.Z.Z.Z.Z.Z.$.y ; 0 , 0 0 9 y h u u u u u j @ k ` ` 9 ",
"$ ' ! R O u u u u u u u u u 6 0 , , , 5 x y.Z.Z.Z.Z.N.N.Z.N.N.N.N.Z.Z.Z.Z.e.g : , 0 0 0 6 , 5 t u u u u u u j @ k ` ! 8 ",
"* ' Q V O h p h u u u u t u > 0 , 0 r , 5 6 m K t.N.Z.S.Z.Z.Z.Z.Z.N.y.H f ; : , 0 , , 0 , 0 ; t h u u u u u j @ k ` ` > ",
"2 ^ Q R @ h u p u u u u u t 9 , 0 9 9 , 0 , 5 5 > j A S G H G G M d t 6 5 , r 9 , 0 0 9 , , 9 u u u u p u p j @ k ! ! > ",
"@ ^ Q R O h u u p u u u h p 9 q , 0 0 , 6 , , r 9 0 u i i r i i t y j y 9 r , , , , 0 , 0 0 9 y u u u u u u j & k ` ` > ",
"2 ! Q T O u u u u u u u h y 9 9 0 , , , 0 , , , 9 0 u u h h h h u u u r 5 0 9 , , , , 0 9 0 9 r u u u u u t j @ k ` ! 9 ",
"2 W Q V @ k h j j j j j k p 9 q r r , r r , r r 9 t j s j j j j j a j p , r r r 0 r , r y , 0 p j s j j a j k & k ` ` > ",
"- W Q R   & * * * * * & & & + + O X O X O O X O X @ - - & * @ $ & * & @ . X O O X O X O O @ + $ & & - @ & & =   k Q ` > ",
"2 W W W k k k k k k k k k k k k k k z k k k k k k k k k k k k k k k k k k k k k k k k k k k k k k k k k k k k k R ` ! 8 ",
"2 W W W ! ` ` ` ` ` ! ! ! ! ! ! ! ! ! ` ` ` ! ! ` ! ` ` ! ! ! ! ` ! ! ! ! ` ` ! ` ! ` [ ! ! ` ` ` ! ! ! ! ` ! ! ` E ! > ",
"2 ` ^ ! ` ` ` ` ` ` ! ! ` ` ` ` ` ` ! ! ` ` Q ` ! ! ! ! ` ` ` ` ! ` ! ` ` ` ` ` ` ` ! ! ` ` ` ` ! ! ` ` ` ` ` ` ` ` ` 9 ",
"+ 0 0 0 q > > , 9 q q 8 0 0 9 q 9 q > 0 0 0 9 q 0 q q 8 q q 8 0 0 0 0 9 0 0 q 8 8 0 0 0 0 0 0 q 0 0 q 9 0 0 q 8 0 0 q + "
};
