/* XPM */
static char *result[] = {
/* columns rows colors chars-per-pixel */
"60 60 214 2 ",
"   c #391E03",
".  c #351F07",
"X  c #3C2206",
"o  c #3D2309",
"O  c #382409",
"+  c #41260A",
"@  c #442A0C",
"#  c #4A2B0D",
"$  c #412307",
"%  c #532E0E",
"&  c #56310E",
"*  c #5B330F",
"=  c #5F380F",
"-  c #4E2A12",
";  c #4B2613",
":  c #532D12",
">  c #582F11",
",  c #5D2E18",
"<  c #553111",
"1  c #5B3311",
"2  c #5D3A10",
"3  c #60340F",
"4  c #673D0D",
"5  c #623614",
"6  c #663A13",
"7  c #6D3D15",
"8  c #6C3B19",
"9  c #663518",
"0  c #713F16",
"q  c #4C3E2E",
"w  c #6A420F",
"e  c #78490A",
"r  c #7C510C",
"t  c #6E4015",
"y  c #724214",
"u  c #744018",
"i  c #7A4B1E",
"p  c #7A4914",
"a  c #4F4635",
"s  c #554534",
"d  c #544936",
"f  c #524638",
"g  c #564A39",
"h  c #5A4939",
"j  c #584936",
"k  c #844F0B",
"l  c #87590D",
"z  c #87560E",
"x  c #925D0B",
"c  c #804D1E",
"v  c #8B4F1A",
"b  c #814916",
"n  c #8B5513",
"m  c #89501B",
"M  c #875613",
"N  c #945B13",
"B  c #93531B",
"V  c #9E581D",
"C  c #9B561C",
"Z  c #A35A1D",
"A  c #AA5D1E",
"S  c #9C6A0E",
"D  c #966309",
"F  c #9A6017",
"G  c #946015",
"H  c #A46C0A",
"J  c #A1730A",
"K  c #A77401",
"L  c #B47C0C",
"P  c #B97D0B",
"I  c #AC6C15",
"U  c #AD6919",
"Y  c #A86519",
"T  c #B76D1D",
"R  c #B97517",
"E  c #804D20",
"W  c #875221",
"Q  c #8E5623",
"!  c #8E5924",
"~  c #915724",
"^  c #945925",
"/  c #9B5E27",
"(  c #975C29",
")  c #9C5F28",
"_  c #A05F26",
"`  c #AD5F20",
"'  c #9F6127",
"]  c #9D622A",
"[  c #A36126",
"{  c #AC6323",
"}  c #AD6827",
"|  c #A36229",
" . c #AC6529",
".. c #AB6B2C",
"X. c #B26627",
"o. c #B16629",
"O. c #B5692A",
"+. c #BC6C2A",
"@. c #AC6A30",
"#. c #C27D15",
"$. c #D17C1F",
"%. c #C26D2A",
"&. c #C06C23",
"*. c #CE7625",
"=. c #C5712C",
"-. c #CB732C",
";. c #C87521",
":. c #D5762B",
">. c #D8792D",
",. c #D47A24",
"<. c #CD7931",
"1. c #C97630",
"2. c #D27D34",
"3. c #D97D32",
"4. c #B78307",
"5. c #B68211",
"6. c #BD8511",
"7. c #C5880B",
"8. c #D0880F",
"9. c #C99305",
"0. c #D59C04",
"q. c #DD9C08",
"w. c #D99606",
"e. c #C48213",
"r. c #CB8515",
"t. c #CD8813",
"y. c #D58C17",
"u. c #C59213",
"i. c #DD9414",
"p. c #D99C11",
"a. c #E39B0E",
"s. c #E29F03",
"d. c #E19716",
"f. c #E69F14",
"g. c #EC9F11",
"h. c #DAA205",
"j. c #DFA803",
"k. c #E5A900",
"l. c #E5A10E",
"z. c #EBA50D",
"x. c #EEAB0D",
"c. c #EAA706",
"v. c #F4AE02",
"b. c #F5AC0A",
"n. c #F9AF00",
"m. c #EFB701",
"M. c #EDB40D",
"N. c #F6B401",
"B. c #F9B401",
"V. c #F6BA01",
"C. c #FABC01",
"Z. c #FBBD0C",
"A. c #F2B80B",
"S. c #ECA411",
"D. c #EAAD13",
"F. c #E5A61A",
"G. c #E4A011",
"H. c #F0AF15",
"J. c #EBB212",
"K. c #E8B61F",
"L. c #F3B319",
"P. c #F5BA19",
"I. c #F8BE1C",
"U. c #F7B913",
"Y. c #D38020",
"T. c #D98136",
"R. c #D9853A",
"E. c #D7893E",
"W. c #DB893E",
"Q. c #F7BF2C",
"!. c #F7C101",
"~. c #FCC202",
"^. c #FFCB04",
"/. c #F6C20A",
"(. c #FAC30C",
"). c #FECC0E",
"_. c #F7C313",
"`. c #FAC413",
"'. c #FDCA13",
"]. c #FAC51A",
"[. c #FDC91B",
"{. c #F5C018",
"}. c #FFD31A",
"|. c #FFD32A",
" X c #FCC738",
".X c #FCD23B",
"XX c #F8C82A",
"oX c #DE8A41",
"OX c #D78D44",
"+X c #DC9145",
"@X c #DB9148",
"#X c #DA9750",
"$X c #E28F43",
"%X c #E19347",
"&X c #E69A4F",
"*X c #E4964B",
"=X c #FCAF5D",
"-X c #F9C942",
";X c #FBD245",
":X c #F9CB55",
">X c #F7CE5A",
",X c #F9D45F",
"<X c #FFE15D",
"1X c #FCD366",
"2X c #FFDA62",
"3X c #FAD86D",
"4X c #FAD775",
"5X c #FFEB7E",
"6X c #FFE984",
"7X c #FAE395",
"8X c #FBE8A4",
"9X c #FDF5A4",
"0X c #FBF3D0",
"qX c #FFFBE0",
/* pixels */
"f s a a a a a a s s a s a a f f f f f f f a a s a f f f s f f a s f a a f s s f d d f d d g d g s g d g g h h h g g g a ",
"  ] .......... .} {  .} { { o.{ { { { A { { { ` ` { A { ` ` ` Z Z ` ` Z Z / Z Z V V V V C C C B B B B m v v v v v v v X ",
"+ #X=X&X&X*X%X%X$XR.$XW.E.3.2.2.2.<.-.1.1.=.=.=.+.+.+.+.+.O.O.O.O.O. . . .{ |  .| [ | ] | | ' ' ) ) ) ) / / / ) / / [ @ ",
"$ +X+XQ ^ ~ Q ~ ~ Q Q m Q Q ! ! Q Q Q Q Q Q ! Q ! ~ ~ ! Q ! Q ~ ~ ~ ^ ~ ^ ^ ~ ^ ^ ^ ^ ^ ^ ^ ~ ^ ( ~ ^ ( ^ ) ^ ^ ^ ^ ] @ ",
"+ OX+Xc X $ $ + + @ + + + + o o o + o + o + o + o o @ X + + + + @ $ $ o o + o X o o o + o o o + $ + + + + $ + X m ' ) @ ",
"+ E.%Xp O 7 6 6 4 6 6 6 8 = & * & 1 & * * < 1 % & * 8 6 6 6 6 6 6 6 7 1 & & & < & * & & & & : 5 7 6 4 6 6 6 6 O i / / @ ",
"o E.W.i X y 7 t 7 t 7 t 7 6 < 1 * * * 1 1 * 1 * < 9 0 7 t t y y 0 t t 9 1 1 1 1 = * * 1 = 1 2 7 t 7 t 7 t 7 u $ c ] ] @ ",
"X E.R.i o 0 7 7 t 8 7 7 7 7 < * 1 1 1 * * 1 1 1 < 2 t 8 8 6 9 6 6 8 t < ; > > 2 * * * * * 1 : 6 7 7 8 7 7 8 0 o i ' / @ ",
"+ R.R.i o 0 8 0 7 7 7 7 t 6 < 1 1 1 1 * * < * 2 1 1 9 7 p N U R #.#.#.R H n t : % 1 1 2 1 2 < 6 y 7 7 7 7 7 0   E ) / @ ",
"+ R.T.p + 0 7 7 7 7 7 7 t 6 < * 1 * 1 1 1 * * 2 - 6 Y y.F.L.L.U.P.P.L.H.S.z.q.e.M % > * 1 * < 6 7 7 7 7 7 7 0 o E ) ) + ",
"+ R.2.i $ 0 7 7 7 0 7 7 7 6 < 1 > 1 * * 1 1 < < G F.[.[.[.[.[.].[.[.[.[.].I.J.S.z.t.y < 1 1 < 6 y 7 7 7 7 7 7 o c / / @ ",
"+ 2.<.i   0 7 7 7 7 7 7 7 6 < 1 1 * 1 1 1 > = u.[.[.].].].].].].].].].].].].].{.z.l.l.l : * < 7 7 7 7 7 7 6 0 o c / ] + ",
"o 3.<.i . 0 7 7 7 7 7 7 0 6 < * 1 1 1 * - p J.}._.]._.].`._.`.`.`.].`.`.`.`.].'.'.J.l.z.M % < 8 7 7 7 7 7 7 0 o c / ^ @ ",
"+ 3.1.i $ 0 7 7 7 7 7 7 7 6 < 1 1 * 1 : l _..XXX`.`.`.`.'.].].`.].].`.`.].`.'.`.].`.P.z.l.y # 7 u 7 7 7 7 7 7 o i ) ' @ ",
"+ 3.1.i o 0 8 7 7 7 0 7 7 6 > * 1 1 : e _.2X;X(.(._.`._.(.`._._.`.`.`.`.`.`.(.`.`.`.`.M.S.7.% 6 t 7 7 7 7 7 0 X c ) / @ ",
"+ 3.1.i o 0 0 7 7 8 7 7 0 6 < * * 2 * J.6X1X~.(.`.`.(.`._.).'.).).'.(.(.`.`.`.`.(.`.(.(.G.S.k 5 7 7 7 7 7 7 0 o c ' / + ",
"o >.=.i $ 0 7 7 7 7 7 7 0 6 < * 1 - 4.5X7X`.(.(.(.(.(.(.)./.p.6.L u.M.^.(.(.(.(.(.(.`.(.A.S.6.5 7 7 7 7 8 7 0 . i / / @ ",
"+ 3.=.i $ 8 7 7 7 7 7 7 7 6 < 5 : e .X0X.X~.(./.(.(.(.`.5.p 9 = 5 9 t 5.).(.(./.(././.(.(.z.p.p 6 0 7 7 7 7 0 o c / / @ ",
"o 3.%.i o 0 7 7 0 7 7 7 7 6 < * # L 9X8X!.(./.(.~.~.Z.G , 6 t t y t 7 : J ^./.(.!./.(.~.(.M.S.N 9 y 7 7 7 7 0 o c ' / @ ",
"+ >.+.i $ 0 7 7 7 7 7 7 y 6 : 2 * K.qX;XC.(.~.C.(.Z.I 9 y t 8 t 8 7 0 1 - h.^.C.(.~.~.(.~.A.z.I 9 7 7 7 7 7 7 X i ) / @ ",
"o >.+.i o 0 7 7 7 7 7 7 t 6 & < e .X0X(.~.Z.~.~.~.y.p 7 t 7 t 7 7 7 7 6 ; S ^.C.~.C.!.~.~.V.z.5.6 t 7 7 7 7 7 o c ) / + ",
"+ >.+.i $ 0 7 7 7 7 0 7 7 6 & - D <X8XC.~.~.~.~.b.;.0 7 7 8 7 7 7 7 y 5 - e ~.~.~.~.~.~.~.~.z.r.8 8 7 7 7 7 y o c ' ' @ ",
"+ >.O.i o 0 7 7 7 7 8 7 7 7 > - K <X3XC.~.~.V.~.G.&.0 7 7 7 0 7 7 7 7 5 < 6 m.~.C.~.C.!.C.~.S.t.8 7 7 t 7 7 y O c ^ ^ @ ",
"o >.O.i $ 0 7 7 7 7 7 7 0 9 1 - K |.XX~.C.~.C.^.i.*.i 6 t t 7 8 7 t 7 2 < * j.^.C.~.~.C.C.~.z.t.7 7 7 7 7 8 0 o c ] ' @ ",
"+ >.O.i o 0 7 7 7 7 7 7 7 6 1 - J ^.C.~.!.!.C.^.G.*.U 9 t t t 8 7 7 0 6 * > 0.~.!.C.!.C.C.~.x.r.7 7 7 7 7 7 y o i ' / @ ",
"+ :.o.i o 0 7 0 7 7 7 7 0 6 < : l ~.C.C.C.C.V.!.V.$.;.Y 8 9 8 t 7 7 7 * ; > 0.~.C.!.C.!.C.!.z.e.8 t 7 7 7 7 7 o c / / @ ",
"+ :. .i   0 7 7 7 0 7 7 7 6 & 1 4 m.!.!.~.C.!.V.!.v.*.*.T m y 7 7 8 0 0 N l.~.V.C.V.C.!.C.!.x.R 6 7 7 7 7 7 0 o c ' / @ ",
"+ :.o.i $ 0 7 7 7 7 7 7 y 6 < 1 # 7.~.V.C.C.C.V.C.~.V.i.y.,.;.T +.T r.z.~.~.C.C.!.V.C.!.V.C.S.I 6 7 7 7 7 7 7 o i / / @ ",
"o :. .i o 0 8 0 7 7 7 7 7 6 < 1 > r ~.C.C.V.C.C.C.C.C.~.N.x.c.x.b.V.~.~.C.V.C.C.C.C.~.V.!.V.f.V 9 y 8 0 7 7 0   i ' / @ ",
"@ :. .i o 0 7 7 0 7 7 7 t 6 > 1 1 - 4.^.V.C.C.C.C.C.C.V.Z.C.C.C.!.V.V.V.V.C.C.C.C.C.C.V.C.N.d.M 6 7 7 7 7 7 0 o c / / @ ",
"@ 1.` i   0 7 7 7 7 7 7 t 6 < * * < 4 k.~.V.C.V.C.V.B.C.C.V.C.C.C.C.C.C.C.V.C.V.C.C.V.C.C.m.y.y 6 7 7 7 7 7 0 o c ' / @ ",
"; -. .i + 0 7 7 7 7 7 7 t 6 % 2 * = % y N.~.V.C.V.C.V.C.C.V.C.C.V.C.V.V.C.C.V.C.C.V.C.V.C.b.T 6 7 0 7 7 7 8 0 . i / / @ ",
"@ -.| i o 0 7 7 7 7 0 7 7 6 * * > * 5 # e N.~.C.V.C.C.C.C.C.C.C.B.C.C.C.C.C.C.C.C.B.C.C.C.z.n 5 0 7 7 7 7 7 0 o i ) / @ ",
"o -.| i o 0 7 7 8 7 7 7 7 9 < 1 * * * 5 : w 9.C.~.C.V.N.C.C.B.C.V.N.V.B.V.N.V.V.V.C.V.V.N.y.6 9 7 7 7 7 7 7 7 o E ) / @ ",
"+ -._ c   0 6 7 0 7 7 7 7 6 < 1 1 1 1 1 1 > > l 9.N.~.~.C.C.~.C.~.C.~.C.C.C.C.V.B.B.V.C.b.U # 7 0 7 7 7 7 7 0 X c ) / + ",
"@ -._ c $ 0 7 7 7 7 7 7 7 6 < * * 1 1 1 1 1 1 > # y S P 9.w.k.0.w.9.L k.C.B.B.C.V.C.B.C.d.y % 6 7 7 0 7 7 7 0 X i / / @ ",
"@ %._ c   0 7 7 7 7 7 7 t 6 < 1 1 * 1 > 1 1 1 3 & 1 9 5 5 8 6 6 6 , x ].Z.N.V.N.V.B.B.N.U & < 6 t 7 7 7 7 6 7 o c / / @ ",
"# %._ E + 0 7 7 7 7 7 7 t 6 < * 1 * 1 1 1 1 2 1 < 9 y t t 7 8 0 9 k I.-XB.V.B.C.C.B.C.i.7 & < 6 7 7 7 7 0 8 0 o c ) / @ ",
"@ %._ E . 0 8 8 0 7 7 7 y 6 < 1 1 1 1 * 1 > * * & 6 t 8 8 7 0 6 e D.2XP.B.B.V.C.N.C.b.m % 1 < 6 0 7 7 7 7 7 0 o c / / @ ",
"@ &._ c + 0 0 0 7 7 7 7 7 6 < 1 * 1 1 1 1 * * 5 < 9 7 t 7 y 5 e z.2X XN.V.B.B.B.B.B.R & * 1 & 8 7 7 7 7 7 7 7 o c / / @ ",
"@ %.) c   0 7 7 7 7 7 7 7 6 < 1 1 1 1 * 1 1 1 * % 5 0 0 0 9 l x.2X:XV.V.V.B.N.B.C.y.1 1 * 1 : 6 7 7 7 7 7 7 0 o i / / @ ",
"@ +._ E + 0 7 7 7 7 7 7 0 6 < 1 * 1 1 1 * 1 * 1 < 5 0 9 6 H U.1X>XN.N.N.N.N.N.C.a.7 * * 1 1 & 8 0 7 7 7 7 7 7 o c ' / @ ",
"@ +.) E . 0 7 7 7 7 7 7 7 6 < * 1 1 1 1 * 1 * * & 5 8 B w.].4X:XN.B.B.N.N.N.B.c.y % 1 1 * * & 6 t 7 7 7 7 7 0 X c ' / @ ",
"# O._ E + 0 7 7 7 7 7 0 t 6 < 1 > 1 1 * 1 > 1 5 - y 8.n. X4X-XB.B.N.N.B.N.C.c.0 % 5 * * 2 * : 7 7 7 0 7 7 7 0 X i / / + ",
"# X._ b   0 8 7 7 7 7 7 t 6 1 1 1 * 1 * 1 1 * % D v.(.:X1XI.v.B.B.N.N.v.C.q.6 > 1 1 1 1 * 1 < 6 7 7 7 7 7 7 7 o c / / + ",
"@ X.) c o 0 0 7 7 7 7 7 7 6 < 1 1 1 1 > * 1 > S C.U.-XXXB.n.N.n.N.N.B.C.7.* > 3 1 1 1 1 1 * < 6 0 7 7 7 7 7 0 o c ' ' @ ",
"# o.) c o 0 7 7 7 7 7 7 7 6 < * 1 1 * 1 1 1 1 c.N.N.n.n.B.B.n.B.v.B.B.H - * 1 * 1 > 1 * & 1 < 6 7 7 7 7 7 7 7 o i ] / @ ",
"@ o.) c o 0 7 0 7 7 7 7 t 6 < 1 1 1 * 1 1 > y n.N.n.n.b.v.N.v.v.C.s.n , * 1 * * 1 * 1 1 2 1 & 8 7 7 7 7 7 7 y o c ' ^ @ ",
"@ { / c o 0 7 7 7 t 7 7 t 7 < * 1 1 1 1 < 1 * s.B.B.n.N.v.v.B.B.P 0 6 5 * * * 1 * 1 1 1 2 1 < 7 t 7 7 7 t 7 7 X c ' / @ ",
"; ` / c o 0 7 7 7 8 7 7 7 6 < 1 1 * 1 1 * 1 : x C.B.v.N.B.B.w.M 5 7 0 1 & * 1 * 1 1 1 * * 1 & 8 7 8 7 7 8 7 y X i ' / @ ",
"@ { ( c $ 0 7 7 7 7 7 8 t 6 & * 1 1 1 1 1 1 2 : x c.B.B.c.S 9 6 0 7 0 5 < * 1 1 1 * 1 * 1 & < 6 t 7 7 7 7 7 7 X c / / @ ",
"@  ./ i o 0 6 7 7 t 7 7 t 6 < * 1 1 1 1 > 1 > 2 # 6 N m 6 9 7 0 7 7 0 5 & * 1 1 * 1 1 1 1 1 & 6 t 7 7 7 7 7 7 o i / / @ ",
"@ [ / c X 0 7 7 8 t 8 7 7 6 > 1 1 * 1 1 1 1 * 1 < 5 9 6 7 t 7 7 8 7 0 1 & 1 * 1 1 * 1 1 2 * < 6 0 7 7 7 7 7 y o c ' / @ ",
"# [ / E X 0 7 0 t t t 7 t 6 % 2 1 * 1 * * 1 1 1 < 6 y 0 t 7 t t t 8 0 5 < 1 1 * 1 * 1 1 2 1 & 8 7 7 7 t 7 7 0 o c / / @ ",
"# / ) i X 7 6 6 6 t 6 7 8 6 < & * > % * & > > * % 1 7 6 7 4 8 6 6 6 7 2 & & 1 & * % * % % > : 9 7 6 6 8 8 6 8 X c / / @ ",
"@ _ ) E O + + + + + o + o X O o o X o X X o o X o o + + o o o $ + + + o O X o X X X X + X X o $ o @ + o + @ + . m / / # ",
"@ / / ^ ^ / ~ ~ ^ ^ ^ ^ B ^ ^ ! ^ ^ ^ / ^ / ~ ^ ^ ^ ^ ~ ^ ^ ^ ^ ^ ~ ^ ^ ^ ^ ^ / ~ / ~ ^ ^ / ~ ^ ~ ~ ~ ~ ^ ^ ^ ^ ^ ^ / @ ",
"# ' / / / / / / / / / / / / ' ' / ) / / / / / / / / / / / _ / / ) / ) ' / / _ / / / / / / / / _ ) ) ) ] / / / / ' ( ' @ ",
"X m v v v v v m m m v m m m v m v v v v m m m m v m m m m m m m m m m m m v m m m v v v m v m m m m m m m v m m v v m X ",
"q s s s s s j s s s s s s s s s s s s s s s s s s s s s s s s s s s s s s s s s s s s s s s s s s s s s s s s s s s s a "
};
