/* XPM */
static char *result[] = {
/* columns rows colors chars-per-pixel */
"60 60 226 2 ",
"   c #E29F13",
".  c #E59E1B",
"X  c #ED9F1B",
"o  c #E99D16",
"O  c #F29F1C",
"+  c #DEA80F",
"@  c #DFA911",
"#  c #DAB51E",
"$  c #E8AA0F",
"%  c #EDBE0D",
"&  c #E7B909",
"*  c #F3BF0D",
"=  c #F2B70F",
"-  c #E5A515",
";  c #ECA615",
":  c #E6AC14",
">  c #EBAA15",
",  c #E5A41C",
"<  c #ECA51C",
"1  c #E6AA1B",
"2  c #EBAA1C",
"3  c #F2A516",
"4  c #F1AA16",
"5  c #F2A41C",
"6  c #F3AA1B",
"7  c #F9AE19",
"8  c #F8A51B",
"9  c #EDB215",
"0  c #EDBB14",
"q  c #EDB31B",
"w  c #ECBC1C",
"e  c #E7B718",
"r  c #F3B515",
"t  c #F3BC15",
"y  c #F9BC15",
"u  c #F3B31C",
"i  c #FAB41C",
"p  c #F3BC1C",
"a  c #FABA1C",
"s  c #F9B517",
"d  c #DD9E3A",
"f  c #E59F23",
"g  c #E39E2C",
"h  c #F69F21",
"j  c #E39F3F",
"k  c #DEA42C",
"l  c #DFA82A",
"z  c #DBA628",
"x  c #DFBE2D",
"c  c #CEA43B",
"v  c #DCA334",
"b  c #DCA934",
"n  c #DDA53C",
"m  c #DCAA3A",
"M  c #D6A93C",
"N  c #DEBA33",
"B  c #DDBB3C",
"V  c #DAB53A",
"C  c #E5A523",
"Z  c #ECA523",
"A  c #E6A922",
"S  c #EBA922",
"D  c #E4A42B",
"F  c #EAA52A",
"G  c #E4AB2B",
"H  c #EBA92B",
"J  c #F2A422",
"K  c #F2AA22",
"L  c #F2A42C",
"P  c #F2AA29",
"I  c #EEB422",
"U  c #E5BC23",
"Y  c #ECBC23",
"T  c #EBB629",
"R  c #E4BB2C",
"E  c #EBBD2B",
"W  c #E5B72A",
"Q  c #F3B422",
"!  c #F3BC22",
"~  c #FABA22",
"^  c #F3BB29",
"/  c #F8BB2B",
"(  c #F6B327",
")  c #E4A533",
"_  c #EAA533",
"`  c #E4AA35",
"'  c #E3A43A",
"]  c #E2AA39",
"[  c #EAAC3A",
"{  c #E8A934",
"}  c #E4B734",
"|  c #E3BB33",
" . c #EBBE34",
".. c #E1B63B",
"X. c #E4BC3A",
"o. c #EABE3C",
"O. c #EEB03B",
"+. c #F0BE30",
"@. c #E8C104",
"#. c #F0C20E",
"$. c #EDC215",
"%. c #E6C11D",
"&. c #EDC01D",
"*. c #F2C115",
"=. c #F4C11D",
"-. c #DFC02B",
";. c #DDC037",
":. c #DBC33B",
">. c #E5C126",
",. c #EBC125",
"<. c #E4C22D",
"1. c #EDC129",
"2. c #F4C122",
"3. c #F3C22D",
"4. c #E5C232",
"5. c #EBC234",
"6. c #E3C23B",
"7. c #EDC43F",
"8. c #F0C33B",
"9. c #F8C638",
"0. c #F9CB3A",
"q. c #DCA344",
"w. c #DCAB44",
"e. c #DAAB4B",
"r. c #D8A748",
"t. c #D8B746",
"y. c #DAB14A",
"u. c #DABD44",
"i. c #CBA651",
"p. c #D9A455",
"a. c #DEAB55",
"s. c #DAAE5E",
"d. c #D3A955",
"f. c #D5B25B",
"g. c #DAB356",
"h. c #E3AB43",
"j. c #EBAE41",
"k. c #E3AC4B",
"l. c #E6A946",
"z. c #F0AD44",
"x. c #EAB443",
"c. c #E3BD43",
"v. c #E6B44C",
"b. c #EAB24B",
"n. c #E4BC4A",
"m. c #E6B044",
"M. c #E0AD53",
"N. c #E2A755",
"B. c #E4B453",
"V. c #E9B153",
"C. c #E1BF53",
"Z. c #E5B35A",
"A. c #E5BB5C",
"S. c #EBBB5B",
"D. c #EBB558",
"F. c #F3B65D",
"G. c #CFAF6A",
"H. c #D7AC65",
"J. c #D5B268",
"K. c #D8B972",
"L. c #E3AF62",
"P. c #EABC63",
"I. c #E1B66B",
"U. c #E4BC6B",
"Y. c #ECBC6A",
"T. c #E6B865",
"R. c #F0BF6E",
"E. c #F1BC60",
"W. c #E3BA71",
"Q. c #ECBE78",
"!. c #DFC048",
"~. c #DECA44",
"^. c #DFC159",
"/. c #E3C244",
"(. c #EAC445",
"). c #E3C34C",
"_. c #EBC44D",
"`. c #EBCB4A",
"'. c #F9CB44",
"]. c #FDD049",
"[. c #E5C351",
"{. c #EAC455",
"}. c #E5C45B",
"|. c #EEC45B",
" X c #E4CA5B",
".X c #EACB5A",
"XX c #E7CB54",
"oX c #FFD554",
"OX c #E3C561",
"+X c #E4C963",
"@X c #EACB65",
"#X c #EEC46A",
"$X c #E6C96B",
"%X c #EDCD6A",
"&X c #E6C46F",
"*X c #F3C36A",
"=X c #F2CD6C",
"-X c #F0CC63",
";X c #E9D06C",
":X c #FCD465",
">X c #FFDC6B",
",X c #FAD968",
"<X c #E3C972",
"1X c #EBCD76",
"2X c #EDC479",
"3X c #EDCE7D",
"4X c #F1C57A",
"5X c #F5CE79",
"6X c #EED579",
"7X c #FAD474",
"8X c #F6D978",
"9X c #FFE367",
"0X c #FFEA6F",
"qX c #FFE278",
"wX c #FFE97E",
"eX c #FFF07B",
"rX c #EDC98B",
"tX c #E7C98B",
"yX c #F5CD88",
"uX c #EFD682",
"iX c #E5D088",
"pX c #F3D897",
"aX c #FCE888",
"sX c #FFF489",
"dX c #FFE494",
"fX c None",
/* pixels */
"fXfXfXfXfXfXfXfXfXfXfXfXfXfXfXfXfXfXfXfXfXfXfXfXsXwXqX>X>X>X9X0XeXsXfXfXfXfXfXfXfXfXfXfXfXfXfXfXfXfXfXfXfXfXfXfXfXfXfXfX",
"fXfXfXfXfXfXfXfXfXfXfXfXfXfXfXfXfXfXfXfXfX$XOX}..X.X.X_.(.(.`.`.`. X+X<XiXfXfXfXfXfXfXfXfXfXfXfXfXfXfXfXfXfXfXfXfXfXfXfX",
"fXfXfXfXfXfXfXfXfXfXfXfXfXfXfXfXfXfXfX@X+X}.).X.} | } } } } R R N ;.!.}.$X6X1XfXfXfXfXfXfXfXfXfXfXfXfXfXfXfXfXfXfXfXfXfX",
"fXfXfXfXfXfXfXfXfXfXfXfXfXfXfXfXfX{.n.N | | 1.Y w Y E E 1.1.1.>.>.>.U R 5.6.c.[.6XfXfXfXfXfXfXfXfXfXfXfXfXfXfXfXfXfXfXfX",
"fXfXfXfXfXfXfXfXfXfXfXfXfXfXfXC...o.+.Y I w p t 0 p p ! w ! w w &.$.w 0 0 ,.^ 5.X.A.&XfXfXfXfXfXfXfXfXfXfXfXfXfXfXfXfXfX",
"fXfXfXfXfXfXfXfXfXfXfXfXfXfX6.4.E T Y ! ~ a y y y a u p Q p p w p p w p p t p 2.E o./.[.=XfXfXfXfXfXfXfXfXfXfXfXfXfXfXfX",
"fXfXfXfXfXfXfXfXfXfXfXfXfX5.E Y Y ! ! ~ ~ i i s s u u 7 u 4 u u u q u p p p p t 0 w Y | _.-XfXfXfXfXfXfXfXfXfXfXfXfXfXfX",
"fXfXfXfXfXfXfXfXfXfXfX| E &.0 0 0 ! ^ ~ 7 7 7 4 > 4 3 ; ; ; ; ; : 2 2 q u u p p 0 0 w ^ E (.=XfXfXfXfXfXfXfXfXfXfXfXfXfX",
"fXfXfXfXfXfXfXfXfXfX# e w q p =.=.w w q 2 ; ; 2 < 2 S S < < < 3 3 5 Z Z Z < 2 ~ 2.p p w Y R B %XfXfXfXfXfXfXfXfXfXfXfXfX",
"fXfXfXfXfXfXfXfXfXU e w w ~ ! p q 9 2 2 2 1 < S Z Z Z G S A < < 5 h h J J f , 1 q w ! 2.^ U R ).$XpXfXfXfXfXfXfXfXfXfXfX",
"fXfXfXfXfXfXfXfXW U &.=.~ ^ ~ I 2 2 1 - : 1 S A H H ) D D C Z Z J 5 J 8 J < < - : : Y ! Y Y E | [.<XfXfXfXfXfXfXfXfXfXfX",
"fXfXfXfXfXfXfX} U Y ! ! Y I I 2 2 2 5 2 1 1 1 A D G ` ' m ` { H J 5 8 5 3 6 < : @ @ 2 T ^ ^ E E N u.6XfXfXfXfXfXfXfXfXfX",
"fXfXfXfXfXfX6.1.Y u ~ ^ Q 1 1 2 J J J J < - 1 S C ) m.|.fXfXx.D , 5 ; 3 4 > : : 1 1 @ , P / ^ I U <.).6XfXfXfXfXfXfXfXfX",
"fXfXfXfXfXfX} Y w ! ^ ^ I 1 < 6 5 5 O J J < < S Z ` V.fXfXfXv.] G 2 < ; > > : 1 1 I , . < ( ! w &.,.x XXuXfXfXfXfXfXfXfX",
"fXfXfXfXfXX.T Y ! 2.Q I S < 5 J 5 O 5 J J J Z C D m B.fXfXfXs.w.z z 1 1 ; 2 2 , 1 S Z X X < ( w $.$.%.;. XfXfXfXfXfXfXfX",
"fXfXfXfXV } E p ! 2.q 2 2 Z K 8 O 5 K J O J F ) v r.H.fXfXfXG.i.c V G 1 , S J < - < P 5 X < , ! t #.$.>./.aXfXfXfXfXfXfX",
"fXfXfX|.o.W Q ^ ! I : < J h J O 3 6 P S . f ) k.T.rXfXfXfXfXfXtXU.y.M D , < 8 6 3 3 < < 2 1 , S 0 #.#.$.4..XfXfXfXfXfXfX",
"fXfXfXc. .! ! Q I e : < J J 8 5 5 J 2 C D j.D.fXfXfXfXfXfXfXfXfXfXfXA.k.' f 5 8 5 6 2 1 A A @ , 9 y * *.U /.uXfXfXfXfXfX",
"fXfX+XN T 2.~ ~ u 2 : 1 < 5 5 O 5 < C k B.#XfXfXfXfXfXfXfXfXfXfXfXfXfXR.V.' F K 3 3 3 S S C C - > y t p E B 3XpXfXfXfXfX",
"fXfX X| w a a s r 2 1 : 2 2 < O J < D w.6XfXfXfXfXfXfXfXfXfXfXfXfXfXfXfXfXk._ Z 4 3 4 P F C C 1 : 4 a ~ T X.+X1XfXfXfXfX",
"fX^.u.E w p i 7 4 ; 1 1 1 1 ; < J Z O.S.fXfXfXfXfXfXfXfXfXfXfXfXfXfXfXfXfXP.l.D 6 3 ; J L F Z < ; $ i ~ T } ).;XfXfXfXfX",
"fX{.c.E =.s i 7 < 2 1 1 A S 2 < Z ) b.fXfXfXfXfXfXfXy.b b ' w.fXfXfXfXfXfXfXa.n H J X h J J < < -   ( Q ^ E o..XdXfXfXfX",
">X(.} ! p s i 6 < 1 A A C Z Z Z F m B.fXfXfXfXfXU.v.] G C Z _ M.I.fXfXfXfXfXfXq._ J J J J 5 < 2 , , S I Y ,.| `.qXfXfXfX",
"oX8.T ^ p u 7 > > , A H F Z J J H m g.fXfXfXfXfXp.n C < 4 6 5 ) w.2XfXfXfXfXfXk.) L J 8 3 < < < , , 2 I p Y U (.=XfXfXfX",
"0.E I ! p p 9 > < C Z L L F J Z D m y.fXfXfXfXtXd.d F J 3 8 K C v A.fXfXfXfXfXb.D < 4 2 ; ; > < < . C q ! Y Y | .XfXfXfX",
"3.Y w =.=.r : > 1 Z F L L h J S G b y.fXfXfXfXfXI.a.l.g f C S l k b.P.fXfXfXB.j.H < < 2 1 > ; < < , , q ! 2.Y | ).fXfXfX",
"2.&.w 2.p p : : < < J J J J J J D v v.fXfXfXfXfXfXW.L.M.w.t.t.v v ] k.M.B.b.` H P Z < 2 2 > > 6 Z Z , S ! 2.&.R /.fXfXfX",
",.&.p 2.p 0 $ : > 5 5 O O 5 J K C G b.7XfXfXfXfXfXfXfXfXtXK.f.r.n v v ) { F Z Z J < < 2 5 ; > 3 Z Z f 2 p p =.,.c.fXfXfX",
"0 w w p u q : : > 3 5 O 3 3 < 2 , G ` n.fXfXfXfXfXfXfXfXfXfXfXfX5XE.k.n D Z 5 3 o < J K 5 < > < J F f 2 q p $.Y 6.fXfXfX",
"0 w p t u r > 2 < 5 3 8 8 3 < S A 1 , D F.fXfXfXfXfXfXfXfXfXfXfXfXfXfXD.k.D J 8 < K K < < < < 6 Z Z , , u p 0 w | fXfXfX",
"0 w t t s 6 2 Z Z 5 h 8 5 3 Z S A 2 - , z.F.fXfXfXfXfXfXfXfXfXfXfXfXfXfXfXl.F J 5 < J < < < ; < 5 Z , < r p *.0 | fXfXfX",
"0 w p t t u < Z h 5 5 3 5 < S S C 2 2 Z _ j N.2XrXfXfXfXfXfXfXfXfXfXfXfXfXfXj.F , < 2 S 2 < ; 6 Z Z Z 1 Q p *.&.| fXfXfX",
"w p t t t u Z F J J 3 X < < S A A G C D _ ' ' ' n m n.|.=XfXfXfXfXfXfXfXfXfXfX] k C S 2 2 ; < 6 Z Z X 2 u =.*.w ;.fXfXfX",
"w p p t p q J J J 5 6 6 ; ; 6 Z C ) m h.b.l.' G C G G G ] w.g.W.fXfXfXfXfXfXfXB.` A , < 2 2 < < J Z . 2 ~ =.t Y 6.fXfXfX",
"Y ! &.0 p u < J J 3 < 3 3 ; < A H b.B.Z.S.S.b.H 2 2 2 - C ) n k.L.fXfXfXfXfXfX#Xb 1 1 < 5 8 5 6 < <   2 ! p w 1./.fXfXfX",
"3.2.Y w &.Q 2 6 5 < 6 2 4 ; ; < G *XfXfXfXfX*Xv Z 6 K 2 Z Z F g j p.fXfXfXfXfX3Xb 1 ; 3 J J J < < <   q ! ! w | _.fXfXfX",
"9.3.U w &.w : 2 < < 2 < ; 6 4 , g Y.fXfXfXfXfXh.D Z J J < < Z P _ l.fXfXfXfXfX2Xz < 8 J h h J J < - - q ! ! Y } fXfXfXfX",
"].8.W w &.w q 2 < A Z < 3 8 5 < ) P.fXfXfXfXfXY.l.D g L 5 < 2 A ` r.fXfXfXfXfX4Xv Z K O J J J J < - - r p Y W } fXfXfXfX",
"oX(.R ,.w w w : 2 A F J J 5 5 Z _ B.W.fXfXfXfXfXT.k.' _ H G D b w.f.fXfXfXfXfXY.' Z 5 5 J P Z J ; - > w 2.Y } ..fXfXfXfX",
"fX/.o.,.&.t p > 2 Z Z L J X J J F w.A.fXfXfXfXfXfXQ.N.q.n M M y.fXfXfXfXfXfXfXV._ Z < Z J J Z Z < : r p &.E X.c.fXfXfXfX",
"fX}.n.E w t t q 2 S Z J 3 O J J F g v.5XfXfXfXfXfXfXfXfXfXfXfXfXfXfXfXfXfXfXfX' F < 2 2 2 A Z Z < : p p &.U o.fXfXfXfXfX",
"fX&X|. .p t t 0 2 S A < < X 8 J Z Z ] B.yXfXfXfXfXfXfXfXfXfXfXfXfXfXfXfXfXfX_ f A S 2 1 1 C Z Z - 9 t p w U fXfXfXfXfXfX",
"fXfX}.| &.*.= s u H A A 2 < 5 J J J F ' Y.4XfXfXfXfXfXfXfXfXfXfXfXfXfXfXfX_ F < < K 2 - 1 S A , 2 r t *.&.R fXfXfXfXfXfX",
"fXfXfXN &.* t s Q ( Z C A < 2 2 6 J f g ' D.*XfXfXfXfXfXfXfXfXfXfXfXfXfX[ C < 6 6 < < < < , , 1 q s t t w R fXfXfXfXfXfX",
"fXfXfX).>.w y s u ( S S 1 2 2 < 6 5 < Z F { h.a.W.tXfXfXfXfXfXfXfXfXh.D Z X < 5 5 < < J < < , 1 p p t w Y fXfXfXfXfXfXfX",
"fXfXfXfXN R 2.p p u I : 1 > 2 ; < < 5 < < C D n e.s.K.fXfXfXfXd.e.h.H f < 5 K K Z F Z L Z < 2 I p t =.R V fXfXfXfXfXfXfX",
"fXfXfXfXt...1.p p a u 4 > ; > 3 5 < < < 2 < A Z D q.H.fXfXfXG.e.n D Z 5 5 J J Z F F Z Z Z Z Q u 0 0 1.| fXfXfXfXfXfXfXfX",
"fXfXfXfXfX[.R ,.p p s r 4 $ 3 > 4 < < 2 S 2 < A Z { D.fXfXfXZ.h.D A Z 5 5 < Z A H S C , < u ~ ! w &.4.fXfXfXfXfXfXfXfXfX",
"fXfXfXfXfXfXB <.w w s =.i 7 ; ; ; < Z F S S < P f F [ :XfX7Xb.) g H A < Z < A Z S 1 : : : t p 2.2.R B fXfXfXfXfXfXfXfXfX",
"fXfXfXfXfXfXfX;.R w ! ~ a i 7 4 ; < Z S H S A 2 A Z L O.x.x.[ _ D H A S K S Z < 2 1 $ & 0 t t Y  .N fXfXfXfXfXfXfXfXfXfX",
"fXfXfXfXfXfXfXfXN R 2.p ~ ~ i u 2 < Z Z S S Z < Z Z Z Z f g F H S S 2 > 2 2 < < 2 q 9 % $.*.=.E N V fXfXfXfXfXfXfXfXfXfX",
"fXfXfXfXfXfXfXfXfX6.>.w p p a u u 2 S Z < < 2 Z A S Z C A Z Z Z < 1 - ; $ ; : > q I p $.*.&.,.| fXfXfXfXfXfXfXfXfXfXfXfX",
"fXfXfXfXfXfXfXfXfXfX;.4.,.w p p ~ ~ Q 4 ; ; > < < 2 A 1 A A A 1 2 > > ; $ 4 r u ~ Y p w Y >.R fXfXfXfXfXfXfXfXfXfXfXfXfX",
"fXfXfXfXfXfXfXfXfXfXfX:.<.%.&.&.p p a p s r 9 > > > 1 1 1 1 1 2 2 > 4 7 i s u p p ! ! Y R R fXfXfXfXfXfXfXfXfXfXfXfXfXfX",
"fXfXfXfXfXfXfXfXfXfXfXfX:.-.>.U w p t y y t = s r 9 q 2 q q q 2 u u ~ 7 i i a a p Y E  .| fXfXfXfXfXfXfXfXfXfXfXfXfXfXfX",
"fXfXfXfXfXfXfXfXfXfXfXfXfX~.:.x E 2.t t = s p y p p ! ! ! ! ! ! ~ ~ ~ a u y p 2.T U | _.fXfXfXfXfXfXfXfXfXfXfXfXfXfXfXfX",
"fXfXfXfXfXfXfXfXfXfXfXfXfXfX+X[.B >.w &.! / / ! p ~ p ! ! p ! ^ ! ^ 2.=.=.*.&.Y | X.fXfXfXfXfXfXfXfXfXfXfXfXfXfXfXfXfXfX",
"fXfXfXfXfXfXfXfXfXfXfXfXfXfXfXfX@X).o.R T T ^ ~ ~ p p p p w w p Y ! Y 0 e U >.6.fXfXfXfXfXfXfXfXfXfXfXfXfXfXfXfXfXfXfXfX",
"fXfXfXfXfXfXfXfXfXfXfXfXfXfXfXfXfX6X@X_.8. .T ~ p t % % #.% 0 0 w w Y U R | 6.fXfXfXfXfXfXfXfXfXfXfXfXfXfXfXfXfXfXfXfXfX",
"fXfXfXfXfXfXfXfXfXfXfXfXfXfXfXfXfXfXfXdX:X].3.^ r 0 % & @.@.@.% 0 ! ^ '.fXfXfXfXfXfXfXfXfXfXfXfXfXfXfXfXfXfXfXfXfXfXfXfX"
};
