/* XPM */
static char *_1518c39d85e4bf6a4832767f2fdebf4VCVdvqqn9OpqkI3W[] = {
/* columns rows colors chars-per-pixel */
"60 60 168 2 ",
"   c None",
".  c #8A1700",
"X  c #9B3214",
"o  c #AF310D",
"O  c #B23707",
"+  c #B93D1D",
"@  c #924500",
"#  c #8F4214",
"$  c #A7550C",
"%  c #B05E2B",
"&  c #BE4E30",
"*  c #DE5118",
"=  c #FF4600",
"-  c #FF4D00",
";  c #FD4C0A",
":  c #F25202",
">  c #FF5300",
",  c #FF5B01",
"<  c #FF550B",
"1  c #FF5D09",
"2  c #FF4F16",
"3  c #FD5612",
"4  c #F55815",
"5  c #FF5C13",
"6  c #FF541C",
"7  c #FF5D1B",
"8  c #FF6301",
"9  c #FF6C02",
"0  c #FF640A",
"q  c #FF6B0C",
"w  c #FF7502",
"e  c #FF7B02",
"r  c #FF750B",
"t  c #FF7A0B",
"y  c #FE6214",
"u  c #FF6A13",
"i  c #FF641E",
"p  c #FF7513",
"a  c #FF7A14",
"s  c #F2761E",
"d  c #FF751B",
"f  c #FF7B1B",
"g  c #CD4C24",
"h  c #D74B22",
"j  c #D1462C",
"k  c #DB5220",
"l  c #D55733",
"z  c #D75A35",
"x  c #DF5A35",
"c  c #D75B39",
"v  c #E15426",
"b  c #EA5425",
"n  c #E1582D",
"m  c #ED5B2C",
"M  c #F05720",
"N  c #FF5721",
"B  c #F75B22",
"V  c #FE5B21",
"C  c #F35E2C",
"Z  c #E45E34",
"A  c #EA5E30",
"S  c #E25738",
"D  c #E0583A",
"F  c #CB733E",
"G  c #F56123",
"H  c #FF6120",
"J  c #FF6221",
"K  c #FE6225",
"L  c #FD6324",
"P  c #F56329",
"I  c #FF662B",
"U  c #FF672E",
"Y  c #FE652F",
"T  c #FE602F",
"R  c #FF7623",
"E  c #FF7B23",
"W  c #FF722E",
"Q  c #E76037",
"!  c #EA6133",
"~  c #ED6835",
"^  c #EB643F",
"/  c #F06131",
"(  c #FF6133",
")  c #FE6235",
"_  c #FF6A37",
"`  c #FF6439",
"'  c #F56839",
"]  c #FF6B3C",
"[  c #FB693B",
"{  c #FF7030",
"}  c #FF703F",
"|  c #FF6944",
" . c #FF8302",
".. c #FF8A02",
"X. c #FF850A",
"o. c #FF8C0B",
"O. c #FF930D",
"+. c #FF980D",
"@. c #FF8413",
"#. c #FF8B14",
"$. c #FF821D",
"%. c #FF8E1A",
"&. c #FF9316",
"*. c #FF9B13",
"=. c #FF931C",
"-. c #FF9D1D",
";. c #FFA315",
":. c #FFA11E",
">. c #FE8225",
",. c #FF8728",
"<. c #FD8E2A",
"1. c #FF9621",
"2. c #FF9D23",
"3. c #FF942F",
"4. c #FF9D29",
"5. c #FF8232",
"6. c #FF8139",
"7. c #FF9A34",
"8. c #FFA123",
"9. c #FFA12A",
"0. c #FFA433",
"q. c #FFAB35",
"w. c #F7A23B",
"e. c #FDA53A",
"r. c #FFAB3C",
"t. c #FFB43E",
"y. c #D2874A",
"u. c #E0834E",
"i. c #E28F4C",
"p. c #EE8D4D",
"a. c #F99B43",
"s. c #F49C5A",
"d. c #F4A347",
"f. c #FDA643",
"g. c #FFAA43",
"h. c #F5A54C",
"j. c #FDA64A",
"k. c #FFAD4B",
"l. c #FFB341",
"z. c #FFB846",
"x. c #FFB44B",
"c. c #FFB94B",
"v. c #FFA750",
"b. c #FAAA54",
"n. c #F3A15D",
"m. c #FFAB5A",
"M. c #FFB453",
"N. c #FFBA54",
"B. c #FFB45B",
"V. c #CA9674",
"C. c #DB9F76",
"Z. c #F0A362",
"A. c #FFAB65",
"S. c #FFB264",
"D. c #FFBA64",
"F. c #F6B46F",
"G. c #FEB46A",
"H. c #FFBE68",
"J. c #F0AD7E",
"K. c #FFB973",
"L. c #F2B57E",
"P. c #FDBC7B",
"I. c #FFC15C",
"U. c #FFC47D",
"Y. c #FFB784",
"T. c #FEBD85",
"R. c #F9C08F",
"E. c #F5C096",
/* pixels */
"                                                                                                                        ",
"                                                                                                                        ",
"                                                                                                                        ",
"                                                                                                                        ",
"                                                                3                                                       ",
"                                                            4 1 > K                                                     ",
"                                                            5 - > 5                                                     ",
"                                                          I > > > > /                                                   ",
"                                                        Y 5 - > > > Y +                                                 ",
"                                                      b 7 > > > > > 7 h                                                 ",
"                                                    m J > > > > > > - C                                                 ",
"                                                  v J > - > 1 - > > - Y .                                               ",
"                                                A i , - - , > - > > > J o                                               ",
"                                              ' 7 , > > > > > - , - , < g                                               ",
"                                            M y > > > > > - - > > - , > Q                                               ",
"                                          [ i - > > > > > - - > > - > - _ X                                             ",
"                                        | N - > > > > > > > > > > > - > 5 *                                             ",
"                                    S ` 6 ; > > > > > > , > > > - , > - > 5 O                                           ",
"                                  Z } V - > , > > > > , 8 , > > - , > - > i k X                                         ",
"                              & ~ G 4 > > , > - > > , 8 q 8 > > > - - > , 5 B x                                         ",
"                            z P y > > , , > - > > , 8 r d q , > > - - > , > 7 ( D                                       ",
"                          l I 1 > , , , > > > > > 8 9 a f p 0 , - > > > > > 3 2 ) j                                     ",
"                        ^ K = , , , > - - > , > , 9 a a p p p 8 > , > > > > > - ; `                                     ",
"                      Z K 1 > > > - - > > > - > 8 p f r w a a 9 8 > > , , > - > - 6 (                                   ",
"                    ! 7 > > > - > > - - - - > , d a a t t e t t t 8 > > > > > - > - 3 T                                 ",
"                  n L , > > > - - - > > - - > 0 d f a t t e e e a r 8 , > > > > - > > < b                               ",
"                Z K 1 - > > > > - - > > - - 1 u d f a t e e e e f E d 0 > > > > > > > > J                               ",
"              c V > - - > > > > - > > - - > y d d a a t e e e e f f f p 8 , > > , > - > 1 7                             ",
"              ] < > - > , > - > , , > - > , u d p a a t e e e e a f a a r 9 8 , , > > > > - 7                           ",
"            ^ 3 > > - > , > > 0 q 8 > - > 8 p p r t t t t e e e t r t a a t 9 8 - > > > > > >                           ",
"            _ = - > - - > > 0 d a w 8 , 8 w r t e e e t t a a r e w w e e e w 9 , , , > > > - =                         ",
"          ) 7 > > > > > > , 0 E a w 9 8 9 t e w e e e e t t t e e e e e e e e e t 8 > > > - - > -                       ",
"          < > > - > > > , 9 d p a t r t t w w e e e e e X.#.#.#... . .e e e e e e t 9 8 > > > > > -                     ",
"          1 - > > > > > 8 w a p r t t t t e e e e  .X.#.=.2.-.-.&.O.o... . .e e e e r 9 8 , > > > > >                   ",
"          1 - > > > > , 9 w p a r t e e e e e e e X.=.2.2.2.2.2.2.2.2.-.&...e w e e t r r 8 , > > > >                   ",
"        ; , - > > > > 8 w r p a r t t e e e e e X.#.2.4.2.2.-.-.-.2.2.2.2.=.#.X.e w e t a r 9 8 , - , ,                 ",
"        - > > > > > , 9 p r r a t e e e e e e  .=.2.2.9.2.2.2.2.*.-.2.2.2.2.2.1.X.e w w e t r r 0 > , > -               ",
"        > - > > > > 8 r a p r t t e e e e  . .X.2.2.2.2.2.2.8.8.-.-.-.-.2.2.4.4.1.#.t w w e r p q 9 > > , >             ",
"        > > > > > , 9 r a a t e e e e e  .X.#.=.2.-.-.-.-.:.:.:.8.8.8.-.2.2.2.2.4.1.#. .e e w w r t 8 > , - -           ",
"        > , > > > 8 w t a a t e e e e e  .#.1.4.2.2.-.2.8.8.:.;.8.8.8.8.2.2.2.2.9.2.=.#.X.e e w e e w 8 - > <           ",
"        > > - > > 8 e t a t e e e e X.%.1.2.2.2.2.2.8.8.:.:.:.:.:.:.:.:.8.8.8.8.2.2.4.1.#. .e e e w w t 8 > - 5         ",
"        > , > > 8 9 e t t t X. .#.%.=.2.2.2.2.2.2.2.8.8.:.:.:.:.:.:.:.:.8.8.8.8.2.2.2.2.=.#. .e e e e r 9 , > >         ",
"        < , > > 9 r t e e t X.o.4.4.4.4.2.2.2.2.2.8.:.:.;.;.:.:.8.8.:.:.:.:.8.8.8.2.-.2.2.-.o.e e e t p p 0 , > 5       ",
"          , > , p a t w e X.=.=.4.2.2.2.2.2.8.8.:.8.:.:.;.;.:.:.:.:.:.:.:.:.8.8.8.-.2.8.9.2.&. .e e a p p p 8 > :       ",
"          > > 9 f f r w e o.2.4.2.2.-.-.-.2.8.8.:.:.;.;.;.;.:.:.:.:.:.:.:.:.:.:.:.:.:.8.8.8.-.&.e e f p f f 9 , :       ",
"          > > r f f r w  .O.2.9.8.8.2.2.2.2.-.-.:.:.;.;.;.;.-.-.-.-.-.:.:.:.:.:.:.:.:.8.2.2.2.2.@.a f a a a w 8         ",
"            , p E f r e ..*.2.2.8.8.8.8.8.8.8.8.8.:.-.-.-.-.-.-.2.2.-.:.:.:.:.:.-.-.-.-.2.2.-.4.<.>.f f a e w 9         ",
"            y d E f t e ..*.2.2.-.-.;.8.8.8.8.8.:.;.;.;.;.;.;.;.2.-.-.:.:.:.:.:.-.-.-.-.8.8.8.2.7.,.f f a w w           ",
"              W R a e e ..+.2.8.:.;.;.:.:.;.;.;.;.;.;.;.;.;.;.;.*.;.:.:.8.8.2.2.2.2.8.8.:.:.8.9.4.%.X.t w w d           ",
"                6.f w e ..-.8.*.:.;.;.;.;.;.:.8.:.:.8.8.8.8.8.8.8.8.8.2.2.2.8.8.2.8.8.8.8.:.8.8.r. .w e a p             ",
"                { R r e  .*.8.-.8.2.2.2.8.9.0.e.e.r.g.g.g.g.g.g.e.0.9.4.4.2.2.9.8.8.8.8.:.-.-.2.0.4.@.w d               ",
"                  W d w w o.:.8.2.2.2.2.9.e.g.k.M.M.B.B.B.B.B.B.k.k.g.e.0.0.4.2.2.2.2.2.2.2.-.2.0.3.$.s                 ",
"                      d r X.*.:.-.8.2.2.9.r.x.M.B.B.S.S.S.S.S.S.B.M.M.x.k.r.0.0.9.2.2.2.2.2.2.2.3.>.                    ",
"                        5.$.=.8.2.8.8.2.9.r.x.M.B.B.S.S.S.S.S.S.B.M.M.M.x.x.l.r.0.9.2.4.9.0.4.7.                        ",
"                            <.4.-.8.8.8.9.t.z.x.M.B.B.B.B.B.B.B.M.M.x.z.z.z.z.t.t.q.0.0.0.e.                            ",
"                                7.0.0.9.0.l.z.x.M.M.M.M.M.M.M.M.N.N.M.x.x.x.c.N.N.x.k.j.b.                              ",
"                                  a.j.f.w.w.x.I.k.M.B.M.M.x.x.x.B.B.B.B.B.D.D.S.G.F.P.T.                                ",
"                                    n.S.S.b.h.d.H.H.D.B.M.M.c.N.m.A.S.G.P.P.P.L.R.E.                                    ",
"                                        y.Z.K.U.A.S.G.S.B.B.M.B.P.T.T.T.Y.J.C.V.                                        ",
"                                            @ $ i.s.A.G.S.B.M.v.p.u.F % #                                               "
};
