/* XPM */
static char *_a20461d755f4a34d4e1522b6f11357de353KFqTJ8cNJhKR[] = {
/* columns rows colors chars-per-pixel */
"60 60 198 2 ",
"   c None",
".  c #1B0002",
"X  c #190012",
"o  c #1A0018",
"O  c #210003",
"+  c #2D0001",
"@  c #250008",
"#  c #330000",
"$  c #3C0000",
"%  c #280216",
"&  c #380619",
"*  c #430000",
"=  c #4A0202",
"-  c #530302",
";  c #5A0402",
":  c #500A08",
">  c #5E110D",
",  c #470F17",
"<  c #57141A",
"1  c #670702",
"2  c #750400",
"3  c #7E0D00",
"4  c #6D1202",
"5  c #791D0C",
"6  c #711203",
"7  c #681715",
"8  c #7B1F10",
"9  c #6B201F",
"0  c #782219",
"q  c #5D1F27",
"w  c #651B22",
"e  c #5E2C36",
"r  c #602A34",
"t  c #6B313B",
"y  c #78353A",
"u  c #861601",
"i  c #8B1B02",
"p  c #8A1B05",
"a  c #962608",
"s  c #832312",
"d  c #882718",
"f  c #862B1F",
"g  c #9C361B",
"h  c #B12D02",
"j  c #A9300A",
"k  c #BA380A",
"l  c #AB3E1F",
"z  c #AB3313",
"x  c #B63B17",
"c  c #8A3737",
"v  c #A93F2C",
"b  c #C23A09",
"n  c #C53E14",
"m  c #B7401B",
"M  c #9E4438",
"N  c #A74229",
"B  c #BE4B2C",
"V  c #AC4634",
"C  c #B74D34",
"Z  c #C7421C",
"A  c #DC4918",
"S  c #E84C04",
"D  c #FF4600",
"F  c #FF4E00",
"G  c #F54F08",
"H  c #FF5400",
"J  c #FF5B01",
"K  c #F4520B",
"L  c #FF560C",
"P  c #FF5B0B",
"I  c #F65004",
"U  c #EC531D",
"Y  c #ED5C1E",
"T  c #E45517",
"R  c #F45314",
"E  c #F65811",
"W  c #FE5C13",
"Q  c #F55C1D",
"!  c #FD5C1B",
"~  c #DE641C",
"^  c #EE6207",
"/  c #FF6300",
"(  c #FF6B01",
")  c #FF6B0B",
"_  c #FF620B",
"`  c #FF7401",
"'  c #FF7A02",
"]  c #FF740B",
"[  c #FF7B0A",
"{  c #F47700",
"}  c #FE6213",
"|  c #FF6B13",
" . c #FF621B",
".. c #FF7214",
"X. c #FF7B13",
"o. c #FF7518",
"O. c #FF7B1C",
"+. c #C54D28",
"@. c #D4542B",
"#. c #D9522A",
"$. c #DA5124",
"%. c #CA5536",
"&. c #C6573E",
"*. c #D45A35",
"=. c #DC5E3B",
"-. c #EA5421",
";. c #E4542B",
":. c #EE5A2B",
">. c #E65B26",
",. c #F55E22",
"<. c #F95C21",
"1. c #E35F33",
"2. c #E15F38",
"3. c #DC6238",
"4. c #ED612A",
"5. c #F46126",
"6. c #F4632A",
"7. c #FD642A",
"8. c #FF692D",
"9. c #FF6321",
"0. c #EC7624",
"q. c #EB6232",
"w. c #EC643A",
"e. c #EB6C3D",
"r. c #E56139",
"t. c #F46734",
"y. c #FA6436",
"u. c #FF6C31",
"i. c #FE673A",
"p. c #FD6A3A",
"a. c #F1683C",
"s. c #8F4747",
"d. c #974E4C",
"f. c #8B4F52",
"g. c #B55846",
"h. c #A25456",
"j. c #BF604F",
"k. c #BB6E6C",
"l. c #C25A49",
"z. c #D66345",
"x. c #CB6155",
"c. c #D86E5F",
"v. c #DE6B51",
"b. c #E36541",
"n. c #EC6A42",
"m. c #E76C4A",
"M. c #EF7349",
"N. c #FC7342",
"B. c #F97656",
"V. c #FF8300",
"C. c #FF8903",
"Z. c #FF830B",
"A. c #FF8C0C",
"S. c #FF9000",
"D. c #FF940A",
"F. c #FF9E0D",
"G. c #FF8412",
"H. c #FF8C13",
"J. c #FF8519",
"K. c #FF8C1C",
"L. c #FF9313",
"P. c #FF9D15",
"I. c #FF931C",
"U. c #FF9D1C",
"Y. c #FFA205",
"T. c #FFA30E",
"R. c #FFA115",
"E. c #FFA21B",
"W. c #FFAB1B",
"Q. c #FF8E23",
"!. c #FF9624",
"~. c #FF9C25",
"^. c #FF9429",
"/. c #FF9D2A",
"(. c #FF8831",
"). c #FF9634",
"_. c #FFA223",
"`. c #FFA42A",
"'. c #FFAA2E",
"]. c #FFA433",
"[. c #FFA830",
"{. c #FFA23C",
"}. c #FFAB3B",
"|. c #FFAC43",
" X c #FFAD4C",
".X c #FFA445",
"XX c #FFB24E",
"oX c #FFAE57",
"OX c #FFAF59",
"+X c #FFB153",
"@X c #FFB45C",
"#X c #FFAD64",
"$X c #FFAD69",
"%X c #FFB663",
"&X c #FEB56D",
"*X c #FFB96E",
"=X c #FBB675",
"-X c #FFBC70",
/* pixels */
"                                                                                                                        ",
"                                                      O &                                                               ",
"                                                    $ 9 t X                                                             ",
"                                                O = s j.d..                                                             ",
"                                              X - v 3.m.M +                                                             ",
"                                              & V r.p.q.l $                                                             ",
"                                            o w m.,.E ,.@.1                                                             ",
"                                            % c w.L J P 4.a #                                                           ",
"                                              7 w.I } F u.k =                                                           ",
"                                              * +.u.H H K n.=   , e %                                                   ",
"                                                1 1.9. .S n.-   5 g.7 .                                                 ",
"                                                  u >.,.t.B = + a M.C - +                                               ",
"                                                  * &.b.z.6   # n 7.w.B 8 # .                                           ",
"                                                    M g.0     = $.I <.t.*.N 0 # .                                       ",
"                                    r               <         $ ;.H L W 7.N.%.s : @                                     ",
"                                  f.k.y           q y         ; -.L W L H K ,.M.g > O                                   ",
"                                  s.c.l.      ; %.v.c       * a ! H H H H L L E Y +.=                                   ",
"                                    x.c.h.  4 *.7.:.p # + $ 3 ;.L H H H J H H H P >.5                                   ",
"                                            l a.K 8.Z 2 2 j A ! H H H H H H H H P 5.V                                   ",
"                                          f b.Q H P Q U U R L P H F H H H H H H H 5.l.                                  ",
"                                          C y.L H H H  .W H F H H F H H H F H J F ,.l.                                  ",
"                                          *.! F F H H F F H H F H H H J H F H J H 5.V                                   ",
"                                        i p.! F J F D H P F D / H H J / J H F H P 6.d                                   ",
"                                        x 7.F H F J H D H J H H H H / ( / H F H P 1.                                    ",
"                                        h  .H H H H F H H H H J H / ..) J H H H W @.                                    ",
"                                        k W F H H H H H H H H J H / o.| J H H J Q x                                     ",
"                                        b P D H H J H H F H H J H ) O.../ H H L 5.i                                     ",
"                                        b P F H J H H H H F F J / ] O.../ H H L 7.                                      ",
"                                        A J H J L H J / / H H J ] X.X.` / H H P 5.                                      ",
"                                      u ! J H J P L / ` ( J J ( X.[ [ ` / H H J Q i                                     ",
"                                      n } H H H J } | ..` ` ] ..X.' ' ' ( J H H ! m                                     ",
"                                    n ! J F J F H | o.] ` X.O.X.[ ` ' ' ` / H H  .1.-                                   ",
"                                    <.! H H H J J ] ] ` ' ' ] X.Z.[ ' ' ' ` J H F 7.x                                   ",
"                                  L  .L F F F H / ` ' ' ' ' ] X.K.Z.' [ [ ' ( J J J -.a                                 ",
"                                  } P F H H H H ( ` [ ' [ ] ] J.!.K.Z.[ [ [ ` ( / H 8.=.4                               ",
"                                Y H H F H H H J ` [ [ ' [ [ X.K./.!.H.Z.' ' ` ] / P ! a.&.7                             ",
"                                E J H H H H H / ` [ ' ' [ ] X.Q./.U.I.H.' ` ` [ ( ..I U B.v                             ",
"                              6.J J H H H H / [ ` ' ' ' [ ] X.^.U.E.~.I.Z.' ` ' ] O.P G i.b.a                           ",
"                            q.W H H H H J / ` [ ' ' ` ' [ [ X.^.P.R._.!.I.G.' ' [ ] ) H R p.$.                          ",
"                            7.H H J H J ( ' ` ` ' ' ' ' Z.' G.^.P.R._._.!.I.Z.' ` ` ] / H ! ,.z                         ",
"                            L H H H J ( ' ' ` ' ' ' ' ' ' [ K.!.E.R.R.`.`.!.G.' ' ` ] ( H J ! #.                        ",
"                          2.H H H H / ` ' ' ' ' V.C.Z.V.' V.K./.R.R.R._.`.~.H.' ` ` ` ` J H L :.                        ",
"                          w.H H H J ( ' ' ' ' V.L.I.L.A.V.V.I.`.R.R.R.E.`.`.I.' ` ` ` ` / H H y.                        ",
"                          n.H H H / ] [ ' ' C.L.P.U.U.L.C.A.U._.R.R.R.R._.`.L.' ' ` ` ` ( H F i.                        ",
"                            J H H ( X.' ' V.L._.E.U.P.P.P.U.U.R.P.E.E.E._.~.A.` ' ` ` ] ) H H p.                        ",
"                            P H H ) X.' ' H._.`.E.P.P.P.E.E.E.P.R.R.E._._.I.C.' ' ` ` ..| P P w.                        ",
"                            W H J ) X.[ Z.U.`._.E.R.P.P.R.E.R.R.E.R.P._.U.D.C.C.Z.' [ .._ W W #.                        ",
"                              J J ) O.X.H.`.`.P.E.R.R.F.F.F.T.R.W.R.P._.!.H.A.I.I.[ X.o.P ! Q                           ",
"                              4.J ( O.X.J.!.`.`._.R.R.R.R.T.Y.Y.W.Y.P.`.`.!.I.!.I.` ` O.} 6.e.                          ",
"                                 .( ( [ Q.].~.L._._.E.R.R.R.R.R.R.R._.`.].].^.!.A.` Z.O.T 3.                            ",
"                                  ( ] [ Z.I.~._.E.E._._._._.`.`.'.[.[.`.~.`._.P.S.V.' ^ e.                              ",
"                                    ..X.G.H.U.P.P.R._.`.].}.|.|.|.|.|.].~.U.P.D.C.C.] ~                                 ",
"                                        O.[ A.P.F.R._.}. X+X%X%X X XXXXX}./.U.L.A.{ 0.                                  ",
"                                          (.^./.P.U.[.|.+X%X*X-X%XOXoXoX X.X{.{.).                                      ",
"                                                ).{.|.+X@X%X&X&X-X&X#X#X$X$X                                            ",
"                                                            =X=X&X=X                                                    ",
"                                                                                                                        ",
"                                                                                                                        ",
"                                                                                                                        ",
"                                                                                                                        "
};
