/* XPM */
static char *result[] = {
/* columns rows colors chars-per-pixel */
"60 60 244 2 ",
"   c #3B120B",
".  c #251619",
"X  c #331813",
"o  c #3E231C",
"O  c #382626",
"+  c #45150A",
"@  c #48170A",
"#  c #4D1B0D",
"$  c #501D0E",
"%  c #531F12",
"&  c #44241B",
"*  c #552A1C",
"=  c #5C351C",
"-  c #692E1D",
";  c #69351C",
":  c #793B1D",
">  c #452B24",
",  c #482A25",
"<  c #572C23",
"1  c #4B332D",
"2  c #573628",
"3  c #472A34",
"4  c #483937",
"5  c #4B3B3A",
"6  c #533C35",
"7  c #563C34",
"8  c #712C21",
"9  c #633727",
"0  c #6C3321",
"q  c #6D3B24",
"w  c #6D3C29",
"e  c #793726",
"r  c #733B23",
"t  c #7C3D24",
"y  c #723D2A",
"u  c #7C3D2A",
"i  c #683E34",
"p  c #48403C",
"a  c #57423A",
"s  c #684327",
"d  c #6D432B",
"f  c #724326",
"g  c #7D4324",
"h  c #74442A",
"j  c #7C442B",
"k  c #76482A",
"l  c #7D492B",
"z  c #7B512D",
"x  c #684738",
"c  c #724433",
"v  c #754936",
"b  c #7C4934",
"n  c #7A4D3B",
"m  c #7D5439",
"M  c #493B44",
"N  c #4A3E44",
"B  c #4B4143",
"V  c #4B4249",
"C  c #534444",
"Z  c #5A4C48",
"A  c #5A5250",
"S  c #5B5453",
"D  c #6C4C44",
"F  c #65524A",
"G  c #6D554D",
"H  c #755746",
"J  c #7C5543",
"K  c #635553",
"L  c #695754",
"P  c #655B5A",
"I  c #6B5C5C",
"U  c #735A57",
"Y  c #77635A",
"T  c #7A6C65",
"R  c #7D736B",
"E  c #823D2A",
"W  c #823931",
"Q  c #83421F",
"!  c #834524",
"~  c #8A4726",
"^  c #854A26",
"/  c #84442B",
"(  c #8A462C",
")  c #834A2B",
"_  c #8C4B2C",
"`  c #954C26",
"'  c #934D2C",
"]  c #9A4D2D",
"[  c #89542B",
"{  c #8A532D",
"}  c #93532C",
"|  c #9C532E",
" . c #97592C",
".. c #844431",
"X. c #854B33",
"o. c #8C4C33",
"O. c #894A36",
"+. c #924D33",
"@. c #974E35",
"#. c #845333",
"$. c #8D5234",
"%. c #83523B",
"&. c #8C533B",
"*. c #8A5A39",
"=. c #945333",
"-. c #9B5433",
";. c #925836",
":. c #9C5B34",
">. c #92533A",
",. c #9B5638",
"<. c #955C3B",
"1. c #9C5C3B",
"2. c #A2512E",
"3. c #A15533",
"4. c #A25C35",
"5. c #AA5E36",
"6. c #A35D3A",
"7. c #8A623C",
"8. c #9B623C",
"9. c #9A693B",
"0. c #A46334",
"q. c #AA6536",
"w. c #A66936",
"e. c #A96B36",
"r. c #A4633A",
"t. c #AB653C",
"y. c #A56A3C",
"u. c #AC6B3C",
"i. c #B1653C",
"p. c #B56B38",
"a. c #B26C3C",
"s. c #AA753A",
"d. c #AE733C",
"f. c #B2733D",
"g. c #B9743D",
"h. c #B37A3E",
"j. c #BA7B3E",
"k. c #C3783C",
"l. c #845A45",
"z. c #8C5B42",
"x. c #855948",
"c. c #975B43",
"v. c #945C44",
"b. c #A95F44",
"n. c #8B6449",
"m. c #9B6444",
"M. c #9B6946",
"N. c #93674A",
"B. c #9C644A",
"V. c #9D6A4A",
"C. c #9E7147",
"Z. c #866B58",
"A. c #966A53",
"S. c #927356",
"D. c #A76441",
"F. c #AA6443",
"G. c #A36B44",
"H. c #AB6B42",
"J. c #A0654B",
"K. c #A26B4A",
"L. c #AC6C4A",
"P. c #B36E42",
"I. c #B56A45",
"U. c #A37345",
"Y. c #AD7243",
"T. c #A9784A",
"R. c #B47442",
"E. c #BB7643",
"W. c #B57A43",
"Q. c #BB7B44",
"!. c #B2744C",
"~. c #BA7649",
"^. c #B57C4C",
"/. c #BB7D4A",
"(. c #A77953",
"). c #B57B53",
"_. c #826861",
"`. c #897465",
"'. c #957A66",
"]. c #8A7671",
"[. c #C27E44",
"{. c #C47D47",
"}. c #BB823E",
"|. c #A6834E",
" X c #B58243",
".X c #BC8244",
"XX c #BD834A",
"oX c #B88448",
"OX c #BE8A4A",
"+X c #A9835A",
"@X c #B58657",
"#X c #BC8454",
"$X c #BE8A53",
"%X c #BB8B5C",
"&X c #BE9456",
"*X c #AE8962",
"=X c #B78A66",
"-X c #BD966A",
";X c #B69A73",
":X c #C28446",
">X c #C38A45",
",X c #C2854B",
"<X c #CA874A",
"1X c #C48B4C",
"2X c #CB8C4D",
"3X c #CB9847",
"4X c #C6914C",
"5X c #CB944D",
"6X c #CC994E",
"7X c #D1974D",
"8X c #C28551",
"9X c #C58C53",
"0X c #CA8D53",
"qX c #C38C5B",
"wX c #C98E58",
"eX c #C59253",
"rX c #CB9453",
"tX c #CD9953",
"yX c #C3945C",
"uX c #CC955B",
"iX c #C69B5A",
"pX c #CD9A5B",
"aX c #D09453",
"sX c #D19C54",
"dX c #D49658",
"fX c #D29C5B",
"gX c #DA9E5B",
"hX c #D4A156",
"jX c #D5A25B",
"kX c #DAA55C",
"lX c #CA9662",
"zX c #C69865",
"xX c #D39B62",
"cX c #D79A66",
"vX c #D4A564",
"bX c #DBA963",
"nX c #D7A66A",
"mX c #DAAB6C",
"MX c #DCB06E",
"NX c #C8A47B",
"BX c #DCAD72",
"VX c #E0A965",
"CX c #E0B176",
"ZX c #AB9A95",
/* pixels */
";X;XNX-X+X|.-XbXvXnXnXnXvXvXnXvXvXvXmXmXnXnXMXMXmXMXMXCXmXnXmXBXBXCXCXCXCXCXmXBXmXBXnXlXmXBXmXnXnXnXnXnX-X@X&X;XNXNX-X+X",
"NX+X9.@X&XT.OXjXdXdXgXhXhXhXsX1XOXsXhXhXhXhXhXhXhXhXkXhX6X5XhXjXkXjXbXkX6X6XhXsXfXkXfXtXfXfXfXvXjXgXfXxXOXT.&X$X9.|.zX+X",
"-X@X@X@XC.m.#XcXdXdXuXuXpXpXuXeXiXpXpXpXvXpXfXpXpXpXpXpXpXpXfXfXfXjXvXjXtXtXpXpXpXpXfXuXuXpXxXxXxXfXlXlX@X9.|.@X|.OX@XA.",
"m.8.9.9.7.w w u t f f f h h h h f f f k d k k k k k k k k k d k k k h f f f f f f f k d f d f h h f h s s s 7.9.9.8.<.m ",
"zXeXeX&X*Xx   @ @ @ @ @ # # # $ # @ # $ # $ # @ @ * $ * # @ @ $ % % @ @ @ # # # # + + @ @ @ # # @ @ +   X i *XqXqXwX{.K.",
"nXhXkXMXzXz ; g g ^ ^ g o.o.=.;.;.^ { ;.;.<.;.z =.<.1.<.;.g ^ ;.<.<.=.^ ^ ;.$.$.*.l l O.X.#.o./ / X.j r * k -XBXbXcXcX!.",
"nXdXgXbXpX*.[ q.p.E.R.0.W.8X9X9X,XW.OX0XeXeX$XY.OXuXtXpX1Xs. XrX1X1X1Xh. X9X1X1X$XY.f././././.e.q.E.e.w.^ [ zXmXvXvXxXU.",
"nXxXjXVXlX;.` p.k.:X.Xs.oXrX5XrX2XoX1XuXeXtXrX X&XjXhXpXeX XOXtX6X5XuX XOXtXtXuX1XW.Q.2X2X2X2Xf.h.k.g.p.` #.qXnXdXfXfX(.",
"mXcXjXnXiX7.[ d.Q.OX#Xs.oXrXsXdX0XoX4XpXsXsX6X}.4XjXjXhX&X XOXtXsXhXpXoXOX3XsXtX5XXXoXrX2XrX&X}.W.:X[.p. .z iXfXrXdXlXT.",
"zXzXzXzX*Xm *.N.N.+X*XN.C.%XlXzX#XoXqXpXtXpXeX.XtXjXjXbXiX}.&XhXsXhXfXXX>X5XtXrXeXT.(.+X%X@X@XC.+X@X).(.7.m *X-X+X@X=XA.",
"Z.S.S.`.`.Y Y Y Y R ].Z.Z.`.'.'.S.S.+XiXiXhXrX1XpXjXjXbXiX XOXhXhXhXsXXX>X6XsXiX*XS.'.+X'.'.+XR _.].'.'.Z.Y T T T _._.T ",
"a Z Z S K L L P P P P P P P I L G J 7.|.iXtXrX1XuXvXjXvXiX}.&X6XhXhXfX>X>X7X7X&XS.H U I I I I P L I I P P P S A A A A L ",
"p 1 6 5 5 4 6 1 4 a a a p a x D x d 9.&X6X6X3X>XsXjXjXpX6XoX&X6XhXhXhXOX>X7X7XpX|.z a a D a 2 2 a a 1 1 6 6 6 6 3 3 4 5 ",
"n.n.n.N.n.w s d s m n.z z U.(.+XT.s.&X6X3X3X3X>XrXhXjXhX4X X1X6X6XsXfX.XOX6X7XsXiXT.M.(.U.V.7.z *.N.*.k 0 = m <.O.j m 2 ",
"iXpXtXfXlX*.[ w.9.^.#XH./.wXrXdXeX}.OX3X3X6XeXoXeXfXhXpXeX.XOX3X7XsXfX.X}.3X7XsXrXoXoXyX0XeX&Xs.Y.OX/.H.[ z $XfXrX0XwXV.",
"pXtX7XkXuX{ } p.W.XX^.R.8X5X2X5X2X}.OXrXiXtXeX X$XrX4XtXrXoXOXtXsXfXuXoX>X5XtXtXeX XoX0X2X4X>Xs.h.XX[.f.[ [ %XjXdXdXdXT.",
"xXuXsXjXyX*.{ a.g.XX/.Y.oX2X5X7X>Xj.>X7X5X4XeXW.OXtX7XtXrXoX1XtXsXsXuX.X1X5XtXtXiX XoX0X2X2X1Xh.j.:X{.k. .#.=XcXsXdXrXU.",
"lXuXaXsXqX#.{ a.E.Q./.d.oX:X2XaX>Xj.>XaX5X5X1XW.$XtXsXpX4X X1XsXsXtXuX X>XtXrXrXwX^.XX0X2X>X1Xf.j.<X{.E. .$.=XcXdXaX0XU.",
"lXeX5XdX$X[ [ a.[.[.Q.f.j.1X1XaX1Xh.,XrX4X4XOXh.eXpXtXtX1XoX8XuXrXsXuX}.}.4X5XuXwXoXQ.0X<X1X1Xd.f.,X:Xg. .*.qXxX0X:XqXU.",
"lX8X>XrX$X$.{ u.E.[.Q.f.j.1X2X5X1Xh.:X5X4X4X>Xh.1XtX6X5X1X X1XuXuXtXrX}.}.4XrX9XqXW.W.1X<X0X9Xf.f.[.j.h. . .=XuX,X0XwXU.",
"lX9X>XrX8X{ [ e.g.{.Q.a.Q.1X2X4X,Xs..X4X4X4X>Xh.OXrX5X4X1XW.OXrXrXrXrXQ.}.2X1XwX9Xh.W.1X1X2X8Xf.d.Q.[.g. .[ %XyX9XwX0XU.",
"zX0X2XaX#X#.^ q.f.Q.Q.f.[.>X}.2X>Xf..X>X>X>XOXs.OXeXrX4XoXd.oXeX1XrX0X X.X5X2X0X9XW.W.1X,X0X0Xd.u.Q.[.f. .[ @XuXwXdXwXU.",
"wX0X2XaX$X{ ^ r.a.Q.~.e.f.}.}.1X:Xf.:X2X>X>X}.h.OX9XrX4XXXd.W..X1X1X1Xh..X4X1XeX$XW.W.9X2X0X8Xu.u.Q.E.p. .[ #XeX2XwX9XM.",
"wX0X2X2X8X{ _ q.a.f.E.e.f.[.>X,X.Xs.j.1X2X>X.Xh.OX9X4X5XXXs.W.,X1X1X1Xj.}.>X,X9X1Xd.W.1X<X0X,Xa.u.W.E.p.} $.@XuX,X1X8X9.",
"qX1X<X2X,X{ ^ 0.q.R.a.0.f..X>X,XQ.d.h.:X:XOXoXf./.9XrXeXOXd./.9X1X1X2XQ.j.>X,X8X,Xs.h.,X[.,XXXd.f.~.g.a.` [ #XwX,X,X8Xy.",
"qX,X<X<X,Xo.^ 4.q.R.a.w.f.j.Q.,XW.f.W.1X.X.XQ.d.XX9X1X9XXXf..X9X1X1X9Xh.j.XX,X,XXXe.d.Q.[.[.^.H.f.~.E.a.} [ #X0X{.:X8XD.",
"8X,X:X:X/.#.^ 0.q.a.q.0.f.Q..X:XW.f./.,X}..XQ.s./.8XOX1XXXd.W.1X:X1X1Xh.}.,XXX,X.Xs.s.:XQ.Q.R.r.y.~.R.q.` { #X8X{.{.,XG.",
"$X8X:X<X^.) ^ 6.i.P.q.0.e.[.:XQ.E.h.Q.>XQ.j.Q.e.W.,XXX1XXXd.W.,X,X,X,Xf.h.XXQ./.Q.d.d.[.E.^.(.Z.A.A.K.q.` $.).wX,X{.XXG.",
"8X^.R.{.).l ^ 4.i.i.q.0.a.[.[.[.W.d.E.Q.k.j.j.d.W.XX,X9XXXd.h.,X,XXX/.d.f.Q.^.^.W.y.s.[.W.A.].ZXZX].J ;.[ #.#X8XW.Q.XXG.",
"#Xd.0.E.!.) Q | 5.i.t.0.a.[.E.E.f.e.Q.Q.g.j.W.e.!./.,X8XQ.d.W.XXXX/.W.e.a.W.~.R.^.u.e.R.9.v Z T ].A 1 9 d #.@X#Xe.d.W.G.",
"#X^.Q.,X^.) Q | 5.i.t.0.f.E.E.W.R.w.R.Q.j.j.W.d.W./.XX8XQ.s.h.XXXXXXQ.d.e.~.W.a.g.e.e.W.m.a O . . . X = h b ).{.~.Q.W.9.",
"/.~.~.{.!.^ : | 3.t.r.4.e.R.E.W.d.w.f.W.f.f.f.y.W.^./.XXW.e.R.Q.W.oXQ.e.e.W.f.p.g.0.r.P.Y.#.> X . . * l ) X.).).E.W.~.8.",
"/.u.a.Q.!.l : ` 2.i.r.:.e.f.R.f.Y.w.R.W.f.f.d.y.Y.R.W.XXW.w.d.Q.W.W.W.w.e.P.q.p.p.0.0.a.P.L.<.w 9 q ^ :.~ ^ !.).P.g.W.1.",
").a.a.{.!.) : ` 2.q.6.:.t.P.g.P.u.0.w.R.f.a.R.y.Y.Y.W./.h.w.d.W.f.R.R.w.e.R.R.P.R.0.r.H.i.I.H.1.,.:.4.-.Q ^ !.~.E.f.R.8.",
").R.a.E.!.j : ` ] 3.:.:.t.a.a.a.u.8.r.R.p.p.u.w.H.!.~.^.R.0.e.R.f.R.R.0.0.a.H.R.L.8.8.F.H.F.t.4.3.q.4.:.: g !.~.f.a.R.1.",
"~.P.a.I.L.b t ' ` -.:.,.t.I.a.t.q.1.w.a.p.a.e.r.H.R.a.R.d.0.w.R.d.f.R.0.w.H.P.u.H.8.8.K.F.t.4.3.3.t.4.=.! ) !.!.q.e.H.8.",
"!.H.q.P.L.j r ' ] -.,.=.5.i.i.q.r.:.q.u.q.a.e.8.y.H.u.Y.u.0.w.R.u.d.f.0.4.a.u.i.p.4.1.K.D.r.4.| :.4.4.| g l L.~.t.q.u.<.",
"Y.u.q.I.L.j : ( } ,.,.=.6.t.i.t.0.:.r.r.r.q.q.0.y.u.u.u.u.0.0.u.u.e.e.0.4.u.H.q.e.:.:.D.D.r.0.| :.6.3.| ! ) L.I.i.a.P.<.",
"U.t.u.I.L...e ' @.,.-.=.6.t.t.i.q.:.0.8.r.r.r.:.q.u.y.H.u.:.8.e.u.e.u.0.0.t.t.r.q.:.1.D.t.0.4.=.-.3.3.| g l L.E.i.i.u.;.",
"L.i.i.I.L...e ( ] | -.] 3.i.b.5.5.| 4.0.r.w.w.:.r.u.H.H.y.:.4.e.t.u.H.4.:.4.r.4.r.4.6.6.6.4.0.| -.3.] | : g L.I.q.u.H.&.",
"I.q.5.I.F.j : ( ` ] ] ` 3.6.6.5.6.2.0.t.4.q.r.:.1.H.u.H.r.} :.u.y.q.e.4. .:.4.:.4.-.1.6.6.4.4.=.=.-.] ' : g H.I.t.t.G.<.",
"H.5.q.u.G.j : / +.@.,.{ :.4.6.6.3.| 4.t.6.D.1.,.6.r.H.F.:.} :.r.r.0.q.:.4.r.4.4.4.| 1.r.1.4.:.=.=.,.@.` t j L.i.5.6.D.<.",
"K.0.D.F.K.c w O.&.z.&.$.<.6.6.6.4.} 1.r.D.6.1.| 4.t.t.t.1.} :.r.r.0.r.:.:.4.6.4.8.=.;.v.1.c.1.$.&.>.&.O.f h K.H.6.m.m.*.",
"A.N.c.J.A.D c D v D J n %.v.c.c.<.$.:.r.8.0.4.| 4.r.r.r.4.=.:.8.1.r.r. .:.6.6.1.m.&.l.n.A.N.n.J x.x.x.J x H Z.Z.Z.J x.J ",
"F G Y G U L K G G K U L L U _.Z.x.X.;.:.3.0.4.-.:.r.6.6.:.} ,.:.:.8.:. .| 6.1.c.x.U T U I U T U I I I T K P P S P I P K ",
"4 O a 5 N N M 7 6 a a C N C Z F x c <.1.4.4.6.=.1.6.6.6.=.} ,.:.1.1.:.} } :.1.v.v 7 4 N C C M M N M M O M V M 4 O M 4 Z ",
", < * = 1 > > , , 1 2 1 < 7 i i h j =.:.3.4.1.=.,.6.6.6.,._ =.1.;.1.:.} } -.3.c.c.i < 7 7 2 < & 3 < & & O O , < & o > > ",
"*.o.o.$.&.9 < 9 9 c b u ..>.@.O.@.' ' } } -.,._ @.-.3.6.-._ ' :.=.:.1.} ' -.,.3.@.o.O.z.&.o.W e b b w 0 = ; z.>.X.b m v ",
"m.1.,.4.1.e : e / ..o./ +.@.@.@.@.E ~ _ ' =.=._ +.-.| 1.,.~ _ =.} =.:.' { ,.-.' =._ o.>.@.@.+...o.( E E 0 d B.F.,.,.1.z.",
"c.:.,.3.6.e 8 W ..O.) g X.o.o...' E E +.} =.+.( +.,.=.1.=._ _ ;.{ =.-.[ _ =.=.=.+._ _ +.@.( ~ ! / / ! E - q V.D.3.3.,.O.",
"6.,.2.6.c.y 9 i i c c c c v b x.O.u ..>.>.+.+.( +.=.,.,.=._ $.;.=.o.=._ _ +.@.' ' ! ( +.+.o.( ! / _ / / - q m.r.] -.-.O.",
"1.,.] 3.v.x 7 Z A F K K L L L D D J v O.o.+.o._ o.o.} =.=.( _ } { =.=.( ~ +.' ' +./ ..@.+.o...g ^ O...W - y m.6.] ] ,.O.",
"c.] ] @.z.7 1 4 5 5 M M V V B 5 7 2 9 ..o.+.( ( _ _ ' $.$.^ _ _ _ _ +.~ ! ' ( ( _ E ..>.+.&.X.h j O...W 0 y c.b.2.3.3.O.",
"@.] 2.3.c.9 & > > , 1 O O O > 1 < < y ..( ( ( E / o._ o._ / ^ o.! ( o.! E ( ( ( ~ E / o.o.+.o./ ) ( E E 0 r c.1.] ,.,.O.",
"=.+.] ,.>.w * < < 2 w = < 2 9 x c y ....W o.o.W / ../ ....u E ../ ..O.u e / ( / j : g / / ..) g j / t e - q v.1.-.=.>.X.",
"%.) _ o.%.9 < < 9 q 0 ; ; q r h y y r j j j y q w y u j f 0 r j j j j ; q y h r : ; r t r r r ; ; r e ; * 2 z.*.$.+.o.b ",
"A.A.N.V.z.n l.c.B.m.m.8.m.m.J.K.B.m.V.V.V.V.V.V.B.K.K.K.K.V.M.M.N.m.m.M.M.M.N.M.V.M.B.B.J.J.m.m.M.B.c.c.m v n.V.B.J.B.b ",
"x.z.n.z.z.%.c.b.5.r.r.8.r.F.F.F.D.F.F.u.y.r.F.r.F.F.F.t.u.t.t.F.r.t.D.r.y.r.H.H.H.L.H.D.5.b.F.b.D.5.b.b.o.X.n.z.N.v.z.J ",
"l.c r b %.u / =.@.=.=.-.-.-.,.' ` -.-. .| | ' | | 3.2.4.| ' -.-.-.:.1.=.} =.:.-.@.3.3.] @.,.,.=.' ' ( @./ j &.b w b x.v ",
"J n %.%.b w / o.>.>.>.$.>.;.>.>.&.>.>.&.>.&.$.$.&.o.=.<.>.&.&.&.&.&.*.&.&.O.&.o.&.>.>.>.>.>.&.O.O.O.&.&.b d n x.x.x.J x "
};
