/* XPM */
static char *result[] = {
/* columns rows colors chars-per-pixel */
"60 60 51 1 ",
"  c #67594B",
". c #6B5C4D",
"X c #6C5E51",
"o c #705F51",
"O c #70604F",
"+ c #6E6255",
"@ c #6E645B",
"# c #6F6859",
"$ c #716254",
"% c #71665B",
"& c #736B5D",
"* c #786A5E",
"= c #756D61",
"- c #7A6E63",
"; c #7A6F68",
": c #777062",
"> c #7A7165",
", c #7D746A",
"< c #7F7771",
"1 c #7E7870",
"2 c #807067",
"3 c #81756C",
"4 c #82786E",
"5 c #817770",
"6 c #847B73",
"7 c #897E75",
"8 c #867E79",
"9 c #8A7F78",
"0 c #8A8077",
"q c #87807A",
"w c #8C837C",
"e c #90867E",
"r c #8E8681",
"t c #8F8984",
"y c #918781",
"u c #938B84",
"i c #998E87",
"p c #958E89",
"a c #988F8A",
"s c #96908C",
"d c #9A928D",
"f c #9D9691",
"g c #9E9994",
"h c #9F9A98",
"j c #A09793",
"k c #A19A95",
"l c #A49E99",
"z c #A6A09C",
"x c #A8A29E",
"c c #AAA3A0",
"v c None",
/* pixels */
"XXX..X....,du:=@@@$+++++XXXXrzwXXXXXXXXXXXXXX@XX@@@X-t8%++  ",
"XXX ....  ,gy&@@@%@X@XXXXXXX8lr@X  XXX XXXX@XXXX@XX@=r9% +.+",
"XXX...    5hy>@%%@X+XX.XXXXX9crX.X.XXXXXXXXXXXXXX@XX-r8% . .",
"X  ...   $qhw=@@+@++XXXXXXX=ilu-XXXXXXXXXX XXXXXXXX@;u9%+   ",
".... . O*5slw;%%$+X+XXXXXX;ylckr-XXXXX.XXXX  XXXXXXX;y8%X...",
"....O$-3wdzzf9-%+@+XXXX.$2uxzlclw;X  X XX XX XX XXXX>y5XX...",
"v%=>4qydggjlchw5-$XXXXX=5dlkadjclr-XX ..XX  XXXXX X.>u6+....",
"568radaw99ylzgki6-XX.%,wgkp6;9alcxy;%.  X  XXX XXXXX,aq$.+&,",
"sdsyq1:,:>6jd30is1;@<<thf6;@;=<phlxt<=X . .  .   X @5sq;-,1r",
"y7,>=&&:&&,sa%*3thq1rhht,===@;@;<rslt<5o. ..  .  X=65sq<8paa",
":&:-&::::=:yd-O$;rhhhs<;===;=;;@@;;rjs8;&. .  .+=<89pfssse,>",
"=::&=&=&-=&qj-.$@;hhr;@====@@=@@;@@;5djt,&..+&>,6rsllseq3:==",
"===&:::=&:&6d3o.+<lp;@;=;@@=;@;@;=@==;rls,>,1qesjkxgw7,=&&==",
"=====&=:=:=,s4$.+qlq@;=@@@==@=@;@==@@%=wkftsfdpw56di4:&&&&&#",
":==:&=::=::,iq$.%ud>=@@=@;;@@;;@=@=@=@%&wkzh0,:#@&pq>%&&&&##",
":==##&==&&&>we$O>gw=@;=@==@=@@;@=&@@=@%@4dkh0&&&%,sq=&&=&&&#",
"::#:&:#:=&=:qu%X8j5=;@=@;@==@@=@;@@@@@@@86phe>&&#4de::#:&&&&",
"##:#:&&&&&&=6a=@tg>%@@=@@@=@@=@@@=@@@@@=<@<jh5&##0ee:#:#&&&&",
":#::#&:::::&4p<;fu==@;=@=@@;@@@;&@@@@@==%@@rhq=#:4ee:#:#&&&&",
"#:##::#:&&:&,p66g6@=@;@;@=@@@@@@@X=@=@=;@@@=su>&#:e0:##:#&&&",
":#::&&:#:&:&4yupf,=X=@=@;@@@@@@@=@@@@@=@@@%X9j6=:0e0&##:####",
"#::#&&&:&&:&5yklp;=%=@@@@@@@@@;@@@@=@@=@@@%%;su,:0e4#####::#",
"#:#:&##&:&&&4elky,%=@@==@@@@@@@@X%%%%=@@%%X%X5f6:we1###&###:",
":#:#&&&&&&&&6ellre5==@@@;@@@@@@@%%$%%%++%o@X@;pp1se:#&######",
":##**#:#&&:4wgllfw98-@@=@@@@@@@@%$%+-+++++++@%wg1sq:###&&#&&",
":#:##:#:&>6ykke7agr66;=%@@@@@@@X+@+-&++++@++X=upggq:&###&##&",
"#:#####:28uja0-*-7fu895=@@@@X@@X++%*++++X++X@7aygzsq11::###@",
"##:#:O:09ai74>$$$$-rp855;@@@X@XX++-*++X+X@%X;uyylzzzdeqq1,;=",
"414::000li62*%$$*$o*6ip65<;;%%%%-%%*+++++++;rwyji0ekdppstr<<",
"se0000eel92$$$$oooOOo-yjt5<565695=->*#+++@>qwsa72>3ee:#4pzzh",
"zzczkke0d9*$$$o$ooOooo%9dgjstw99866655,66qqqdy2$OO#>00:0hchz",
"00eeeke0d7$*$$oooo.Oooo-uxkjlxljddfspsyttrtji*OO..OO>wwfhf8<",
":&&&;8hts<%o$$ooO....$O*ixy00ee0450wwuaadjkze#O.O.OOo7jlp;=@",
":#&&@;8hzr-o$$oo..OoOOo2aj0>,>::==:,:,,,40ekz4O ....o2jj,@X=",
"=@&&;@@rhf<%$oooO..OOoo2dg7-:&==:==&&&==:>,wld*O   O.*da;@&=",
"=&&&@=@<tgs;%ooooo...o$4ji3==&:::::&===::>:,yly$   ..2ai;@=@",
"@@==@=@=3ije-oo.OO.OOO$6ku,&=:=::-::=:-&::=;4dl6+. .O*st@=@@",
"@=@;@@@@=6uj7*ooo$ooO.*7ze>&:&:::=:&=&=:=:::>0dh>+...-sp=@@@",
"@@@@=@;;%@5aa5%oo.oOOO*ek0:::=:&==&&&&=&>:>:=,9aa;OOO-py@@@@",
"=@@=@@@@%%%5aa5$ooXooo>ek0&&&&&=:=:=:::=:=&::;77sw-$.2su;@@@",
"@%%#@%%&%%*=wda,*$$OO$3ik6>==:==:=&::&===-=:=->>6p6;$3dp,@@@",
"@%%$@$%$$%$;46hu33*2224dk6,:&::>=:&&:=&=:=:::>>::4s636fp,@@%",
"@%$@$%%%@%@-%&rktq6667wkze3&&:&===:=&&::::=::>>=:>ws56ga;@@%",
"%+%+%++++$%-$+,kzjdiuuajxk5&&=&&:&:&==:&=&&&&:>:&:,eu9ha;+++",
"@+#+++@%%$&%++4zf03>**$exks,&&==&&=&&:&&:-&&&=>::::,pkhp*++X",
"%$++++$%%%*+%+wze-+OX.$>fidq=&&=:&&&:=&=:::&>::=::==1dkt=+@@",
"#$+++$+$+%%+$$pk5+X+XX.#udwd4=&=&=&:=&==&&=:=>:::===:6gp9%++",
"++++++O+$#+$+&ds>++X.X+O4j6ep,&===&&&:=&&&=:=:=::=:=:,whp6@X",
"++X++.++$$+XX3jw>$+XX.+ 2dw-ee>&&&&&&=:::==:=::==:>::=4iht4&",
"63*+X+.+%+X+$0hq-XXXX. .2du--e6=&&&#&&&&:&&&:>:&=>:=:>40ghtr",
"rwye7>%>;XXX$yhq*XXX... -yd,$>u4:&&&&&&:&:=&&:>===::>47wkzka",
"hgstiiid6XX -ga6$XX  ...%0g6$$0i,&:&&==&=:=::&=:::&,506djaag",
"9wagasraf9&X6fr6+O+.$$*:5rja-X*pr,;===&===:===>=:>,676ps0,;,",
"%*247eattuawpf95-->370usgjjl7XX5g9>,,==>>>>>:>,,44666sd6&@@$",
"v@$@$-4wiaptpf8rwiisssuyy9wyw- %ef6,,,,4,5,,16,,4,1wiii>#@++",
"%+@+++X-4quhzhptew074>=*=%=5y6-;qlgtrw9wqwwwshgiasgz65r-+@++",
"$%$+X$XX+-4uly;-==%=@@@@@@@;ip8rslhay00767677qeidaugsye&@+++",
"++++++XXXX%yk5-=@==@@==X@Xo=ulkfiw9,%$%$X$++@+%*;447yjy*++@+",
".+XX+XX+X.%ef,%=@=@X=X@@X=X;ulu8>%%X+%@++@+XX+++X+%%4aw%++++",
"+XXXXXXXX.*yp;=%@@@@o@%XXXo=pk9=X+X+XXX$++++++@+@+$$,dy%+++."
};
