/* XPM */
static char *result[] = {
/* columns rows colors chars-per-pixel */
"60 60 48 1 ",
"  c #851D05",
". c #8B1F05",
"X c #872205",
"o c #8D2405",
"O c #922605",
"+ c #992705",
"@ c #942B06",
"# c #9B2D06",
"$ c #952C08",
"% c #9A2E08",
"& c #9D3206",
"* c #973008",
"= c #9D3208",
"- c #A12E05",
"; c #A43306",
": c #AA3607",
"> c #A63907",
", c #AC3A07",
"< c #A33608",
"1 c #A93608",
"2 c #A53A09",
"3 c #AC3C09",
"4 c #B13606",
"5 c #B33C07",
"6 c #B93E07",
"7 c #B03708",
"8 c #B33D08",
"9 c #B93E08",
"0 c #AE410A",
"q c #B54007",
"w c #BC4207",
"e c #BF4807",
"r c #B44209",
"t c #BB4409",
"y c #B6480C",
"u c #BD490B",
"i c #C34307",
"p c #C34609",
"a c #C84709",
"s c #C44B0A",
"d c #CA4D0A",
"f c #D14E0B",
"g c #C6510C",
"h c #CC520C",
"j c #D2530B",
"k c #D9570C",
"l c #D5580C",
"z c #D8590C",
/* pixels */
".o $&88:=o&>8w,:,saa8o#;,,O<:#;551#O<,8<$,5,55457:5,;896r<<O",
"#*o*<ttt0=30ww888aapr$<<3,$>:;<8tr2#;0wq20,588r859ty8tpsur2#",
";>oo@tesu3qyee8qeds3;#<;&#+=-->5rt3++2eet=+#+#>,8usswipdst3-",
"8tr00wshhugsyr>0rpy>>,yt3,>rrr35tpy8;3wdhr2#>33,3ypsspsyy20,",
"tspswwehjjhs>&@*&,3#38yt3,>yptr8tspt>3yhly3=3r3,&<rsasu3<@08",
"8r85,8yshlu3*&#<;:1-3ttr>##3rttddjsr=*=yggsqytq:#&,30tw8330<",
",,:;>:3yghq#<;<3,,,-3tt83<;23rphdgyr=#@0pssyspy0221<%8rtq8,#",
";;-;#@OO2r>&,yspst5%3,8tpy82&tpsu3,##&=qwrtwppddsy<=+,rhp,<O",
"%<32&#Oo;,33yghddpy33:8thhs0*0yur1;-,rtuerqwesdgdu<<&regy,:-",
".%,,><+O<:qqpdjhaasqq:qtzzh0@=,3,:><tshdt2>q68wtdp;-&tt35;:;",
"O<1tuyr3udggdsusspptyetthls0$*<tutyurysspyqew300yq;-#>2>1:tt",
"%2,uape5sjfjsp,yepptyprqhgq0&#*rpssp33tuuwwss3<&33;-&@@O<3up",
"rt9spt8,udljst:,>332;<33tw6uu2<*>3usw8,438thht3&;2q3>*o@@#3,",
"pppppu9tsflhst33&::#;3repwtuur2=&:udw5:4;,yss9r3>ryer0&&&=,-",
"aapppppphjspsp83@>;-3qsdspq3<0r,:&ys88;;-;<3w6wwwpphhsw,,3,-",
"appptpppgsyrdst3;:,3ysddsu02<uptyrhhse,:;&>r66sasgugseequsy,",
"pppt3spsy:>:gstr::5rssgsw0;&#uadgwgjdsq3<$=qtpsddd5we8w6ddu4",
"9sdy<3880&;;wssy88uhhpu8,>#;>tdjldfjhhet><2shhhast,5,,qwey3>",
"9sst2<;12#;;0ypgt8pljtq5,3r3<yskjdsshhdu320ughgsuyrr5,yew,,#",
"<rppu3#+;#->&3tupwehd6twwshr@rskg333egjgyq0<388,,wdspppww,4:",
"-rwyr<#;3ryy300upweds6w69sly=rplg8>>0uhgw0,&>>33,5ussppwwwyw",
"#,,2$+<;ypdsr3>r68wsp8ww9pdt,rtpu8=$=3ur::;O@o3q,:3uspi8wuds",
"8r2<-3rtuttuww886wpds8pu9tr8186tt333ry88;#;>*O>3:>&0ypw8qwsa",
"r8#->58te888e6558wpseqppty<,,t683-:,8t,>-;>,>$<<,3@>,qt,:,sa",
"53#3q88ww,22ut883ppy3>saat$*=08,,#:,88:>=rr83<8558&,58t<,,ep",
",02000rwyq30sp8yrsg33;ypu0*<2r8,,,3,88222sssy385ty2rq95>3ysp",
"#:83&**>r69ttt<0rgs=&;;;<#&rtwt588,:<;#28jjjh959puruuw8:qtda",
"#:8q02>:2333ry3ysgy#<:-;#<,uasttssyryy333gjfjgp9tutsspwqesss",
";:,qw3,:<##*288sgur$<::>&<3pfswwsaptds982tsgjlp95tesde6wpppw",
"8y:qw33qyt03888,r3<&;:38rr8tettppst9ttttrr32rur843,3rt6wy8t8",
"wu8ww58wppt8q8::1<#;;-,8twtt8,8uppt95699533=28tt,,<>8up8338,",
"psww5,,58rqq,>-#;3,,5-;,tsat,:5885,554566ty=>3sd8<$>qss83%#O",
"ep665:,,3208<---;tttr,38tppy11,uut,38888tpu30ygjsy=0eggt82#.",
"555r,:,:=o+#;-#->pstt8589983;3rsp92=80<3,ss3ythfds>ytjjr8,<O",
"=><ytww33##<ry,,,ushasss968uussfd9r32==38r0<0wgfdduyrtuet8r,",
"o$%89wer3<;2sst8rusgdfdattrsddffgtt82==0r2<*0wpssssu,5ruttpp",
" #3q65wt9trr8ydlhytpadspspsljjhyy<rrssr3&*<tusuq=>3ussdpsalj",
"O=yepqqqtttw3yssgrrtusptdsshhhdt8-3rggtr3=0usur>&=3uadappalh",
"*0uss3;&rptt2,8,51-:;1t99r,357rtr<<=0ysstr0rr,>##>rpdpppppt3",
"tupda8;$23rqyr1:1881--rtrr<<<1rsu33<30tssuw00<>;2rudsy88rr2=",
"aapspq>ooo;1tt11,tt3;;,5,,%=%3rsu800<2,yppt3<*=<,ysps3###O@X",
"ipastqy>=O<3tasutsghu,55ey30,8t3rqggr3;30wpdur3-<388r>#@O@&#",
"appprrq,2=3yupsp9ughg8tussrttr8>3qhjy3##=tsdar2-;33,32<=&#32",
"ipir>>;#<2ust999t83r88hlhspgh0-#>3us3<@*>ghds1;;rwe0&r898>yt",
"wtty,::;0qggt8303>>,58ghdsyug2;,ytsy,3=30ghfs8rrsutr,t653=yy",
",8233:;-qpdd0:&&@#=,45twwr<3,11rtst,11;88psdg8tuds1,8ei63O<;",
"><=0wy5;8wddyt:<#<,8ttyq2=*,1rtsppr1<;;39sdds58qur;rpppy2@=@",
"+*$3w85,q8ssse,2;;19tt3<@@*38tusppr:--%88saps5,,5r3tpip32%$X",
"@;<3875855dhasty,::856,;==2yew98uppy>#O<8sp<23111rpppas,,2>$",
"O<8y8yt85tddsut94:,88r3<=0tgsy8,ussp02=0ugu%<3ytrysppsu,3r03",
"O2dy3sst99gd33555::q0=$@1tjjjt,;rtsaptussu8@<9dhsptptr3%0tgf",
"O;r3=up69pssyr,,2;<<03<<,tgjddsyr9uutpdgsr<@3tddpt59t3=$<rgd",
"@#;*$0wtp6t96t,,&#&@=,555ytddfhtwwt0tpdst<O+3wssup6wt<@X$<tp",
";>#*o=0sat82te5yqq0<33uspursfdsteheertsst<#<0wyr3088,>=@&>ss",
",8<*@&2sp9<<ettuww8,85sapt,udpy,uhdeqtssu32:588>;>,:;#==>3ss",
"9ttr<;8spt3;qppt886868sppt,wu0,%rshhw6wsat8,45,&$#---#>q8qpe",
"rtsptrtpppy3ttpt8308ssutyr1r83<%0yggeqwppt8,qtr3<<><&>0ppseq",
"5tsssuwtppy8piwr>&;8sgu8,11<##@O*;we3qttpt8:r66t,>:<#,rsgsy;",
"pssptr8rtppupptt3,reur3><%%3<;32,;>0ww6t8533y6pst8:>2ytpsw85",
"pp6t5>;:qwpipp554,qwq##+O..<1-17,#O;8863#-;,8wppw8;-:w86q44:"
};
